%TF.GenerationSoftware,KiCad,Pcbnew,9.0.7*%
%TF.CreationDate,2026-02-28T18:36:15+01:00*%
%TF.ProjectId,CROSSFIRE PCB IMAGE SPLITTER,43524f53-5346-4495-9245-205043422049,rev?*%
%TF.SameCoordinates,Original*%
%TF.FileFunction,Copper,L2,Bot*%
%TF.FilePolarity,Positive*%
%FSLAX46Y46*%
G04 Gerber Fmt 4.6, Leading zero omitted, Abs format (unit mm)*
G04 Created by KiCad (PCBNEW 9.0.7) date 2026-02-28 18:36:15*
%MOMM*%
%LPD*%
G01*
G04 APERTURE LIST*
%TA.AperFunction,ComponentPad*%
%ADD10R,1.700000X1.700000*%
%TD*%
%TA.AperFunction,ComponentPad*%
%ADD11C,1.700000*%
%TD*%
%TA.AperFunction,HeatsinkPad*%
%ADD12O,1.000000X2.100000*%
%TD*%
%TA.AperFunction,HeatsinkPad*%
%ADD13O,1.000000X1.800000*%
%TD*%
%TA.AperFunction,ViaPad*%
%ADD14C,0.600000*%
%TD*%
%TA.AperFunction,Conductor*%
%ADD15C,0.500000*%
%TD*%
%TA.AperFunction,Conductor*%
%ADD16C,0.100000*%
%TD*%
%TA.AperFunction,Conductor*%
%ADD17C,0.150000*%
%TD*%
%TA.AperFunction,Conductor*%
%ADD18C,0.200000*%
%TD*%
G04 APERTURE END LIST*
D10*
%TO.P,J4,1,Pin_1*%
%TO.N,GND*%
X246500000Y-29010000D03*
D11*
%TO.P,J4,2,Pin_2*%
X246500000Y-31550000D03*
%TO.P,J4,3,Pin_3*%
%TO.N,+3.3V*%
X246500000Y-34090000D03*
%TO.P,J4,4,Pin_4*%
X246500000Y-36630000D03*
%TO.P,J4,5,Pin_5*%
%TO.N,/SCL*%
X246500000Y-39170000D03*
%TO.P,J4,6,Pin_6*%
%TO.N,/MOSI*%
X246500000Y-41710000D03*
%TO.P,J4,7,Pin_7*%
%TO.N,/UART_TX*%
X246500000Y-44250000D03*
%TO.P,J4,8,Pin_8*%
%TO.N,/UART_RX*%
X246500000Y-46790000D03*
%TO.P,J4,9,Pin_9*%
%TO.N,/RST*%
X246500000Y-49330000D03*
%TO.P,J4,10,Pin_10*%
%TO.N,/VSYNC*%
X246500000Y-51870000D03*
%TD*%
D12*
%TO.P,J3,S1,SHIELD*%
%TO.N,unconnected-(J3-SHIELD-PadS1)_1*%
X253680000Y-49325000D03*
D13*
%TO.N,unconnected-(J3-SHIELD-PadS1)*%
X253680000Y-53505000D03*
D12*
%TO.N,unconnected-(J3-SHIELD-PadS1)_2*%
X262320000Y-49325000D03*
D13*
%TO.N,unconnected-(J3-SHIELD-PadS1)_3*%
X262320000Y-53505000D03*
%TD*%
D14*
%TO.N,GND*%
X249000000Y-41750000D03*
X255500000Y-63500000D03*
X256250000Y-44000000D03*
X259840000Y-59415000D03*
X254800000Y-48750000D03*
X257750000Y-63250000D03*
X258415540Y-22710311D03*
X249000000Y-45000000D03*
X256366500Y-65970000D03*
X259750000Y-41000000D03*
X248987925Y-39705124D03*
X261500000Y-20000000D03*
X254894334Y-66666712D03*
X248950000Y-36500000D03*
X259750000Y-46500000D03*
X259840000Y-64040000D03*
X254033687Y-46652813D03*
X255500000Y-45500000D03*
X253262091Y-24262091D03*
X256250000Y-42250000D03*
X252957923Y-26291557D03*
X251500000Y-47000000D03*
X258350000Y-46500000D03*
X261100000Y-41207952D03*
X261200000Y-48750000D03*
X248500000Y-31250000D03*
X244849000Y-26250000D03*
X263799265Y-34200735D03*
X258000000Y-34000000D03*
%TO.N,+3.3V*%
X254076871Y-27150000D03*
X263200000Y-38250000D03*
X256500000Y-29250000D03*
X262750000Y-51250000D03*
X262790861Y-34889391D03*
X258400000Y-29075000D03*
X262750000Y-23000000D03*
X259400000Y-20325000D03*
X250799806Y-20478012D03*
X253674252Y-23424252D03*
X261250000Y-29850000D03*
X253284287Y-45342976D03*
X255723000Y-31500000D03*
X261150000Y-42440000D03*
X255899998Y-35226953D03*
X260250000Y-28000000D03*
X258000000Y-36250000D03*
%TO.N,Net-(U1-XOUT)*%
X250250000Y-53000000D03*
X256250000Y-41000000D03*
%TO.N,Net-(U1-XIN)*%
X257048231Y-40946785D03*
X250956734Y-51645810D03*
%TO.N,/TE_TOP*%
X252750000Y-36250000D03*
X250250000Y-23000000D03*
%TO.N,/RST*%
X247750000Y-24250000D03*
X259857772Y-24465544D03*
X256420783Y-36515085D03*
X251325000Y-24764296D03*
%TO.N,/SCL*%
X258574176Y-25488998D03*
X256500000Y-20250000D03*
X260573074Y-18952970D03*
X257825000Y-23250000D03*
X249298000Y-37500315D03*
X255900000Y-33408054D03*
%TO.N,/DCX_TOP*%
X252923011Y-33735504D03*
X251900000Y-25406616D03*
%TO.N,+1V8*%
X248950000Y-25250000D03*
X247361091Y-22361091D03*
%TO.N,/CS_TOP*%
X252600000Y-31350000D03*
X252476000Y-24778689D03*
%TO.N,/MOSI*%
X255497936Y-34099681D03*
X257925001Y-26138172D03*
%TO.N,/CS_BOT*%
X252599999Y-33003611D03*
X260607772Y-25965544D03*
%TO.N,/DCX_BOT*%
X260250000Y-25250000D03*
X253666240Y-35538479D03*
%TO.N,/TE_BOT*%
X255500000Y-36500000D03*
X259500000Y-23750000D03*
%TO.N,+5V*%
X255600001Y-49186310D03*
X256250000Y-50813172D03*
X258000000Y-50000000D03*
X263500000Y-52750000D03*
%TO.N,Net-(J3-CC1)*%
X251750001Y-50313172D03*
X253250000Y-50777828D03*
%TO.N,Net-(J3-CC2)*%
X251184314Y-50878860D03*
X249359000Y-47500000D03*
X253250000Y-51577831D03*
X250509000Y-47500000D03*
%TO.N,/VSYNC*%
X254850000Y-40250000D03*
X249000000Y-51750000D03*
%TO.N,/UART_RX*%
X251600000Y-41500000D03*
X252527000Y-30150000D03*
X248750000Y-46750000D03*
X253223001Y-32000000D03*
%TO.N,/UART_TX*%
X256154781Y-28404781D03*
X255899998Y-32500000D03*
X252600501Y-27007272D03*
X252527000Y-28650000D03*
%TO.N,/FLASH_MISO*%
X262354771Y-35600001D03*
X262450000Y-39000000D03*
X258969669Y-43280331D03*
X257260298Y-43000000D03*
%TO.N,/FLASH_CLK*%
X263249000Y-45000000D03*
X260477639Y-31495432D03*
X262250000Y-37500000D03*
%TO.N,/FLASH_CS*%
X260449000Y-38750000D03*
X259000000Y-40250000D03*
X259250000Y-38750000D03*
X256747017Y-39491051D03*
%TD*%
D15*
%TO.N,GND*%
X255739361Y-38798000D02*
X256058677Y-39117316D01*
X256058677Y-39117316D02*
X256435942Y-38740051D01*
X258500000Y-39500000D02*
X260626232Y-39500000D01*
X257498017Y-39179976D02*
X258179976Y-39179976D01*
X248500000Y-28750000D02*
X248500000Y-31250000D01*
X257750000Y-64586500D02*
X259293500Y-64586500D01*
X248987925Y-39751000D02*
X253295561Y-39751000D01*
X254248561Y-38798000D02*
X255739361Y-38798000D01*
X259750000Y-47300000D02*
X261200000Y-48750000D01*
X244849000Y-26250000D02*
X245349000Y-26750000D01*
X256435942Y-38740051D02*
X257058092Y-38740051D01*
X253295561Y-39751000D02*
X254248561Y-38798000D01*
X257750000Y-63250000D02*
X257750000Y-64586500D01*
X260626232Y-39500000D02*
X261182184Y-40055952D01*
D16*
X258415540Y-22434460D02*
X258415540Y-22710311D01*
D15*
X261199000Y-40055952D02*
X261199000Y-37199000D01*
X259750000Y-46500000D02*
X259750000Y-47300000D01*
D16*
X262042048Y-41207952D02*
X262830232Y-40419768D01*
D15*
X256250000Y-47300000D02*
X254800000Y-48750000D01*
X259948000Y-40730777D02*
X260622825Y-40055952D01*
X246500000Y-26750000D02*
X248500000Y-28750000D01*
D16*
X262830232Y-40419768D02*
X262830232Y-39651000D01*
D15*
X249000000Y-45000000D02*
X249000000Y-41750000D01*
D16*
X261500000Y-20000000D02*
X260850000Y-20000000D01*
X262830232Y-39651000D02*
X263750000Y-38731232D01*
D15*
X256250000Y-44000000D02*
X256250000Y-47300000D01*
X257750000Y-64586500D02*
X256366500Y-65970000D01*
D16*
X263750000Y-38731232D02*
X263750000Y-34250000D01*
D15*
X258179976Y-39179976D02*
X258500000Y-39500000D01*
X254894334Y-64105666D02*
X255500000Y-63500000D01*
D16*
X260850000Y-20000000D02*
X258415540Y-22434460D01*
X263750000Y-34250000D02*
X263799265Y-34200735D01*
D15*
X259750000Y-46500000D02*
X258350000Y-46500000D01*
X259948000Y-40802000D02*
X259948000Y-40730777D01*
X248548000Y-36902000D02*
X248548000Y-39311075D01*
X261182184Y-40055952D02*
X261199000Y-40055952D01*
D16*
X253262091Y-25987389D02*
X252957923Y-26291557D01*
D15*
X248548000Y-39311075D02*
X248987925Y-39751000D01*
X260622825Y-40055952D02*
X261199000Y-40055952D01*
X255500000Y-43000000D02*
X256250000Y-42250000D01*
X251500000Y-47000000D02*
X251847187Y-46652813D01*
X257058092Y-38740051D02*
X257498017Y-39179976D01*
X254894334Y-66666712D02*
X254894334Y-64105666D01*
X245349000Y-26750000D02*
X246500000Y-26750000D01*
X248950000Y-36500000D02*
X248548000Y-36902000D01*
D16*
X253262091Y-24262091D02*
X253262091Y-25987389D01*
D15*
X261199000Y-37199000D02*
X258000000Y-34000000D01*
X257750000Y-61505000D02*
X259840000Y-59415000D01*
X259293500Y-64586500D02*
X259840000Y-64040000D01*
X257750000Y-63250000D02*
X257750000Y-61505000D01*
D16*
X261100000Y-41207952D02*
X262042048Y-41207952D01*
D15*
X251847187Y-46652813D02*
X254033687Y-46652813D01*
X255500000Y-45500000D02*
X255500000Y-43000000D01*
X259750000Y-41000000D02*
X259948000Y-40802000D01*
D16*
%TO.N,+3.3V*%
X263200000Y-38250000D02*
X263200000Y-37400000D01*
X263449000Y-37151000D02*
X263449000Y-35547530D01*
D15*
X252750000Y-41587925D02*
X252750000Y-44808689D01*
D16*
X254076871Y-23598881D02*
X254076871Y-27150000D01*
X260801306Y-18401970D02*
X261500000Y-19100664D01*
X261500000Y-19100664D02*
X261500000Y-19449000D01*
X250799806Y-20478012D02*
X252875848Y-18401970D01*
X261728232Y-19449000D02*
X262750000Y-20470768D01*
X259400000Y-20325000D02*
X259980276Y-20325000D01*
D15*
X252750000Y-44808689D02*
X253284287Y-45342976D01*
D16*
X260250000Y-28000000D02*
X260250000Y-28850000D01*
D15*
X246500000Y-34090000D02*
X247847000Y-35437000D01*
D16*
X252875848Y-18401970D02*
X260801306Y-18401970D01*
X263449000Y-35547530D02*
X262790861Y-34889391D01*
X256976953Y-35226953D02*
X258000000Y-36250000D01*
D15*
X251617199Y-40455124D02*
X252750000Y-41587925D01*
D16*
X260250000Y-27250000D02*
X260250000Y-28000000D01*
X255723000Y-31500000D02*
X255723000Y-30027000D01*
X261250000Y-29850000D02*
X260500000Y-29850000D01*
D15*
X264000000Y-46813075D02*
X261150000Y-43963075D01*
D16*
X253674252Y-23424252D02*
X253902242Y-23424252D01*
D15*
X247847000Y-40455124D02*
X251617199Y-40455124D01*
D16*
X261500000Y-19449000D02*
X261728232Y-19449000D01*
D15*
X262750000Y-51250000D02*
X264000000Y-50000000D01*
X247847000Y-35437000D02*
X247847000Y-40455124D01*
D16*
X262750000Y-20470768D02*
X262750000Y-23000000D01*
D15*
X264000000Y-50000000D02*
X264000000Y-46813075D01*
D16*
X262750000Y-23000000D02*
X262826000Y-23076000D01*
X253902242Y-23424252D02*
X254076871Y-23598881D01*
X260856276Y-19449000D02*
X261500000Y-19449000D01*
X260500000Y-29850000D02*
X259725000Y-29075000D01*
X262826000Y-23076000D02*
X262826000Y-24674000D01*
X255723000Y-30027000D02*
X256500000Y-29250000D01*
X263200000Y-37400000D02*
X263449000Y-37151000D01*
X255899998Y-35226953D02*
X256976953Y-35226953D01*
X260250000Y-28850000D02*
X261250000Y-29850000D01*
X259725000Y-29075000D02*
X258400000Y-29075000D01*
X259980276Y-20325000D02*
X260856276Y-19449000D01*
D15*
X261150000Y-43963075D02*
X261150000Y-42440000D01*
D16*
X262826000Y-24674000D02*
X260250000Y-27250000D01*
D15*
%TO.N,Net-(U1-XOUT)*%
X255448997Y-39499000D02*
X256250000Y-40300003D01*
X254398000Y-45956464D02*
X254398000Y-45043536D01*
X255198000Y-46756464D02*
X254398000Y-45956464D01*
X254538925Y-39499000D02*
X255448997Y-39499000D01*
X254589248Y-47473000D02*
X255198000Y-46864248D01*
X254448000Y-42564248D02*
X254974000Y-42038248D01*
X254857124Y-41001000D02*
X254538925Y-41001000D01*
X248249000Y-52061075D02*
X248249000Y-51438925D01*
X253140694Y-47473000D02*
X254589248Y-47473000D01*
X254398000Y-45043536D02*
X254448000Y-44993536D01*
X254974000Y-41117876D02*
X254857124Y-41001000D01*
X254099000Y-40561075D02*
X254099000Y-39938925D01*
X254099000Y-39938925D02*
X254538925Y-39499000D01*
X255198000Y-46864248D02*
X255198000Y-46756464D01*
X254448000Y-44993536D02*
X254448000Y-42564248D01*
X254538925Y-41001000D02*
X254099000Y-40561075D01*
X254974000Y-42038248D02*
X254974000Y-41117876D01*
X256250000Y-40300003D02*
X256250000Y-41000000D01*
X252863694Y-47750000D02*
X253140694Y-47473000D01*
X251937925Y-47750000D02*
X252863694Y-47750000D01*
X248249000Y-51438925D02*
X251937925Y-47750000D01*
X249187925Y-53000000D02*
X248249000Y-52061075D01*
X250250000Y-53000000D02*
X249187925Y-53000000D01*
%TO.N,Net-(U1-XIN)*%
X258311075Y-49249000D02*
X257688925Y-49249000D01*
X257759636Y-50751000D02*
X258159856Y-51151219D01*
X258661075Y-45749000D02*
X258038925Y-45749000D01*
X259438925Y-45749000D02*
X259388925Y-45799000D01*
X258711075Y-47201000D02*
X258750000Y-47201000D01*
X257688925Y-50751000D02*
X257759636Y-50751000D01*
X260111075Y-45799000D02*
X260061075Y-45749000D01*
X257688925Y-49249000D02*
X257249000Y-49688925D01*
X257249000Y-49688925D02*
X257249000Y-50311075D01*
X254455075Y-54856000D02*
X253286083Y-54856000D01*
X258750000Y-47201000D02*
X258750000Y-49687925D01*
X257599000Y-46811075D02*
X258038925Y-47251000D01*
X258038925Y-47251000D02*
X258661075Y-47251000D01*
X260250000Y-43500000D02*
X260250000Y-45799000D01*
X257599000Y-46188925D02*
X257599000Y-46811075D01*
X257696785Y-40946785D02*
X260250000Y-43500000D01*
X258038925Y-45749000D02*
X257599000Y-46188925D01*
X257249000Y-50311075D02*
X257688925Y-50751000D01*
X250956734Y-52526651D02*
X250956734Y-51645810D01*
X253286083Y-54856000D02*
X250956734Y-52526651D01*
X257048231Y-40946785D02*
X257696785Y-40946785D01*
X258711075Y-45799000D02*
X258661075Y-45749000D01*
X259388925Y-45799000D02*
X258711075Y-45799000D01*
X258159856Y-51151219D02*
X254455075Y-54856000D01*
X258750000Y-49687925D02*
X258311075Y-49249000D01*
X258661075Y-47251000D02*
X258711075Y-47201000D01*
X260250000Y-45799000D02*
X260111075Y-45799000D01*
X260061075Y-45749000D02*
X259438925Y-45749000D01*
D17*
%TO.N,/TE_TOP*%
X250750000Y-34250000D02*
X252750000Y-36250000D01*
X250250000Y-23750000D02*
X250750000Y-24250000D01*
X250250000Y-23000000D02*
X250250000Y-23750000D01*
X250750000Y-24250000D02*
X250750000Y-34250000D01*
%TO.N,/RST*%
X258250000Y-30915183D02*
X258250000Y-29651000D01*
X253326000Y-36326000D02*
X253326000Y-36011412D01*
X257824000Y-29313588D02*
X257824000Y-28836412D01*
D16*
X246069768Y-24250000D02*
X247750000Y-24250000D01*
D17*
X258250000Y-29651000D02*
X258161412Y-29651000D01*
X258851000Y-26026762D02*
X259150176Y-25727586D01*
X258851000Y-27809411D02*
X258851000Y-26026762D01*
X256420783Y-36515085D02*
X256315088Y-36515085D01*
X255738588Y-37076000D02*
X254076000Y-37076000D01*
X259000000Y-24746388D02*
X259123194Y-24623194D01*
D16*
X244298000Y-47128000D02*
X244298000Y-26021768D01*
D17*
X259123194Y-24623194D02*
X259511412Y-25011412D01*
X259150176Y-25250410D02*
X259000000Y-25100234D01*
X252670388Y-35674000D02*
X251250000Y-34253612D01*
X255724003Y-35924000D02*
X254851000Y-35050997D01*
X259907128Y-24778283D02*
X259857772Y-24728927D01*
X251250000Y-34253612D02*
X251250000Y-26750000D01*
X257824000Y-28836412D02*
X258851000Y-27809411D01*
X259857772Y-24728927D02*
X259857772Y-24465544D01*
X259674000Y-25011412D02*
X259907128Y-24778283D01*
X258161412Y-29651000D02*
X257824000Y-29313588D01*
X259150176Y-25727586D02*
X259150176Y-25250410D01*
X259000000Y-25100234D02*
X259000000Y-24746388D01*
X256076000Y-36261412D02*
X255738588Y-35924000D01*
X255661410Y-34650953D02*
X257000000Y-34650953D01*
X254851000Y-35050997D02*
X255323998Y-35050997D01*
D16*
X244298000Y-26021768D02*
X246069768Y-24250000D01*
D17*
X255323998Y-34988365D02*
X255661410Y-34650953D01*
X256420783Y-36515085D02*
X256420283Y-36514585D01*
X259511412Y-25011412D02*
X259674000Y-25011412D01*
X256076000Y-36275997D02*
X256076000Y-36261412D01*
X258238588Y-30903771D02*
X258250000Y-30915183D01*
X254076000Y-37076000D02*
X253326000Y-36326000D01*
X255323998Y-35050997D02*
X255323998Y-34988365D01*
X257424000Y-31241183D02*
X257761412Y-30903771D01*
X256315088Y-36515085D02*
X256076000Y-36275997D01*
X252988588Y-35674000D02*
X252670388Y-35674000D01*
X257761412Y-30903771D02*
X258238588Y-30903771D01*
X256300003Y-36514585D02*
X255738588Y-37076000D01*
X256420283Y-36514585D02*
X256300003Y-36514585D01*
X257000000Y-31241183D02*
X257424000Y-31241183D01*
D16*
X246500000Y-49330000D02*
X244298000Y-47128000D01*
D17*
X251325000Y-26675000D02*
X251325000Y-24764296D01*
X251250000Y-26750000D02*
X251325000Y-26675000D01*
X255738588Y-35924000D02*
X255724003Y-35924000D01*
X253326000Y-36011412D02*
X252988588Y-35674000D01*
X257000000Y-34650953D02*
X257000000Y-31241183D01*
%TO.N,/SCL*%
X256500000Y-21925000D02*
X256500000Y-20250000D01*
X256500000Y-20250000D02*
X257000000Y-19750000D01*
X258500000Y-25563174D02*
X258500000Y-27664023D01*
X256854611Y-30890183D02*
X256649000Y-31095794D01*
X258574176Y-25488998D02*
X258500000Y-25563174D01*
D16*
X249298000Y-37500315D02*
X249500000Y-37298315D01*
D17*
X256899000Y-30890183D02*
X256854611Y-30890183D01*
X257825000Y-23250000D02*
X256500000Y-21925000D01*
X259776044Y-19750000D02*
X260573074Y-18952970D01*
X258500000Y-27664023D02*
X257473000Y-28691023D01*
X257473000Y-29458976D02*
X257899000Y-29884977D01*
X256649000Y-31095794D02*
X256649000Y-33408054D01*
X256649000Y-33408054D02*
X255900000Y-33408054D01*
X256899000Y-30635747D02*
X256899000Y-30890183D01*
X257000000Y-19750000D02*
X259776044Y-19750000D01*
X257899000Y-30552771D02*
X256816024Y-30552771D01*
D16*
X249500000Y-22970768D02*
X253517798Y-18952970D01*
D17*
X257899000Y-29884977D02*
X257899000Y-30552771D01*
D16*
X253517798Y-18952970D02*
X260573074Y-18952970D01*
D17*
X257473000Y-28691023D02*
X257473000Y-29458976D01*
D16*
X249500000Y-37298315D02*
X249500000Y-22970768D01*
D17*
X256816024Y-30552771D02*
X256899000Y-30635747D01*
%TO.N,/DCX_TOP*%
X252023999Y-33242199D02*
X252023999Y-32836492D01*
X252361411Y-33579611D02*
X252023999Y-33242199D01*
X252923011Y-33735504D02*
X252767118Y-33579611D01*
X251601000Y-32413493D02*
X251601000Y-26895389D01*
X252023999Y-32836492D02*
X251601000Y-32413493D01*
X252767118Y-33579611D02*
X252361411Y-33579611D01*
X251601000Y-26895389D02*
X251676000Y-26820388D01*
X251676000Y-25630616D02*
X251900000Y-25406616D01*
X251676000Y-26820388D02*
X251676000Y-25630616D01*
D16*
%TO.N,+1V8*%
X248500000Y-25250000D02*
X248950000Y-25250000D01*
X247361091Y-22361091D02*
X248500000Y-23500000D01*
X248500000Y-23500000D02*
X248500000Y-25250000D01*
D17*
%TO.N,/CS_TOP*%
X252476000Y-24778689D02*
X252476000Y-25977908D01*
X252027000Y-26426908D02*
X252027000Y-26965777D01*
X251952000Y-31202000D02*
X252100000Y-31350000D01*
X252100000Y-31350000D02*
X252600000Y-31350000D01*
X251952000Y-27040777D02*
X251952000Y-31202000D01*
X252027000Y-26965777D02*
X251952000Y-27040777D01*
X252476000Y-25977908D02*
X252027000Y-26426908D01*
%TO.N,/MOSI*%
X254851000Y-28895388D02*
X254851000Y-33452745D01*
X257925001Y-26138172D02*
X256913173Y-27150000D01*
X256913173Y-27150000D02*
X256596388Y-27150000D01*
X256596388Y-27150000D02*
X254851000Y-28895388D01*
X254851000Y-33452745D02*
X255497936Y-34099681D01*
%TO.N,/CS_BOT*%
X260826000Y-25488588D02*
X260488588Y-25826000D01*
X252829207Y-32420793D02*
X252984413Y-32576000D01*
X259116024Y-22823000D02*
X259883977Y-22823000D01*
X260488588Y-25826000D02*
X260607772Y-25945184D01*
X252984413Y-32576000D02*
X253461589Y-32576000D01*
X253500000Y-28757223D02*
X254649000Y-27608223D01*
X259883977Y-22823000D02*
X260856391Y-23795415D01*
X253798000Y-32239589D02*
X253798000Y-29548000D01*
X260607772Y-25945184D02*
X260607772Y-25965544D01*
X254649000Y-27290024D02*
X259116024Y-22823000D01*
X252599999Y-33003611D02*
X252599999Y-32650001D01*
X260826000Y-25170389D02*
X260826000Y-25488588D01*
X254649000Y-27608223D02*
X254649000Y-27290024D01*
X253798000Y-29548000D02*
X253500000Y-29250000D01*
X260856391Y-25139998D02*
X260826000Y-25170389D01*
X260856391Y-23795415D02*
X260856391Y-25139998D01*
X253461589Y-32576000D02*
X253798000Y-32239589D01*
X252599999Y-32650001D02*
X252829207Y-32420793D01*
X253500000Y-29250000D02*
X253500000Y-28757223D01*
%TO.N,/DCX_BOT*%
X259261412Y-23174000D02*
X259738588Y-23174000D01*
X253851000Y-29104612D02*
X253851000Y-28902612D01*
X253750000Y-35210462D02*
X253750000Y-32783978D01*
X255000000Y-27435412D02*
X259261412Y-23174000D01*
X259738588Y-23174000D02*
X260505391Y-23940803D01*
X253750000Y-32783978D02*
X254149000Y-32384977D01*
X255000000Y-27753611D02*
X255000000Y-27435412D01*
X253666240Y-35538479D02*
X253666240Y-35294222D01*
X253666240Y-35294222D02*
X253750000Y-35210462D01*
X260505391Y-23940803D02*
X260505391Y-24994609D01*
X254149000Y-29402612D02*
X253851000Y-29104612D01*
X254149000Y-32384977D02*
X254149000Y-29402612D01*
X253851000Y-28902612D02*
X255000000Y-27753611D01*
X260505391Y-24994609D02*
X260250000Y-25250000D01*
%TO.N,/TE_BOT*%
X254101000Y-35101000D02*
X254101000Y-32929367D01*
X254246388Y-29003612D02*
X259500000Y-23750000D01*
X254500000Y-32530365D02*
X254500000Y-29257223D01*
X255500000Y-36500000D02*
X254101000Y-35101000D01*
X254500000Y-29257223D02*
X254246388Y-29003612D01*
X254101000Y-32929367D02*
X254500000Y-32530365D01*
D15*
%TO.N,+5V*%
X260154000Y-52154000D02*
X262904000Y-52154000D01*
X255600001Y-49186310D02*
X256250000Y-49836309D01*
X258000000Y-50000000D02*
X260154000Y-52154000D01*
X262904000Y-52154000D02*
X263500000Y-52750000D01*
X256250000Y-49836309D02*
X256250000Y-50813172D01*
D17*
%TO.N,Net-(J3-CC1)*%
X253250000Y-50777828D02*
X252214657Y-50777828D01*
X252214657Y-50777828D02*
X251750001Y-50313172D01*
%TO.N,Net-(J3-CC2)*%
X253250000Y-51577831D02*
X251883285Y-51577831D01*
X251883285Y-51577831D02*
X251184314Y-50878860D01*
X249359000Y-47500000D02*
X250509000Y-47500000D01*
%TO.N,/VSYNC*%
X249405801Y-52474000D02*
X249961412Y-52474000D01*
X252155801Y-48276000D02*
X248775000Y-51656801D01*
X250380734Y-51750000D02*
X249000000Y-51750000D01*
X254924000Y-45738588D02*
X255724000Y-46538588D01*
X254974000Y-42782124D02*
X254974000Y-45211412D01*
X254981801Y-40250000D02*
X255500000Y-40768199D01*
X254001430Y-47999000D02*
X253358570Y-47999000D01*
X249961412Y-52474000D02*
X250011412Y-52424000D01*
X250430734Y-52424000D02*
X250430734Y-51934398D01*
X255500000Y-40768199D02*
X255500000Y-42256124D01*
X254924000Y-45261412D02*
X254924000Y-45738588D01*
X255724000Y-46538588D02*
X255724000Y-47082124D01*
X254974000Y-45211412D02*
X254924000Y-45261412D01*
X250430734Y-51934398D02*
X250380734Y-51884398D01*
X250380734Y-51884398D02*
X250380734Y-51750000D01*
X254632124Y-48174000D02*
X254561412Y-48174000D01*
X254850000Y-40250000D02*
X254981801Y-40250000D01*
X248775000Y-51843199D02*
X249405801Y-52474000D01*
X253081570Y-48276000D02*
X252155801Y-48276000D01*
X248775000Y-51656801D02*
X248775000Y-51843199D01*
X254278430Y-48276000D02*
X254001430Y-47999000D01*
X250011412Y-52424000D02*
X250430734Y-52424000D01*
X254459412Y-48276000D02*
X254278430Y-48276000D01*
X254561412Y-48174000D02*
X254459412Y-48276000D01*
X255724000Y-47082124D02*
X254632124Y-48174000D01*
X255500000Y-42256124D02*
X254974000Y-42782124D01*
X253358570Y-47999000D02*
X253081570Y-48276000D01*
%TO.N,/UART_RX*%
X251600000Y-41500000D02*
X251600000Y-43900000D01*
X253223001Y-32000000D02*
X253223001Y-30846001D01*
X251600000Y-43900000D02*
X248750000Y-46750000D01*
X253223001Y-30846001D02*
X252527000Y-30150000D01*
%TO.N,/UART_TX*%
X256500000Y-30733136D02*
X256500000Y-30748406D01*
X256500000Y-30748406D02*
X256298000Y-30950406D01*
X252600501Y-28576499D02*
X252600501Y-27007272D01*
X257195021Y-29677386D02*
X256465024Y-30407383D01*
X256154781Y-28404781D02*
X256904781Y-28404781D01*
X252527000Y-28650000D02*
X252600501Y-28576499D01*
X256465024Y-30407383D02*
X256465024Y-30698160D01*
X256298000Y-32101998D02*
X255899998Y-32500000D01*
X257122000Y-29604365D02*
X257195021Y-29677386D01*
X256298000Y-30950406D02*
X256298000Y-32101998D01*
X257122000Y-28622000D02*
X257122000Y-29604365D01*
X256465024Y-30698160D02*
X256500000Y-30733136D01*
X256904781Y-28404781D02*
X257122000Y-28622000D01*
%TO.N,/FLASH_MISO*%
X258689338Y-43000000D02*
X258969669Y-43280331D01*
X257260298Y-43000000D02*
X258689338Y-43000000D01*
X262624000Y-38488588D02*
X262624000Y-38011412D01*
X262874000Y-37761412D02*
X262874000Y-37264966D01*
X263123000Y-37015966D02*
X263123000Y-36368230D01*
X263123000Y-36368230D02*
X262354771Y-35600001D01*
X262874000Y-37264966D02*
X263123000Y-37015966D01*
X262624000Y-38011412D02*
X262874000Y-37761412D01*
X262792706Y-38657294D02*
X262624000Y-38488588D01*
X262450000Y-39000000D02*
X262792706Y-38657294D01*
D18*
%TO.N,/FLASH_CLK*%
X262201057Y-39601000D02*
X262250000Y-39601000D01*
X261398943Y-41839000D02*
X261751000Y-42191057D01*
X261701000Y-42738943D02*
X261701000Y-43452000D01*
X260500000Y-35720768D02*
X261750000Y-36970768D01*
X261010000Y-41839000D02*
X261398943Y-41839000D01*
X260499000Y-41456895D02*
X260851057Y-41808952D01*
X261751000Y-42688943D02*
X261701000Y-42738943D01*
X261849000Y-38751057D02*
X261849000Y-39248943D01*
X261750000Y-36970768D02*
X261750000Y-37750000D01*
X261750000Y-37750000D02*
X262248000Y-38248000D01*
X261750000Y-37750000D02*
X262000000Y-37500000D01*
X261348943Y-40606952D02*
X260851057Y-40606952D01*
X260499000Y-40959009D02*
X260499000Y-41456895D01*
X262250000Y-39601000D02*
X262250000Y-40503612D01*
X261751000Y-42191057D02*
X261751000Y-42688943D01*
X260851057Y-41808952D02*
X261040048Y-41808952D01*
X262201057Y-38399000D02*
X261849000Y-38751057D01*
X262000000Y-37500000D02*
X262250000Y-37500000D01*
X262248000Y-38399000D02*
X262201057Y-38399000D01*
X260851057Y-40606952D02*
X260499000Y-40959009D01*
X261701000Y-43452000D02*
X263249000Y-45000000D01*
X262250000Y-40503612D02*
X261896660Y-40856952D01*
X262248000Y-38248000D02*
X262248000Y-38399000D01*
X260495432Y-31495432D02*
X260500000Y-31500000D01*
X261040048Y-41808952D02*
X261010000Y-41839000D01*
X261598943Y-40856952D02*
X261348943Y-40606952D01*
X260500000Y-31500000D02*
X260500000Y-35720768D01*
X261849000Y-39248943D02*
X262201057Y-39601000D01*
X260477639Y-31495432D02*
X260495432Y-31495432D01*
X261896660Y-40856952D02*
X261598943Y-40856952D01*
%TO.N,/FLASH_CS*%
X259250000Y-38750000D02*
X260449000Y-38750000D01*
X256747017Y-39491051D02*
X257505966Y-40250000D01*
X256747017Y-39491051D02*
X256747017Y-39497017D01*
X257505966Y-40250000D02*
X259000000Y-40250000D01*
X256747017Y-39497017D02*
X256750000Y-39500000D01*
%TD*%
M02*
