%TF.GenerationSoftware,KiCad,Pcbnew,9.0.7*%
%TF.CreationDate,2026-02-28T18:36:15+01:00*%
%TF.ProjectId,CROSSFIRE PCB IMAGE SPLITTER,43524f53-5346-4495-9245-205043422049,rev?*%
%TF.SameCoordinates,Original*%
%TF.FileFunction,Paste,Top*%
%TF.FilePolarity,Positive*%
%FSLAX46Y46*%
G04 Gerber Fmt 4.6, Leading zero omitted, Abs format (unit mm)*
G04 Created by KiCad (PCBNEW 9.0.7) date 2026-02-28 18:36:15*
%MOMM*%
%LPD*%
G01*
G04 APERTURE LIST*
G04 Aperture macros list*
%AMRoundRect*
0 Rectangle with rounded corners*
0 $1 Rounding radius*
0 $2 $3 $4 $5 $6 $7 $8 $9 X,Y pos of 4 corners*
0 Add a 4 corners polygon primitive as box body*
4,1,4,$2,$3,$4,$5,$6,$7,$8,$9,$2,$3,0*
0 Add four circle primitives for the rounded corners*
1,1,$1+$1,$2,$3*
1,1,$1+$1,$4,$5*
1,1,$1+$1,$6,$7*
1,1,$1+$1,$8,$9*
0 Add four rect primitives between the rounded corners*
20,1,$1+$1,$2,$3,$4,$5,0*
20,1,$1+$1,$4,$5,$6,$7,0*
20,1,$1+$1,$6,$7,$8,$9,0*
20,1,$1+$1,$8,$9,$2,$3,0*%
G04 Aperture macros list end*
%ADD10RoundRect,0.140000X-0.140000X-0.170000X0.140000X-0.170000X0.140000X0.170000X-0.140000X0.170000X0*%
%ADD11R,0.180000X0.615000*%
%ADD12R,0.520000X0.400000*%
%ADD13RoundRect,0.162500X-0.650000X-0.162500X0.650000X-0.162500X0.650000X0.162500X-0.650000X0.162500X0*%
%ADD14RoundRect,0.150000X-0.512500X-0.150000X0.512500X-0.150000X0.512500X0.150000X-0.512500X0.150000X0*%
%ADD15RoundRect,0.249999X-0.395001X-0.395001X0.395001X-0.395001X0.395001X0.395001X-0.395001X0.395001X0*%
%ADD16RoundRect,0.050000X-0.387500X-0.050000X0.387500X-0.050000X0.387500X0.050000X-0.387500X0.050000X0*%
%ADD17RoundRect,0.050000X-0.050000X-0.387500X0.050000X-0.387500X0.050000X0.387500X-0.050000X0.387500X0*%
%ADD18RoundRect,0.135000X-0.135000X-0.185000X0.135000X-0.185000X0.135000X0.185000X-0.135000X0.185000X0*%
%ADD19RoundRect,0.150000X-0.150000X-0.425000X0.150000X-0.425000X0.150000X0.425000X-0.150000X0.425000X0*%
%ADD20RoundRect,0.075000X-0.075000X-0.500000X0.075000X-0.500000X0.075000X0.500000X-0.075000X0.500000X0*%
%ADD21O,1.000000X2.100000*%
%ADD22O,1.000000X1.800000*%
%ADD23RoundRect,0.250000X-0.450000X-0.350000X0.450000X-0.350000X0.450000X0.350000X-0.450000X0.350000X0*%
G04 APERTURE END LIST*
D10*
%TO.C,C4*%
X253617500Y-63910000D03*
X254577500Y-63910000D03*
%TD*%
%TO.C,C8*%
X256487500Y-61940000D03*
X257447500Y-61940000D03*
%TD*%
%TO.C,C2*%
X256347500Y-65970000D03*
X257307500Y-65970000D03*
%TD*%
D11*
%TO.C,J2*%
X259600000Y-22085000D03*
X259600000Y-20900000D03*
X259950000Y-22085000D03*
X259950000Y-20900000D03*
X260300000Y-22085000D03*
X260300000Y-20900000D03*
X260650000Y-22085000D03*
X260650000Y-20900000D03*
X261000000Y-22085000D03*
X261000000Y-20900000D03*
X261350000Y-22085000D03*
X261350000Y-20900000D03*
X261700000Y-22085000D03*
X261700000Y-20900000D03*
X262050000Y-22085000D03*
X262050000Y-20900000D03*
X262400000Y-22085000D03*
X262400000Y-20900000D03*
X262750000Y-22085000D03*
X262750000Y-20900000D03*
X263100000Y-22085000D03*
X263100000Y-20900000D03*
X263450000Y-22085000D03*
X263450000Y-20900000D03*
D12*
X259010000Y-21168000D03*
X264040000Y-21168000D03*
X264040000Y-21818000D03*
X259010000Y-21818000D03*
%TD*%
D13*
%TO.C,U4*%
X254250000Y-42440000D03*
X254250000Y-43710000D03*
X254250000Y-44980000D03*
X254250000Y-46250000D03*
X261425000Y-46250000D03*
X261425000Y-44980000D03*
X261425000Y-43710000D03*
X261425000Y-42440000D03*
%TD*%
D14*
%TO.C,U2*%
X259840000Y-58465000D03*
X259840000Y-59415000D03*
X259840000Y-60365000D03*
X262115000Y-60365000D03*
X262115000Y-58465000D03*
%TD*%
D10*
%TO.C,C10*%
X248770000Y-62000000D03*
X249730000Y-62000000D03*
%TD*%
D15*
%TO.C,U1*%
X257200000Y-33200000D03*
X257200000Y-34800000D03*
X258800000Y-33200000D03*
X258800000Y-34800000D03*
D16*
X254562500Y-31400000D03*
X254562500Y-31800000D03*
X254562500Y-32200000D03*
X254562500Y-32600000D03*
X254562500Y-33000000D03*
X254562500Y-33400000D03*
X254562500Y-33800000D03*
X254562500Y-34200000D03*
X254562500Y-34600000D03*
X254562500Y-35000000D03*
X254562500Y-35400000D03*
X254562500Y-35800000D03*
X254562500Y-36200000D03*
X254562500Y-36600000D03*
D17*
X255400000Y-37437500D03*
X255800000Y-37437500D03*
X256200000Y-37437500D03*
X256600000Y-37437500D03*
X257000000Y-37437500D03*
X257400000Y-37437500D03*
X257800000Y-37437500D03*
X258200000Y-37437500D03*
X258600000Y-37437500D03*
X259000000Y-37437500D03*
X259400000Y-37437500D03*
X259800000Y-37437500D03*
X260200000Y-37437500D03*
X260600000Y-37437500D03*
D16*
X261437500Y-36600000D03*
X261437500Y-36200000D03*
X261437500Y-35800000D03*
X261437500Y-35400000D03*
X261437500Y-35000000D03*
X261437500Y-34600000D03*
X261437500Y-34200000D03*
X261437500Y-33800000D03*
X261437500Y-33400000D03*
X261437500Y-33000000D03*
X261437500Y-32600000D03*
X261437500Y-32200000D03*
X261437500Y-31800000D03*
X261437500Y-31400000D03*
D17*
X260600000Y-30562500D03*
X260200000Y-30562500D03*
X259800000Y-30562500D03*
X259400000Y-30562500D03*
X259000000Y-30562500D03*
X258600000Y-30562500D03*
X258200000Y-30562500D03*
X257800000Y-30562500D03*
X257400000Y-30562500D03*
X257000000Y-30562500D03*
X256600000Y-30562500D03*
X256200000Y-30562500D03*
X255800000Y-30562500D03*
X255400000Y-30562500D03*
%TD*%
D18*
%TO.C,R1*%
X250480000Y-44260000D03*
X251500000Y-44260000D03*
%TD*%
D10*
%TO.C,C9*%
X248770000Y-60030000D03*
X249730000Y-60030000D03*
%TD*%
%TO.C,C6*%
X256487500Y-58000000D03*
X257447500Y-58000000D03*
%TD*%
%TO.C,C7*%
X256487500Y-59970000D03*
X257447500Y-59970000D03*
%TD*%
%TO.C,C5*%
X253617500Y-65880000D03*
X254577500Y-65880000D03*
%TD*%
D18*
%TO.C,R2*%
X250480000Y-46250000D03*
X251500000Y-46250000D03*
%TD*%
D10*
%TO.C,C3*%
X253617500Y-61940000D03*
X254577500Y-61940000D03*
%TD*%
D14*
%TO.C,U3*%
X259840000Y-63090000D03*
X259840000Y-64040000D03*
X259840000Y-64990000D03*
X262115000Y-64990000D03*
X262115000Y-63090000D03*
%TD*%
D19*
%TO.C,J3*%
X254800000Y-48750000D03*
X255600000Y-48750000D03*
D20*
X256750000Y-48750000D03*
X257750000Y-48750000D03*
X258250000Y-48750000D03*
X259250000Y-48750000D03*
D19*
X260400000Y-48750000D03*
X261200000Y-48750000D03*
X261200000Y-48750000D03*
X260400000Y-48750000D03*
D20*
X259750000Y-48750000D03*
X258750000Y-48750000D03*
X257250000Y-48750000D03*
X256250000Y-48750000D03*
D19*
X255600000Y-48750000D03*
X254800000Y-48750000D03*
D21*
X253680000Y-49325000D03*
D22*
X253680000Y-53505000D03*
D21*
X262320000Y-49325000D03*
D22*
X262320000Y-53505000D03*
%TD*%
D11*
%TO.C,J1*%
X251075000Y-22092000D03*
X251075000Y-20907000D03*
X251425000Y-22092000D03*
X251425000Y-20907000D03*
X251775000Y-22092000D03*
X251775000Y-20907000D03*
X252125000Y-22092000D03*
X252125000Y-20907000D03*
X252475000Y-22092000D03*
X252475000Y-20907000D03*
X252825000Y-22092000D03*
X252825000Y-20907000D03*
X253175000Y-22092000D03*
X253175000Y-20907000D03*
X253525000Y-22092000D03*
X253525000Y-20907000D03*
X253875000Y-22092000D03*
X253875000Y-20907000D03*
X254225000Y-22092000D03*
X254225000Y-20907000D03*
X254575000Y-22092000D03*
X254575000Y-20907000D03*
X254925000Y-22092000D03*
X254925000Y-20907000D03*
D12*
X250485000Y-21175000D03*
X255515000Y-21175000D03*
X255515000Y-21825000D03*
X250485000Y-21825000D03*
%TD*%
D23*
%TO.C,Y1*%
X248050000Y-57500000D03*
X250250000Y-57500000D03*
X250250000Y-55800000D03*
X248050000Y-55800000D03*
%TD*%
D10*
%TO.C,C1*%
X256270000Y-64250000D03*
X257230000Y-64250000D03*
%TD*%
M02*
