%TF.GenerationSoftware,KiCad,Pcbnew,9.0.7*%
%TF.CreationDate,2026-03-07T10:59:10+01:00*%
%TF.ProjectId,CROSSFIRE PCB SLAVE,43524f53-5346-4495-9245-205043422053,rev?*%
%TF.SameCoordinates,Original*%
%TF.FileFunction,Copper,L1,Top*%
%TF.FilePolarity,Positive*%
%FSLAX46Y46*%
G04 Gerber Fmt 4.6, Leading zero omitted, Abs format (unit mm)*
G04 Created by KiCad (PCBNEW 9.0.7) date 2026-03-07 10:59:10*
%MOMM*%
%LPD*%
G01*
G04 APERTURE LIST*
G04 Aperture macros list*
%AMRoundRect*
0 Rectangle with rounded corners*
0 $1 Rounding radius*
0 $2 $3 $4 $5 $6 $7 $8 $9 X,Y pos of 4 corners*
0 Add a 4 corners polygon primitive as box body*
4,1,4,$2,$3,$4,$5,$6,$7,$8,$9,$2,$3,0*
0 Add four circle primitives for the rounded corners*
1,1,$1+$1,$2,$3*
1,1,$1+$1,$4,$5*
1,1,$1+$1,$6,$7*
1,1,$1+$1,$8,$9*
0 Add four rect primitives between the rounded corners*
20,1,$1+$1,$2,$3,$4,$5,0*
20,1,$1+$1,$4,$5,$6,$7,0*
20,1,$1+$1,$6,$7,$8,$9,0*
20,1,$1+$1,$8,$9,$2,$3,0*%
G04 Aperture macros list end*
%TA.AperFunction,SMDPad,CuDef*%
%ADD10RoundRect,0.140000X-0.140000X-0.170000X0.140000X-0.170000X0.140000X0.170000X-0.140000X0.170000X0*%
%TD*%
%TA.AperFunction,SMDPad,CuDef*%
%ADD11R,0.180000X0.615000*%
%TD*%
%TA.AperFunction,SMDPad,CuDef*%
%ADD12R,0.520000X0.400000*%
%TD*%
%TA.AperFunction,SMDPad,CuDef*%
%ADD13RoundRect,0.162500X-0.650000X-0.162500X0.650000X-0.162500X0.650000X0.162500X-0.650000X0.162500X0*%
%TD*%
%TA.AperFunction,ComponentPad*%
%ADD14R,1.700000X1.700000*%
%TD*%
%TA.AperFunction,ComponentPad*%
%ADD15C,1.700000*%
%TD*%
%TA.AperFunction,SMDPad,CuDef*%
%ADD16RoundRect,0.050000X-0.387500X-0.050000X0.387500X-0.050000X0.387500X0.050000X-0.387500X0.050000X0*%
%TD*%
%TA.AperFunction,SMDPad,CuDef*%
%ADD17RoundRect,0.050000X-0.050000X-0.387500X0.050000X-0.387500X0.050000X0.387500X-0.050000X0.387500X0*%
%TD*%
%TA.AperFunction,HeatsinkPad*%
%ADD18R,3.200000X3.200000*%
%TD*%
%TA.AperFunction,SMDPad,CuDef*%
%ADD19RoundRect,0.250000X-0.450000X-0.350000X0.450000X-0.350000X0.450000X0.350000X-0.450000X0.350000X0*%
%TD*%
%TA.AperFunction,ViaPad*%
%ADD20C,0.600000*%
%TD*%
%TA.AperFunction,Conductor*%
%ADD21C,0.500000*%
%TD*%
%TA.AperFunction,Conductor*%
%ADD22C,0.100000*%
%TD*%
%TA.AperFunction,Conductor*%
%ADD23C,0.150000*%
%TD*%
%TA.AperFunction,Conductor*%
%ADD24C,0.200000*%
%TD*%
G04 APERTURE END LIST*
D10*
%TO.P,C4,1*%
%TO.N,GND*%
X256855000Y-55160000D03*
%TO.P,C4,2*%
%TO.N,+3.3V*%
X257815000Y-55160000D03*
%TD*%
%TO.P,C8,1*%
%TO.N,GND*%
X259725000Y-53190000D03*
%TO.P,C8,2*%
%TO.N,+3.3V*%
X260685000Y-53190000D03*
%TD*%
D11*
%TO.P,J2,1,Pin_1*%
%TO.N,/TE_BOT*%
X259600000Y-22085000D03*
%TO.P,J2,2,Pin_2*%
%TO.N,+3.3V*%
X259600000Y-20900000D03*
%TO.P,J2,3,Pin_3*%
%TO.N,/RST*%
X259950000Y-22085000D03*
%TO.P,J2,4,Pin_4*%
%TO.N,/MOSI*%
X259950000Y-20900000D03*
%TO.P,J2,5,Pin_5*%
%TO.N,/DCX_BOT*%
X260300000Y-22085000D03*
%TO.P,J2,6,Pin_6*%
%TO.N,/SCL*%
X260300000Y-20900000D03*
%TO.P,J2,7,Pin_7*%
%TO.N,/CS_BOT*%
X260650000Y-22085000D03*
%TO.P,J2,8,Pin_8*%
%TO.N,GND*%
X260650000Y-20900000D03*
%TO.P,J2,9,Pin_9*%
X261000000Y-22085000D03*
%TO.P,J2,10,Pin_10*%
%TO.N,unconnected-(J2-Pin_10-Pad10)*%
X261000000Y-20900000D03*
%TO.P,J2,11,Pin_11*%
%TO.N,unconnected-(J2-Pin_11-Pad11)*%
X261350000Y-22085000D03*
%TO.P,J2,12,Pin_12*%
%TO.N,unconnected-(J2-Pin_12-Pad12)*%
X261350000Y-20900000D03*
%TO.P,J2,13,Pin_13*%
%TO.N,unconnected-(J2-Pin_13-Pad13)*%
X261700000Y-22085000D03*
%TO.P,J2,14,Pin_14*%
%TO.N,GND*%
X261700000Y-20900000D03*
%TO.P,J2,15,Pin_15*%
X262050000Y-22085000D03*
%TO.P,J2,16,Pin_16*%
%TO.N,+1V8*%
X262050000Y-20900000D03*
%TO.P,J2,17,Pin_17*%
%TO.N,+3.3V*%
X262400000Y-22085000D03*
%TO.P,J2,18,Pin_18*%
%TO.N,GND*%
X262400000Y-20900000D03*
%TO.P,J2,19,Pin_19*%
%TO.N,unconnected-(J2-Pin_19-Pad19)*%
X262750000Y-22085000D03*
%TO.P,J2,20,Pin_20*%
%TO.N,unconnected-(J2-Pin_20-Pad20)*%
X262750000Y-20900000D03*
%TO.P,J2,21,Pin_21*%
%TO.N,unconnected-(J2-Pin_21-Pad21)*%
X263100000Y-22085000D03*
%TO.P,J2,22,Pin_22*%
%TO.N,unconnected-(J2-Pin_22-Pad22)*%
X263100000Y-20900000D03*
%TO.P,J2,23,Pin_23*%
%TO.N,GND*%
X263450000Y-22085000D03*
%TO.P,J2,24,Pin_24*%
X263450000Y-20900000D03*
D12*
%TO.P,J2,MP1*%
%TO.N,N/C*%
X259010000Y-21168000D03*
%TO.P,J2,MP2*%
X264040000Y-21168000D03*
%TO.P,J2,MP3*%
X264040000Y-21818000D03*
%TO.P,J2,MP4*%
X259010000Y-21818000D03*
%TD*%
D13*
%TO.P,U4,1,~{CS}*%
%TO.N,/FLASH_CS*%
X254250000Y-42440000D03*
%TO.P,U4,2,DO/IO_{1}*%
%TO.N,/FLASH_MISO*%
X254250000Y-43710000D03*
%TO.P,U4,3,~{WP}/IO_{2}*%
%TO.N,+3.3V*%
X254250000Y-44980000D03*
%TO.P,U4,4,GND*%
%TO.N,GND*%
X254250000Y-46250000D03*
%TO.P,U4,5,DI/IO_{0}*%
%TO.N,/FLASH_MOSI*%
X261425000Y-46250000D03*
%TO.P,U4,6,CLK*%
%TO.N,/FLASH_CLK*%
X261425000Y-44980000D03*
%TO.P,U4,7,~{HOLD}/~{RESET}/IO_{3}*%
%TO.N,+3.3V*%
X261425000Y-43710000D03*
%TO.P,U4,8,VCC*%
X261425000Y-42440000D03*
%TD*%
D14*
%TO.P,J4,1,Pin_1*%
%TO.N,GND*%
X246500000Y-29010000D03*
D15*
%TO.P,J4,2,Pin_2*%
X246500000Y-31550000D03*
%TO.P,J4,3,Pin_3*%
%TO.N,+3.3V*%
X246500000Y-34090000D03*
%TO.P,J4,4,Pin_4*%
X246500000Y-36630000D03*
%TO.P,J4,5,Pin_5*%
%TO.N,/SCL*%
X246500000Y-39170000D03*
%TO.P,J4,6,Pin_6*%
%TO.N,/MOSI*%
X246500000Y-41710000D03*
%TO.P,J4,7,Pin_7*%
%TO.N,/UART_TX*%
X246500000Y-44250000D03*
%TO.P,J4,8,Pin_8*%
%TO.N,/UART_RX*%
X246500000Y-46790000D03*
%TO.P,J4,9,Pin_9*%
%TO.N,/RST*%
X246500000Y-49330000D03*
%TO.P,J4,10,Pin_10*%
%TO.N,/VSYNC*%
X246500000Y-51870000D03*
%TD*%
D10*
%TO.P,C10,1*%
%TO.N,Net-(U1-XIN)*%
X253480000Y-57560000D03*
%TO.P,C10,2*%
%TO.N,GND*%
X254440000Y-57560000D03*
%TD*%
D16*
%TO.P,U1,1,IOVDD*%
%TO.N,+3.3V*%
X254562500Y-31400000D03*
%TO.P,U1,2,GPIO0*%
%TO.N,/UART_TX*%
X254562500Y-31800000D03*
%TO.P,U1,3,GPIO1*%
%TO.N,/UART_RX*%
X254562500Y-32200000D03*
%TO.P,U1,4,GPIO2*%
%TO.N,/SCL*%
X254562500Y-32600000D03*
%TO.P,U1,5,GPIO3*%
%TO.N,/MOSI*%
X254562500Y-33000000D03*
%TO.P,U1,6,GPIO4*%
%TO.N,unconnected-(U1-GPIO4-Pad6)*%
X254562500Y-33400000D03*
%TO.P,U1,7,GPIO5*%
%TO.N,/CS_TOP*%
X254562500Y-33800000D03*
%TO.P,U1,8,GPIO6*%
%TO.N,/CS_BOT*%
X254562500Y-34200000D03*
%TO.P,U1,9,GPIO7*%
%TO.N,/DCX_TOP*%
X254562500Y-34600000D03*
%TO.P,U1,10,IOVDD*%
%TO.N,+3.3V*%
X254562500Y-35000000D03*
%TO.P,U1,11,GPIO8*%
%TO.N,/DCX_BOT*%
X254562500Y-35400000D03*
%TO.P,U1,12,GPIO9*%
%TO.N,/RST*%
X254562500Y-35800000D03*
%TO.P,U1,13,GPIO10*%
%TO.N,/TE_TOP*%
X254562500Y-36200000D03*
%TO.P,U1,14,GPIO11*%
%TO.N,/TE_BOT*%
X254562500Y-36600000D03*
D17*
%TO.P,U1,15,GPIO12*%
%TO.N,/VSYNC*%
X255400000Y-37437500D03*
%TO.P,U1,16,GPIO13*%
%TO.N,unconnected-(U1-GPIO13-Pad16)*%
X255800000Y-37437500D03*
%TO.P,U1,17,GPIO14*%
%TO.N,unconnected-(U1-GPIO14-Pad17)*%
X256200000Y-37437500D03*
%TO.P,U1,18,GPIO15*%
%TO.N,unconnected-(U1-GPIO15-Pad18)*%
X256600000Y-37437500D03*
%TO.P,U1,19,TESTEN*%
%TO.N,GND*%
X257000000Y-37437500D03*
%TO.P,U1,20,XIN*%
%TO.N,Net-(U1-XIN)*%
X257400000Y-37437500D03*
%TO.P,U1,21,XOUT*%
%TO.N,Net-(U1-XOUT)*%
X257800000Y-37437500D03*
%TO.P,U1,22,IOVDD*%
%TO.N,+3.3V*%
X258200000Y-37437500D03*
%TO.P,U1,23,DVDD*%
X258600000Y-37437500D03*
%TO.P,U1,24,SWCLK*%
%TO.N,unconnected-(U1-SWCLK-Pad24)*%
X259000000Y-37437500D03*
%TO.P,U1,25,SWDIO*%
%TO.N,unconnected-(U1-SWDIO-Pad25)*%
X259400000Y-37437500D03*
%TO.P,U1,26,RUN*%
%TO.N,+3.3V*%
X259800000Y-37437500D03*
%TO.P,U1,27,GPIO16*%
%TO.N,unconnected-(U1-GPIO16-Pad27)*%
X260200000Y-37437500D03*
%TO.P,U1,28,GPIO17*%
%TO.N,/FLASH_CS*%
X260600000Y-37437500D03*
D16*
%TO.P,U1,29,GPIO18*%
%TO.N,/FLASH_CLK*%
X261437500Y-36600000D03*
%TO.P,U1,30,GPIO19*%
%TO.N,/FLASH_MOSI*%
X261437500Y-36200000D03*
%TO.P,U1,31,GPIO20*%
%TO.N,/FLASH_MISO*%
X261437500Y-35800000D03*
%TO.P,U1,32,GPIO21*%
%TO.N,unconnected-(U1-GPIO21-Pad32)*%
X261437500Y-35400000D03*
%TO.P,U1,33,IOVDD*%
%TO.N,+3.3V*%
X261437500Y-35000000D03*
%TO.P,U1,34,GPIO22*%
%TO.N,unconnected-(U1-GPIO22-Pad34)*%
X261437500Y-34600000D03*
%TO.P,U1,35,GPIO23*%
%TO.N,unconnected-(U1-GPIO23-Pad35)*%
X261437500Y-34200000D03*
%TO.P,U1,36,GPIO24*%
%TO.N,unconnected-(U1-GPIO24-Pad36)*%
X261437500Y-33800000D03*
%TO.P,U1,37,GPIO25*%
%TO.N,unconnected-(U1-GPIO25-Pad37)*%
X261437500Y-33400000D03*
%TO.P,U1,38,GPIO26/ADC0*%
%TO.N,unconnected-(U1-GPIO26{slash}ADC0-Pad38)*%
X261437500Y-33000000D03*
%TO.P,U1,39,GPIO27/ADC1*%
%TO.N,unconnected-(U1-GPIO27{slash}ADC1-Pad39)*%
X261437500Y-32600000D03*
%TO.P,U1,40,GPIO28/ADC2*%
%TO.N,unconnected-(U1-GPIO28{slash}ADC2-Pad40)*%
X261437500Y-32200000D03*
%TO.P,U1,41,GPIO29/ADC3*%
%TO.N,unconnected-(U1-GPIO29{slash}ADC3-Pad41)*%
X261437500Y-31800000D03*
%TO.P,U1,42,IOVDD*%
%TO.N,+3.3V*%
X261437500Y-31400000D03*
D17*
%TO.P,U1,43,ADC_AVDD*%
X260600000Y-30562500D03*
%TO.P,U1,44,VREG_VIN*%
X260200000Y-30562500D03*
%TO.P,U1,45,VREG_VOUT*%
%TO.N,unconnected-(U1-VREG_VOUT-Pad45)*%
X259800000Y-30562500D03*
%TO.P,U1,46,USB_DM*%
%TO.N,/USB_DM*%
X259400000Y-30562500D03*
%TO.P,U1,47,USB_DP*%
%TO.N,/USB_DP*%
X259000000Y-30562500D03*
%TO.P,U1,48,USB_VDD*%
%TO.N,+3.3V*%
X258600000Y-30562500D03*
%TO.P,U1,49,IOVDD*%
X258200000Y-30562500D03*
%TO.P,U1,50,DVDD*%
X257800000Y-30562500D03*
%TO.P,U1,51,QSPI_SD3*%
%TO.N,unconnected-(U1-QSPI_SD3-Pad51)*%
X257400000Y-30562500D03*
%TO.P,U1,52,QSPI_SCLK*%
%TO.N,/FLASH_CLK*%
X257000000Y-30562500D03*
%TO.P,U1,53,QSPI_SD0*%
%TO.N,/FLASH_MOSI*%
X256600000Y-30562500D03*
%TO.P,U1,54,QSPI_SD2*%
%TO.N,unconnected-(U1-QSPI_SD2-Pad54)*%
X256200000Y-30562500D03*
%TO.P,U1,55,QSPI_SD1*%
%TO.N,/FLASH_MISO*%
X255800000Y-30562500D03*
%TO.P,U1,56,~{QSPI_SS}*%
%TO.N,/FLASH_CS*%
X255400000Y-30562500D03*
D18*
%TO.P,U1,57,GND*%
%TO.N,GND*%
X258000000Y-34000000D03*
%TD*%
D10*
%TO.P,C9,1*%
%TO.N,Net-(U1-XOUT)*%
X253480000Y-55590000D03*
%TO.P,C9,2*%
%TO.N,GND*%
X254440000Y-55590000D03*
%TD*%
%TO.P,C6,1*%
%TO.N,GND*%
X259725000Y-49250000D03*
%TO.P,C6,2*%
%TO.N,+3.3V*%
X260685000Y-49250000D03*
%TD*%
%TO.P,C7,1*%
%TO.N,GND*%
X259725000Y-51220000D03*
%TO.P,C7,2*%
%TO.N,+3.3V*%
X260685000Y-51220000D03*
%TD*%
%TO.P,C5,1*%
%TO.N,GND*%
X256855000Y-57130000D03*
%TO.P,C5,2*%
%TO.N,+3.3V*%
X257815000Y-57130000D03*
%TD*%
%TO.P,C3,1*%
%TO.N,GND*%
X256855000Y-53190000D03*
%TO.P,C3,2*%
%TO.N,+3.3V*%
X257815000Y-53190000D03*
%TD*%
D11*
%TO.P,J1,1,Pin_1*%
%TO.N,/TE_TOP*%
X251075000Y-22092000D03*
%TO.P,J1,2,Pin_2*%
%TO.N,+3.3V*%
X251075000Y-20907000D03*
%TO.P,J1,3,Pin_3*%
%TO.N,/RST*%
X251425000Y-22092000D03*
%TO.P,J1,4,Pin_4*%
%TO.N,/MOSI*%
X251425000Y-20907000D03*
%TO.P,J1,5,Pin_5*%
%TO.N,/DCX_TOP*%
X251775000Y-22092000D03*
%TO.P,J1,6,Pin_6*%
%TO.N,/SCL*%
X251775000Y-20907000D03*
%TO.P,J1,7,Pin_7*%
%TO.N,/CS_TOP*%
X252125000Y-22092000D03*
%TO.P,J1,8,Pin_8*%
%TO.N,GND*%
X252125000Y-20907000D03*
%TO.P,J1,9,Pin_9*%
X252475000Y-22092000D03*
%TO.P,J1,10,Pin_10*%
%TO.N,unconnected-(J1-Pin_10-Pad10)*%
X252475000Y-20907000D03*
%TO.P,J1,11,Pin_11*%
%TO.N,unconnected-(J1-Pin_11-Pad11)*%
X252825000Y-22092000D03*
%TO.P,J1,12,Pin_12*%
%TO.N,unconnected-(J1-Pin_12-Pad12)*%
X252825000Y-20907000D03*
%TO.P,J1,13,Pin_13*%
%TO.N,unconnected-(J1-Pin_13-Pad13)*%
X253175000Y-22092000D03*
%TO.P,J1,14,Pin_14*%
%TO.N,GND*%
X253175000Y-20907000D03*
%TO.P,J1,15,Pin_15*%
X253525000Y-22092000D03*
%TO.P,J1,16,Pin_16*%
%TO.N,+1V8*%
X253525000Y-20907000D03*
%TO.P,J1,17,Pin_17*%
%TO.N,+3.3V*%
X253875000Y-22092000D03*
%TO.P,J1,18,Pin_18*%
%TO.N,GND*%
X253875000Y-20907000D03*
%TO.P,J1,19,Pin_19*%
%TO.N,unconnected-(J1-Pin_19-Pad19)*%
X254225000Y-22092000D03*
%TO.P,J1,20,Pin_20*%
%TO.N,unconnected-(J1-Pin_20-Pad20)*%
X254225000Y-20907000D03*
%TO.P,J1,21,Pin_21*%
%TO.N,unconnected-(J1-Pin_21-Pad21)*%
X254575000Y-22092000D03*
%TO.P,J1,22,Pin_22*%
%TO.N,unconnected-(J1-Pin_22-Pad22)*%
X254575000Y-20907000D03*
%TO.P,J1,23,Pin_23*%
%TO.N,GND*%
X254925000Y-22092000D03*
%TO.P,J1,24,Pin_24*%
X254925000Y-20907000D03*
D12*
%TO.P,J1,MP1*%
%TO.N,N/C*%
X250485000Y-21175000D03*
%TO.P,J1,MP2*%
X255515000Y-21175000D03*
%TO.P,J1,MP3*%
X255515000Y-21825000D03*
%TO.P,J1,MP4*%
X250485000Y-21825000D03*
%TD*%
D19*
%TO.P,Y1,1,1*%
%TO.N,Net-(U1-XIN)*%
X252800000Y-53000000D03*
%TO.P,Y1,2,2*%
%TO.N,Net-(U1-XOUT)*%
X255000000Y-53000000D03*
%TO.P,Y1,3*%
%TO.N,N/C*%
X255000000Y-51300000D03*
%TO.P,Y1,4*%
X252800000Y-51300000D03*
%TD*%
D20*
%TO.N,GND*%
X249000000Y-41750000D03*
X258415540Y-22710311D03*
X249000000Y-45000000D03*
X259750000Y-41000000D03*
X248987925Y-39705124D03*
X261500000Y-20000000D03*
X248950000Y-36500000D03*
X254033687Y-46652813D03*
X255500000Y-45500000D03*
X253262091Y-24262091D03*
X256250000Y-42250000D03*
X252957923Y-26291557D03*
X251500000Y-47000000D03*
X261100000Y-41207952D03*
X248500000Y-31250000D03*
X244849000Y-26250000D03*
X263799265Y-34200735D03*
X258000000Y-34000000D03*
%TO.N,+3.3V*%
X254076871Y-27150000D03*
X263200000Y-38250000D03*
X256500000Y-29250000D03*
X262750000Y-51250000D03*
X262790861Y-34889391D03*
X258400000Y-29075000D03*
X262750000Y-23000000D03*
X259400000Y-20325000D03*
X250799806Y-20478012D03*
X253674252Y-23424252D03*
X261250000Y-29850000D03*
X253284287Y-45342976D03*
X255723000Y-31500000D03*
X261150000Y-42440000D03*
X255899998Y-35226953D03*
X260250000Y-28000000D03*
X258000000Y-36250000D03*
%TO.N,Net-(U1-XOUT)*%
X255000000Y-53000000D03*
X256250000Y-41000000D03*
%TO.N,Net-(U1-XIN)*%
X257048231Y-40946785D03*
X250956734Y-51645810D03*
%TO.N,/TE_TOP*%
X252750000Y-36250000D03*
X250250000Y-23000000D03*
%TO.N,/RST*%
X247750000Y-24250000D03*
X259857772Y-24465544D03*
X256420783Y-36515085D03*
X251325000Y-24764296D03*
%TO.N,/SCL*%
X258574176Y-25488998D03*
X256500000Y-20250000D03*
X260573074Y-18952970D03*
X257825000Y-23250000D03*
X249298000Y-37500315D03*
X255900000Y-33408054D03*
%TO.N,/DCX_TOP*%
X252923011Y-33735504D03*
X251900000Y-25406616D03*
%TO.N,+1V8*%
X248950000Y-25250000D03*
X247361091Y-22361091D03*
%TO.N,/CS_TOP*%
X252600000Y-31350000D03*
X252476000Y-24778689D03*
%TO.N,/MOSI*%
X255497936Y-34099681D03*
X257925001Y-26138172D03*
%TO.N,/CS_BOT*%
X252599999Y-33003611D03*
X260607772Y-25965544D03*
%TO.N,/DCX_BOT*%
X260250000Y-25250000D03*
X253666240Y-35538479D03*
%TO.N,/TE_BOT*%
X255500000Y-36500000D03*
X259500000Y-23750000D03*
%TO.N,/VSYNC*%
X254850000Y-40250000D03*
X249000000Y-51750000D03*
%TO.N,/UART_RX*%
X251600000Y-41500000D03*
X252527000Y-30150000D03*
X248750000Y-46750000D03*
X253223001Y-32000000D03*
%TO.N,/UART_TX*%
X256154781Y-28404781D03*
X255899998Y-32500000D03*
X252600501Y-27007272D03*
X252527000Y-28650000D03*
%TO.N,/FLASH_MISO*%
X262354771Y-35600001D03*
X262450000Y-39000000D03*
X258969669Y-43280331D03*
X257260298Y-43000000D03*
%TO.N,/FLASH_CLK*%
X263249000Y-45000000D03*
X260477639Y-31495432D03*
X262250000Y-37500000D03*
%TO.N,/FLASH_CS*%
X260449000Y-38750000D03*
X259000000Y-40250000D03*
X259250000Y-38750000D03*
X256747017Y-39491051D03*
%TD*%
D21*
%TO.N,GND*%
X251000000Y-47000000D02*
X249000000Y-45000000D01*
X251500000Y-47000000D02*
X251000000Y-47000000D01*
X258255149Y-42494851D02*
X258010298Y-42250000D01*
D22*
X262593895Y-28347506D02*
X263799265Y-29552876D01*
X262238750Y-21488750D02*
X262208500Y-21458500D01*
X261100000Y-41207952D02*
X259958952Y-41207952D01*
X261709000Y-21440500D02*
X261700000Y-21449500D01*
X253175000Y-21314500D02*
X253525000Y-21664500D01*
X261709000Y-21458500D02*
X261709000Y-21440500D01*
X262059000Y-22643500D02*
X262050000Y-22634500D01*
D21*
X252749000Y-57820364D02*
X252749000Y-57978682D01*
X259725000Y-49487500D02*
X259737500Y-49500000D01*
D22*
X253184000Y-20898000D02*
X253175000Y-20907000D01*
X263450000Y-23800000D02*
X263000000Y-24250000D01*
D21*
X259725000Y-49250000D02*
X259725000Y-49487500D01*
D22*
X262208500Y-21458500D02*
X261709000Y-21458500D01*
X254925000Y-22092000D02*
X254925000Y-22641500D01*
X254925000Y-20907000D02*
X254925000Y-22092000D01*
X263000000Y-24250000D02*
X262250000Y-24250000D01*
X253516000Y-22650500D02*
X252966500Y-22650500D01*
D21*
X259750000Y-41000000D02*
X258255149Y-42494851D01*
X245000000Y-53500000D02*
X251501708Y-53500000D01*
X254440000Y-55590000D02*
X255315000Y-55590000D01*
D22*
X252957923Y-26291557D02*
X252948480Y-26301000D01*
X261691000Y-20909000D02*
X261691000Y-21458500D01*
X261700000Y-20350500D02*
X261700000Y-20900000D01*
D21*
X252048000Y-57119364D02*
X252749000Y-57820364D01*
D22*
X261691000Y-21458500D02*
X261141500Y-21458500D01*
X253184000Y-20348500D02*
X253184000Y-20898000D01*
X257000000Y-35000000D02*
X258000000Y-34000000D01*
X252125000Y-20907000D02*
X252125000Y-20357500D01*
X251206222Y-26301000D02*
X248500000Y-29007222D01*
X262210502Y-28347506D02*
X262593895Y-28347506D01*
D21*
X252000000Y-53998292D02*
X252000000Y-55120000D01*
X259725000Y-49512500D02*
X259725000Y-51220000D01*
D22*
X263450000Y-22085000D02*
X263450000Y-23800000D01*
D21*
X258515001Y-51220000D02*
X256855000Y-52880001D01*
D22*
X261009000Y-21526500D02*
X261000000Y-21535500D01*
D21*
X244849000Y-26250000D02*
X244898000Y-26299000D01*
D22*
X253875000Y-21314500D02*
X253525000Y-21664500D01*
D21*
X248950000Y-34000000D02*
X248950000Y-36500000D01*
D22*
X257000000Y-37437500D02*
X257000000Y-35000000D01*
X258415540Y-24552544D02*
X262210502Y-28347506D01*
D21*
X254033687Y-46652813D02*
X254033687Y-46466313D01*
D22*
X261700000Y-20900000D02*
X261691000Y-20909000D01*
X253175000Y-20907000D02*
X253175000Y-21314500D01*
X253875000Y-20907000D02*
X253875000Y-21314500D01*
D21*
X259737500Y-49500000D02*
X259725000Y-49512500D01*
D22*
X261000000Y-21535500D02*
X261000000Y-22085000D01*
X254925000Y-22641500D02*
X255079911Y-22796411D01*
D21*
X254500000Y-55650000D02*
X254500000Y-57500000D01*
X245000000Y-40918521D02*
X245000000Y-53500000D01*
X256855000Y-52880001D02*
X256855000Y-53190000D01*
D22*
X259958952Y-41207952D02*
X259751000Y-41000000D01*
X261700000Y-21449500D02*
X261700000Y-20900000D01*
X261141500Y-21458500D02*
X261073500Y-21526500D01*
X263450000Y-22085000D02*
X263450000Y-20900000D01*
X252750000Y-22867000D02*
X252750000Y-23750000D01*
D21*
X246500000Y-31550000D02*
X248950000Y-34000000D01*
D22*
X262050000Y-21677500D02*
X262050000Y-22085000D01*
X253525000Y-22092000D02*
X253516000Y-22101000D01*
X252125000Y-20357500D02*
X252134000Y-20348500D01*
X253525000Y-21664500D02*
X253525000Y-22092000D01*
X261000000Y-21677500D02*
X261000000Y-22085000D01*
X253614231Y-24262091D02*
X253262091Y-24262091D01*
D21*
X256250000Y-42250000D02*
X258010298Y-42250000D01*
X252749000Y-57978682D02*
X253091318Y-58321000D01*
X249000000Y-39717199D02*
X248987925Y-39705124D01*
X254500000Y-57500000D02*
X254440000Y-57560000D01*
D22*
X252948480Y-26301000D02*
X251206222Y-26301000D01*
D21*
X246500000Y-29010000D02*
X246500000Y-31550000D01*
X256855000Y-55160000D02*
X256855000Y-57130000D01*
D22*
X255079911Y-22796411D02*
X253614231Y-24262091D01*
D21*
X254211000Y-57978682D02*
X254211000Y-57331000D01*
X252048000Y-55168000D02*
X252048000Y-57119364D01*
X259725000Y-51220000D02*
X259725000Y-53190000D01*
D22*
X252134000Y-20348500D02*
X253184000Y-20348500D01*
X262250000Y-24250000D02*
X262059000Y-24059000D01*
D21*
X251501708Y-53500000D02*
X252000000Y-53998292D01*
X254440000Y-55590000D02*
X254500000Y-55650000D01*
X254033687Y-46466313D02*
X254250000Y-46250000D01*
D22*
X258415540Y-22710311D02*
X258415540Y-24552544D01*
D21*
X254211000Y-57331000D02*
X254440000Y-57560000D01*
D22*
X262400000Y-20900000D02*
X262400000Y-21327500D01*
X261073500Y-21526500D02*
X261009000Y-21526500D01*
D21*
X259725000Y-51220000D02*
X258515001Y-51220000D01*
D22*
X262050000Y-22634500D02*
X262050000Y-22085000D01*
D21*
X253868682Y-58321000D02*
X254211000Y-57978682D01*
X256855000Y-53190000D02*
X256855000Y-55160000D01*
X254250000Y-46250000D02*
X254750000Y-46250000D01*
X252000000Y-55120000D02*
X252048000Y-55168000D01*
X253091318Y-58321000D02*
X253868682Y-58321000D01*
D22*
X262400000Y-21327500D02*
X262238750Y-21488750D01*
D21*
X254750000Y-46250000D02*
X255500000Y-45500000D01*
X249000000Y-41750000D02*
X249000000Y-39717199D01*
D22*
X248500000Y-29007222D02*
X248500000Y-31250000D01*
D21*
X244898000Y-40816520D02*
X245000000Y-40918521D01*
X255315000Y-55590000D02*
X256855000Y-57130000D01*
D22*
X252966500Y-22650500D02*
X252750000Y-22867000D01*
X253516000Y-22101000D02*
X253516000Y-22650500D01*
X262059000Y-24059000D02*
X262059000Y-22643500D01*
D21*
X248500000Y-31250000D02*
X246800000Y-31250000D01*
D22*
X252475000Y-22092000D02*
X252475000Y-22592000D01*
X260650000Y-20900000D02*
X260650000Y-21327500D01*
X263799265Y-29552876D02*
X263799265Y-34200735D01*
X261500000Y-20150500D02*
X261700000Y-20350500D01*
X252750000Y-23750000D02*
X253262091Y-24262091D01*
D21*
X246800000Y-31250000D02*
X246500000Y-31550000D01*
X244898000Y-26299000D02*
X244898000Y-40816520D01*
D22*
X260650000Y-21327500D02*
X261000000Y-21677500D01*
X252475000Y-22592000D02*
X252750000Y-22867000D01*
X262238750Y-21488750D02*
X262050000Y-21677500D01*
X259751000Y-41000000D02*
X259750000Y-41000000D01*
X261500000Y-20000000D02*
X261500000Y-20150500D01*
%TO.N,+3.3V*%
X261250000Y-29850000D02*
X260600000Y-30500000D01*
X254562500Y-31400000D02*
X255623000Y-31400000D01*
X262790861Y-34889391D02*
X262680252Y-35000000D01*
X261437500Y-31400000D02*
X261250000Y-31212500D01*
D21*
X259336318Y-48489000D02*
X258994000Y-48831318D01*
D22*
X261170768Y-39500000D02*
X259800000Y-39500000D01*
D21*
X255500000Y-50000000D02*
X255000000Y-49500000D01*
X260184999Y-54000000D02*
X260685000Y-53499999D01*
D22*
X261250000Y-29850000D02*
X260400000Y-29850000D01*
X254562500Y-35000000D02*
X255673045Y-35000000D01*
D21*
X260250000Y-57500000D02*
X260250000Y-56250000D01*
X246500000Y-36630000D02*
X246500000Y-34090000D01*
D22*
X259800000Y-36972936D02*
X259576064Y-36749000D01*
D21*
X260685000Y-48447500D02*
X260237500Y-48000000D01*
D22*
X258400000Y-29350000D02*
X258400000Y-29075000D01*
X258600000Y-36972936D02*
X258600000Y-37437500D01*
D21*
X253835378Y-44980000D02*
X254250000Y-44980000D01*
X257815000Y-57130000D02*
X257815000Y-54000000D01*
D22*
X262678232Y-38449000D02*
X262221768Y-38449000D01*
D21*
X257815000Y-57130000D02*
X258130000Y-57130000D01*
X263298000Y-39135925D02*
X263298000Y-40567000D01*
X258130000Y-57130000D02*
X258500000Y-57500000D01*
D22*
X260400000Y-29850000D02*
X260250000Y-30000000D01*
X258200000Y-30562500D02*
X258200000Y-29550000D01*
X261437500Y-35000000D02*
X262000000Y-35000000D01*
X259600000Y-20900000D02*
X259600000Y-20525000D01*
D21*
X260685000Y-53499999D02*
X260685000Y-53190000D01*
D22*
X251075000Y-20753206D02*
X250799806Y-20478012D01*
D21*
X258994000Y-49243500D02*
X258237500Y-50000000D01*
D22*
X256675000Y-29075000D02*
X258400000Y-29075000D01*
D21*
X262750000Y-53750000D02*
X262750000Y-51250000D01*
D22*
X262000000Y-35000000D02*
X262250000Y-34750000D01*
X262250000Y-34750000D02*
X262250000Y-31500000D01*
X258200000Y-29550000D02*
X258250000Y-29500000D01*
D21*
X260685000Y-48447500D02*
X260685000Y-49250000D01*
D22*
X258823936Y-36749000D02*
X258600000Y-36972936D01*
D21*
X255000000Y-47026000D02*
X254722575Y-47026000D01*
X260250000Y-56250000D02*
X262750000Y-53750000D01*
X259748500Y-48489000D02*
X259336318Y-48489000D01*
D22*
X262839616Y-38610384D02*
X262678232Y-38449000D01*
X258250000Y-29500000D02*
X258500000Y-29500000D01*
X258649000Y-30513500D02*
X258600000Y-30562500D01*
X262221768Y-38449000D02*
X261170768Y-39500000D01*
X263200000Y-38250000D02*
X262839616Y-38610384D01*
D21*
X263200000Y-38250000D02*
X263200000Y-39037925D01*
D22*
X258200000Y-37437500D02*
X258600000Y-37437500D01*
D21*
X254722575Y-47026000D02*
X254344762Y-47403813D01*
X254329378Y-45474000D02*
X253835378Y-44980000D01*
D22*
X260600000Y-30500000D02*
X260600000Y-30562500D01*
D21*
X263200000Y-39037925D02*
X263298000Y-39135925D01*
X253722612Y-47403813D02*
X253344799Y-47026000D01*
X261425000Y-43710000D02*
X261425000Y-42440000D01*
D22*
X255673045Y-35000000D02*
X255899998Y-35226953D01*
X258649000Y-29649000D02*
X258649000Y-30513500D01*
X262680252Y-35000000D02*
X262000000Y-35000000D01*
D21*
X252986500Y-45828878D02*
X253341378Y-45474000D01*
D22*
X256500000Y-29250000D02*
X256675000Y-29075000D01*
X253875000Y-22092000D02*
X253875000Y-23223504D01*
X258000000Y-29500000D02*
X258250000Y-29500000D01*
D21*
X258500000Y-57500000D02*
X260250000Y-57500000D01*
D22*
X258200000Y-36450000D02*
X258200000Y-37437500D01*
X262250000Y-31500000D02*
X262150000Y-31400000D01*
X254076871Y-27150000D02*
X259400000Y-27150000D01*
X257800000Y-30562500D02*
X257800000Y-29700000D01*
X262150000Y-31400000D02*
X261437500Y-31400000D01*
D21*
X263298000Y-40567000D02*
X261425000Y-42440000D01*
X252986500Y-46671122D02*
X252986500Y-45828878D01*
D22*
X253875000Y-23223504D02*
X253674252Y-23424252D01*
X262400000Y-22650000D02*
X262750000Y-23000000D01*
X258250000Y-29500000D02*
X258400000Y-29350000D01*
D21*
X257815000Y-54000000D02*
X257815000Y-53190000D01*
D22*
X260250000Y-30000000D02*
X260250000Y-30512500D01*
X259400000Y-27150000D02*
X260250000Y-28000000D01*
D21*
X257815000Y-54000000D02*
X260184999Y-54000000D01*
X258994000Y-48831318D02*
X258994000Y-49243500D01*
D22*
X262400000Y-22085000D02*
X262400000Y-22650000D01*
X259576064Y-36749000D02*
X258823936Y-36749000D01*
X259600000Y-20525000D02*
X259400000Y-20325000D01*
X261250000Y-31212500D02*
X261250000Y-29850000D01*
X251075000Y-20907000D02*
X251075000Y-20753206D01*
X258000000Y-36250000D02*
X258200000Y-36450000D01*
D21*
X253341378Y-47026000D02*
X252986500Y-46671122D01*
X258237500Y-50000000D02*
X255500000Y-50000000D01*
D22*
X255623000Y-31400000D02*
X255723000Y-31500000D01*
X257800000Y-29700000D02*
X258000000Y-29500000D01*
D21*
X254344762Y-47403813D02*
X253722612Y-47403813D01*
X260237500Y-48000000D02*
X259748500Y-48489000D01*
X253341378Y-45474000D02*
X254329378Y-45474000D01*
X260685000Y-49250000D02*
X260685000Y-51220000D01*
D22*
X258500000Y-29500000D02*
X258649000Y-29649000D01*
D21*
X253344799Y-47026000D02*
X253341378Y-47026000D01*
X260685000Y-51220000D02*
X260685000Y-53190000D01*
D22*
X260250000Y-30512500D02*
X260200000Y-30562500D01*
X259800000Y-37437500D02*
X259800000Y-36972936D01*
D21*
X255000000Y-49500000D02*
X255000000Y-47026000D01*
D22*
X259800000Y-39500000D02*
X259800000Y-37437500D01*
%TO.N,Net-(U1-XOUT)*%
X257701000Y-39974678D02*
X257701000Y-38001064D01*
X256750000Y-41500000D02*
X258000000Y-41500000D01*
X257751000Y-37486500D02*
X257800000Y-37437500D01*
D21*
X255000000Y-53000000D02*
X255098292Y-53000000D01*
D22*
X257976322Y-40250000D02*
X257701000Y-39974678D01*
X258000000Y-41500000D02*
X258000000Y-40250000D01*
X256250000Y-41000000D02*
X256750000Y-41500000D01*
X257751000Y-37951064D02*
X257751000Y-37486500D01*
D21*
X254960000Y-53060000D02*
X253480000Y-54540000D01*
D22*
X257701000Y-38001064D02*
X257751000Y-37951064D01*
D21*
X253480000Y-54540000D02*
X253480000Y-55590000D01*
D22*
X258000000Y-40250000D02*
X257976322Y-40250000D01*
%TO.N,Net-(U1-XIN)*%
X257400000Y-39850000D02*
X257400000Y-37437500D01*
X257048231Y-40946785D02*
X257048231Y-40201769D01*
D21*
X252800000Y-53000000D02*
X252789000Y-53011000D01*
X252800000Y-53000000D02*
X252100000Y-53000000D01*
X252800000Y-53000000D02*
X252310924Y-53000000D01*
D22*
X257048231Y-40201769D02*
X257400000Y-39850000D01*
D21*
X252749000Y-56829000D02*
X253480000Y-57560000D01*
X252749000Y-53071000D02*
X252749000Y-56829000D01*
X252310924Y-53000000D02*
X250956734Y-51645810D01*
D23*
%TO.N,/TE_TOP*%
X254562500Y-36200000D02*
X252800000Y-36200000D01*
X250250000Y-23000000D02*
X251059000Y-22191000D01*
X251059000Y-22191000D02*
X251059000Y-22092000D01*
X252800000Y-36200000D02*
X252750000Y-36250000D01*
%TO.N,/RST*%
X251325000Y-24076000D02*
X250826000Y-24076000D01*
X256420783Y-36515085D02*
X256300003Y-36394305D01*
X251350500Y-22750000D02*
X251425000Y-22675500D01*
X250873194Y-22873194D02*
X250996388Y-22750000D01*
X259857772Y-24465544D02*
X260076000Y-24247316D01*
X255852641Y-35800000D02*
X254562500Y-35800000D01*
X256300003Y-36394305D02*
X256300003Y-36247362D01*
D22*
X251425000Y-22675500D02*
X251425000Y-22092000D01*
D23*
X250826000Y-24076000D02*
X250826000Y-22924000D01*
X260076000Y-23326000D02*
X260000000Y-23250000D01*
X256300003Y-36247362D02*
X255852641Y-35800000D01*
X250996388Y-22750000D02*
X251350500Y-22750000D01*
X260076000Y-24247316D02*
X260076000Y-23326000D01*
D22*
X259950000Y-23200000D02*
X259950000Y-22085000D01*
X247750000Y-24250000D02*
X250810704Y-24250000D01*
X250810704Y-24250000D02*
X251325000Y-24764296D01*
X260000000Y-23250000D02*
X259950000Y-23200000D01*
D23*
X251325000Y-24764296D02*
X251325000Y-24076000D01*
%TO.N,/SCL*%
X254674000Y-32576000D02*
X254650000Y-32600000D01*
D22*
X260300000Y-19226044D02*
X260300000Y-20900000D01*
D23*
X255110614Y-32551806D02*
X255086420Y-32576000D01*
D22*
X249249685Y-37500315D02*
X247580000Y-39170000D01*
D23*
X258574176Y-25488998D02*
X257825000Y-24739822D01*
D22*
X247580000Y-39170000D02*
X246500000Y-39170000D01*
X251775000Y-19375000D02*
X251775000Y-20907000D01*
D23*
X256500000Y-20250000D02*
X256500000Y-19351000D01*
X254650000Y-32600000D02*
X254562500Y-32600000D01*
D22*
X260573074Y-18952970D02*
X260300000Y-19226044D01*
D23*
X256500000Y-19351000D02*
X251751000Y-19351000D01*
D22*
X249298000Y-37500315D02*
X249249685Y-37500315D01*
D23*
X255900000Y-33408054D02*
X255627000Y-33135054D01*
X255627000Y-33068192D02*
X255110614Y-32551806D01*
X255086420Y-32576000D02*
X254674000Y-32576000D01*
X255627000Y-33135054D02*
X255627000Y-33068192D01*
D22*
X251751000Y-19351000D02*
X251775000Y-19375000D01*
D23*
X257825000Y-24739822D02*
X257825000Y-23250000D01*
%TO.N,/DCX_TOP*%
X251676000Y-23930611D02*
X251676000Y-24186976D01*
X251901000Y-24525708D02*
X251901000Y-25002884D01*
D22*
X251751000Y-22810534D02*
X251751000Y-22650500D01*
X251485534Y-23076000D02*
X251751000Y-22810534D01*
D23*
X251900000Y-24524708D02*
X251901000Y-24525708D01*
X251470389Y-23725000D02*
X251676000Y-23930611D01*
D22*
X251766000Y-22508378D02*
X251775000Y-22499378D01*
D23*
X251250000Y-23725000D02*
X251470389Y-23725000D01*
X251676000Y-24186976D02*
X251900000Y-24410976D01*
D22*
X251775000Y-22499378D02*
X251775000Y-22092000D01*
D23*
X253787507Y-34600000D02*
X254562500Y-34600000D01*
X251900000Y-25003884D02*
X251900000Y-25406616D01*
D22*
X251766000Y-22650500D02*
X251766000Y-22508378D01*
X251250000Y-23076000D02*
X251485534Y-23076000D01*
D23*
X251250000Y-23250000D02*
X251250000Y-23725000D01*
D22*
X251751000Y-22650500D02*
X251766000Y-22650500D01*
X251250000Y-23250000D02*
X251250000Y-23076000D01*
D23*
X252923011Y-33735504D02*
X253787507Y-34600000D01*
X251901000Y-25002884D02*
X251900000Y-25003884D01*
X251900000Y-24410976D02*
X251900000Y-24524708D01*
D22*
%TO.N,+1V8*%
X256026000Y-20776000D02*
X255000000Y-19750000D01*
X262250000Y-18750000D02*
X261901970Y-18401970D01*
X252302000Y-26000000D02*
X256026000Y-22276000D01*
X249700000Y-26000000D02*
X252302000Y-26000000D01*
X262250000Y-18750000D02*
X262050000Y-18950000D01*
X253500000Y-19750000D02*
X253525000Y-19775000D01*
X256026000Y-22276000D02*
X256026000Y-20776000D01*
X251320212Y-18401970D02*
X247361091Y-22361091D01*
X255000000Y-19750000D02*
X253500000Y-19750000D01*
X261901970Y-18401970D02*
X251320212Y-18401970D01*
X248950000Y-25250000D02*
X249700000Y-26000000D01*
X253525000Y-19775000D02*
X253525000Y-20907000D01*
X262050000Y-18950000D02*
X262050000Y-20900000D01*
D23*
%TO.N,/CS_TOP*%
X253849000Y-33213580D02*
X253862580Y-33200000D01*
X253461589Y-32576000D02*
X252984413Y-32576000D01*
X253537441Y-32551000D02*
X253512015Y-32525574D01*
D22*
X251761284Y-23261284D02*
X252125000Y-22897568D01*
D23*
X251997000Y-23500000D02*
X251750000Y-23500000D01*
X251750000Y-23272568D02*
X251761284Y-23261284D01*
X252251000Y-24379319D02*
X252251000Y-24265587D01*
X252647001Y-31761412D02*
X252704206Y-31704206D01*
X252647001Y-32238588D02*
X252647001Y-31761412D01*
X253849000Y-32849000D02*
X253551000Y-32551000D01*
X253849000Y-33586420D02*
X253849000Y-33213580D01*
X254038580Y-33776000D02*
X253849000Y-33586420D01*
X252984413Y-32576000D02*
X252647001Y-32238588D01*
X254562500Y-33800000D02*
X254562500Y-33776000D01*
X253551000Y-32551000D02*
X253537441Y-32551000D01*
X252704206Y-31704206D02*
X252500000Y-31500000D01*
X252027000Y-23785222D02*
X252000000Y-23758222D01*
X253849000Y-33186420D02*
X253849000Y-32849000D01*
X252252000Y-24380319D02*
X252251000Y-24379319D01*
X252000000Y-23758222D02*
X252000000Y-23503000D01*
X253862580Y-33200000D02*
X253849000Y-33186420D01*
X252252000Y-24554689D02*
X252252000Y-24380319D01*
X253512015Y-32525574D02*
X253461589Y-32576000D01*
X252027000Y-24041587D02*
X252027000Y-23785222D01*
X252000000Y-23503000D02*
X251997000Y-23500000D01*
X251750000Y-23500000D02*
X251750000Y-23272568D01*
X252500000Y-31500000D02*
X252500000Y-31450000D01*
D22*
X252125000Y-22897568D02*
X252125000Y-22092000D01*
D23*
X254562500Y-33776000D02*
X254038580Y-33776000D01*
X252251000Y-24265587D02*
X252027000Y-24041587D01*
X252476000Y-24778689D02*
X252252000Y-24554689D01*
X252500000Y-31450000D02*
X252600000Y-31350000D01*
%TO.N,/MOSI*%
X255276000Y-34013580D02*
X255262420Y-34000000D01*
X255086420Y-33024000D02*
X254562500Y-33024000D01*
X255276000Y-33586420D02*
X255276000Y-33213580D01*
D22*
X251500000Y-19000000D02*
X245399000Y-25101000D01*
D23*
X255497936Y-34099681D02*
X255500000Y-34097617D01*
D22*
X259900000Y-19000000D02*
X259950000Y-19050000D01*
D23*
X257250000Y-19000000D02*
X251500000Y-19000000D01*
D22*
X251425000Y-19075000D02*
X251425000Y-20907000D01*
D23*
X257250000Y-19000000D02*
X258750000Y-19000000D01*
X255276000Y-33213580D02*
X255086420Y-33024000D01*
X255276000Y-33986420D02*
X255276000Y-33613580D01*
X257925001Y-26138172D02*
X257250000Y-25463171D01*
D22*
X258750000Y-19000000D02*
X259900000Y-19000000D01*
X259950000Y-19050000D02*
X259950000Y-20900000D01*
D23*
X255262420Y-34000000D02*
X255276000Y-33986420D01*
D22*
X251500000Y-19000000D02*
X251425000Y-19075000D01*
D23*
X255276000Y-34097617D02*
X255276000Y-34013580D01*
X255262420Y-33600000D02*
X255276000Y-33586420D01*
X254562500Y-33024000D02*
X254562500Y-33000000D01*
X255276000Y-33613580D02*
X255262420Y-33600000D01*
X257250000Y-25463171D02*
X257250000Y-19000000D01*
D22*
X245399000Y-40609000D02*
X246500000Y-41710000D01*
D23*
X255500000Y-34097617D02*
X255276000Y-34097617D01*
D22*
X245399000Y-25101000D02*
X245399000Y-40609000D01*
D23*
%TO.N,/CS_BOT*%
X253498000Y-32994388D02*
X253498000Y-33731809D01*
X252757817Y-32845793D02*
X252839025Y-32927000D01*
X252599999Y-33003611D02*
X252757817Y-32845793D01*
X253893192Y-34127000D02*
X253989580Y-34127000D01*
X254062580Y-34200000D02*
X254562500Y-34200000D01*
X253498000Y-33731809D02*
X253893192Y-34127000D01*
D22*
X260934772Y-23250000D02*
X260934772Y-22902594D01*
D23*
X253989580Y-34127000D02*
X254062580Y-34200000D01*
X260607772Y-25965544D02*
X260934772Y-25638544D01*
D22*
X260934772Y-22902594D02*
X260650000Y-22617822D01*
D23*
X252839025Y-32927000D02*
X253430612Y-32927000D01*
X253430612Y-32927000D02*
X253498000Y-32994388D01*
D22*
X260650000Y-22617822D02*
X260650000Y-22085000D01*
D23*
X260934772Y-25638544D02*
X260934772Y-23250000D01*
%TO.N,/DCX_BOT*%
X253666240Y-35525926D02*
X253792166Y-35400000D01*
D22*
X260608772Y-23002272D02*
X260300000Y-22693500D01*
X260250000Y-25250000D02*
X260608772Y-24891228D01*
X260300000Y-22693500D02*
X260300000Y-22085000D01*
X260608772Y-24891228D02*
X260608772Y-23002272D01*
D23*
X253792166Y-35400000D02*
X254562500Y-35400000D01*
X253666240Y-35538479D02*
X253666240Y-35525926D01*
%TO.N,/TE_BOT*%
X259000000Y-22750000D02*
X259584000Y-22166000D01*
X259584000Y-23334000D02*
X259000000Y-22750000D01*
X259584000Y-22166000D02*
X259584000Y-22085000D01*
X259500000Y-23750000D02*
X259584000Y-23666000D01*
X259584000Y-23666000D02*
X259584000Y-23334000D01*
X254562500Y-36600000D02*
X255400000Y-36600000D01*
X255400000Y-36600000D02*
X255500000Y-36500000D01*
%TO.N,/VSYNC*%
X255400000Y-37437500D02*
X255400000Y-39700000D01*
X255400000Y-39700000D02*
X254850000Y-40250000D01*
X248880000Y-51870000D02*
X246500000Y-51870000D01*
X249000000Y-51750000D02*
X248880000Y-51870000D01*
%TO.N,/UART_RX*%
X253682829Y-32200000D02*
X254562500Y-32200000D01*
X253482829Y-32000000D02*
X253682829Y-32200000D01*
X248710000Y-46790000D02*
X246500000Y-46790000D01*
X252068256Y-30150000D02*
X251600000Y-30618256D01*
X248750000Y-46750000D02*
X248710000Y-46790000D01*
X253223001Y-32000000D02*
X253482829Y-32000000D01*
X252527000Y-30150000D02*
X252068256Y-30150000D01*
X251600000Y-30618256D02*
X251600000Y-41500000D01*
%TO.N,/UART_TX*%
X253051000Y-28126000D02*
X252527000Y-28650000D01*
X255653996Y-32500000D02*
X255604596Y-32549400D01*
X255604596Y-32549400D02*
X255276000Y-32220804D01*
X256154781Y-28404781D02*
X256154781Y-28645219D01*
X250000000Y-44000000D02*
X249750000Y-44250000D01*
X252600501Y-27007272D02*
X250960984Y-27007272D01*
X255899998Y-32500000D02*
X255653996Y-32500000D01*
X254586500Y-31824000D02*
X254562500Y-31800000D01*
X255635562Y-28126000D02*
X253051000Y-28126000D01*
X256154781Y-28645219D02*
X255635562Y-28126000D01*
X255086420Y-31824000D02*
X254586500Y-31824000D01*
X249874000Y-43874000D02*
X250000000Y-44000000D01*
X250960984Y-27007272D02*
X249874000Y-28094256D01*
X249874000Y-28094256D02*
X249874000Y-43874000D01*
X255276000Y-32220804D02*
X255276000Y-32013580D01*
X249750000Y-44250000D02*
X246500000Y-44250000D01*
X255276000Y-32013580D02*
X255086420Y-31824000D01*
D24*
%TO.N,/FLASH_MOSI*%
X263750000Y-46250000D02*
X261425000Y-46250000D01*
X259901000Y-32000000D02*
X259901000Y-35198774D01*
X259901000Y-35198774D02*
X260902226Y-36200000D01*
X263849000Y-36349000D02*
X263849000Y-46151000D01*
X256600000Y-30562500D02*
X256600000Y-31600000D01*
X263700000Y-36200000D02*
X263849000Y-36349000D01*
X261437500Y-36200000D02*
X263700000Y-36200000D01*
X256600000Y-31600000D02*
X257000000Y-32000000D01*
X257000000Y-32000000D02*
X259901000Y-32000000D01*
X260902226Y-36200000D02*
X261437500Y-36200000D01*
X263849000Y-46151000D02*
X263750000Y-46250000D01*
%TO.N,/FLASH_MISO*%
X255800000Y-29925000D02*
X255625000Y-29750000D01*
D23*
X260398932Y-42851068D02*
X260336500Y-42788636D01*
D24*
X252775943Y-29549000D02*
X252278057Y-29549000D01*
D23*
X262450000Y-40671124D02*
X262450000Y-39000000D01*
D24*
X250999000Y-41251057D02*
X250999000Y-41748943D01*
D23*
X260336500Y-42788636D02*
X260336500Y-42091364D01*
D24*
X251000000Y-41817100D02*
X252892900Y-43710000D01*
D23*
X261282124Y-41839000D02*
X262450000Y-40671124D01*
D24*
X252976943Y-29750000D02*
X252775943Y-29549000D01*
X251000000Y-41250057D02*
X250999000Y-41251057D01*
D23*
X259969669Y-43280331D02*
X260398932Y-42851068D01*
D24*
X252077057Y-29750000D02*
X251000000Y-29750000D01*
X250999000Y-41748943D02*
X251000000Y-41749943D01*
X251000000Y-29750000D02*
X251000000Y-41250057D01*
D23*
X262154772Y-35800000D02*
X261437500Y-35800000D01*
D24*
X255800000Y-30562500D02*
X255800000Y-29925000D01*
D23*
X262354771Y-35600001D02*
X262154772Y-35800000D01*
X260336500Y-42091364D02*
X260588864Y-41839000D01*
X254710000Y-43250000D02*
X257010298Y-43250000D01*
X258969669Y-43280331D02*
X259969669Y-43280331D01*
X260588864Y-41839000D02*
X261282124Y-41839000D01*
X257010298Y-43250000D02*
X257260298Y-43000000D01*
D24*
X255625000Y-29750000D02*
X252976943Y-29750000D01*
X251000000Y-41749943D02*
X251000000Y-41817100D01*
X252278057Y-29549000D02*
X252077057Y-29750000D01*
X252892900Y-43710000D02*
X254250000Y-43710000D01*
D23*
X254250000Y-43710000D02*
X254710000Y-43250000D01*
D24*
%TO.N,/FLASH_CLK*%
X263249000Y-45000000D02*
X261445000Y-45000000D01*
X261445000Y-45000000D02*
X261425000Y-44980000D01*
X262250000Y-37412500D02*
X261437500Y-36600000D01*
X257229771Y-31479771D02*
X257000000Y-31250000D01*
X262250000Y-37500000D02*
X262250000Y-37412500D01*
X260461978Y-31479771D02*
X257229771Y-31479771D01*
X257000000Y-31250000D02*
X257000000Y-30562500D01*
X260477639Y-31495432D02*
X260461978Y-31479771D01*
%TO.N,/FLASH_CS*%
X255212500Y-30750000D02*
X252000000Y-30750000D01*
X259000000Y-39000000D02*
X259250000Y-38750000D01*
X259000000Y-40250000D02*
X259000000Y-39000000D01*
X252000000Y-37000000D02*
X254250000Y-39250000D01*
X254250000Y-39250000D02*
X254250000Y-42440000D01*
X260601000Y-38149000D02*
X260601000Y-37437500D01*
X252000000Y-30750000D02*
X252000000Y-37000000D01*
X255400000Y-30562500D02*
X255212500Y-30750000D01*
X260449000Y-38750000D02*
X260449000Y-38301000D01*
X254250000Y-41988068D02*
X256747017Y-39491051D01*
X260449000Y-38301000D02*
X260601000Y-38149000D01*
X254250000Y-42440000D02*
X254250000Y-41988068D01*
%TD*%
M02*
