M48
; DRILL file {KiCad 9.0.7} date 2026-03-07T10:59:30+0100
; FORMAT={-:-/ absolute / metric / decimal}
; #@! TF.CreationDate,2026-03-07T10:59:30+01:00
; #@! TF.GenerationSoftware,Kicad,Pcbnew,9.0.7
; #@! TF.FileFunction,Plated,1,2,PTH
FMAT,2
METRIC
; #@! TA.AperFunction,Plated,PTH,ViaDrill
T1C0.300
; #@! TA.AperFunction,Plated,PTH,ComponentDrill
T2C1.000
%
G90
G05
T1
X244.849Y-26.25
X247.361Y-22.361
X247.75Y-24.25
X248.5Y-31.25
X248.75Y-46.75
X248.95Y-25.25
X248.95Y-36.5
X248.988Y-39.705
X249.0Y-41.75
X249.0Y-45.0
X249.0Y-51.75
X249.298Y-37.5
X250.25Y-23.0
X250.8Y-20.478
X250.957Y-51.646
X251.325Y-24.764
X251.5Y-47.0
X251.6Y-41.5
X251.9Y-25.407
X252.476Y-24.779
X252.527Y-28.65
X252.527Y-30.15
X252.6Y-33.004
X252.6Y-31.35
X252.601Y-27.007
X252.75Y-36.25
X252.923Y-33.736
X252.958Y-26.292
X253.223Y-32.0
X253.262Y-24.262
X253.284Y-45.343
X253.666Y-35.538
X253.674Y-23.424
X254.034Y-46.653
X254.077Y-27.15
X254.85Y-40.25
X255.0Y-53.0
X255.498Y-34.1
X255.5Y-36.5
X255.5Y-45.5
X255.723Y-31.5
X255.9Y-32.5
X255.9Y-35.227
X255.9Y-33.408
X256.155Y-28.405
X256.25Y-41.0
X256.25Y-42.25
X256.421Y-36.515
X256.5Y-20.25
X256.5Y-29.25
X256.747Y-39.491
X257.048Y-40.947
X257.26Y-43.0
X257.825Y-23.25
X257.925Y-26.138
X258.0Y-34.0
X258.0Y-36.25
X258.4Y-29.075
X258.416Y-22.71
X258.574Y-25.489
X258.97Y-43.28
X259.0Y-40.25
X259.25Y-38.75
X259.4Y-20.325
X259.5Y-23.75
X259.75Y-41.0
X259.858Y-24.466
X260.25Y-25.25
X260.25Y-28.0
X260.449Y-38.75
X260.478Y-31.495
X260.573Y-18.953
X260.608Y-25.966
X261.1Y-41.208
X261.15Y-42.44
X261.25Y-29.85
X261.5Y-20.0
X262.25Y-37.5
X262.355Y-35.6
X262.45Y-39.0
X262.75Y-23.0
X262.75Y-51.25
X262.791Y-34.889
X263.2Y-38.25
X263.249Y-45.0
X263.799Y-34.201
T2
X246.5Y-29.01
X246.5Y-31.55
X246.5Y-34.09
X246.5Y-36.63
X246.5Y-39.17
X246.5Y-41.71
X246.5Y-44.25
X246.5Y-46.79
X246.5Y-49.33
X246.5Y-51.87
M30
