%TF.GenerationSoftware,KiCad,Pcbnew,9.0.7*%
%TF.CreationDate,2026-02-28T18:35:26+01:00*%
%TF.ProjectId,CROSSFIRE PCB SLAVE,43524f53-5346-4495-9245-205043422053,rev?*%
%TF.SameCoordinates,Original*%
%TF.FileFunction,Legend,Top*%
%TF.FilePolarity,Positive*%
%FSLAX46Y46*%
G04 Gerber Fmt 4.6, Leading zero omitted, Abs format (unit mm)*
G04 Created by KiCad (PCBNEW 9.0.7) date 2026-02-28 18:35:26*
%MOMM*%
%LPD*%
G01*
G04 APERTURE LIST*
%ADD10C,0.150000*%
%ADD11C,0.254000*%
%ADD12C,0.120000*%
%ADD13C,0.100000*%
G04 APERTURE END LIST*
D10*
X253317142Y-56759580D02*
X253269523Y-56807200D01*
X253269523Y-56807200D02*
X253126666Y-56854819D01*
X253126666Y-56854819D02*
X253031428Y-56854819D01*
X253031428Y-56854819D02*
X252888571Y-56807200D01*
X252888571Y-56807200D02*
X252793333Y-56711961D01*
X252793333Y-56711961D02*
X252745714Y-56616723D01*
X252745714Y-56616723D02*
X252698095Y-56426247D01*
X252698095Y-56426247D02*
X252698095Y-56283390D01*
X252698095Y-56283390D02*
X252745714Y-56092914D01*
X252745714Y-56092914D02*
X252793333Y-55997676D01*
X252793333Y-55997676D02*
X252888571Y-55902438D01*
X252888571Y-55902438D02*
X253031428Y-55854819D01*
X253031428Y-55854819D02*
X253126666Y-55854819D01*
X253126666Y-55854819D02*
X253269523Y-55902438D01*
X253269523Y-55902438D02*
X253317142Y-55950057D01*
X254269523Y-56854819D02*
X253698095Y-56854819D01*
X253983809Y-56854819D02*
X253983809Y-55854819D01*
X253983809Y-55854819D02*
X253888571Y-55997676D01*
X253888571Y-55997676D02*
X253793333Y-56092914D01*
X253793333Y-56092914D02*
X253698095Y-56140533D01*
X254888571Y-55854819D02*
X254983809Y-55854819D01*
X254983809Y-55854819D02*
X255079047Y-55902438D01*
X255079047Y-55902438D02*
X255126666Y-55950057D01*
X255126666Y-55950057D02*
X255174285Y-56045295D01*
X255174285Y-56045295D02*
X255221904Y-56235771D01*
X255221904Y-56235771D02*
X255221904Y-56473866D01*
X255221904Y-56473866D02*
X255174285Y-56664342D01*
X255174285Y-56664342D02*
X255126666Y-56759580D01*
X255126666Y-56759580D02*
X255079047Y-56807200D01*
X255079047Y-56807200D02*
X254983809Y-56854819D01*
X254983809Y-56854819D02*
X254888571Y-56854819D01*
X254888571Y-56854819D02*
X254793333Y-56807200D01*
X254793333Y-56807200D02*
X254745714Y-56759580D01*
X254745714Y-56759580D02*
X254698095Y-56664342D01*
X254698095Y-56664342D02*
X254650476Y-56473866D01*
X254650476Y-56473866D02*
X254650476Y-56235771D01*
X254650476Y-56235771D02*
X254698095Y-56045295D01*
X254698095Y-56045295D02*
X254745714Y-55950057D01*
X254745714Y-55950057D02*
X254793333Y-55902438D01*
X254793333Y-55902438D02*
X254888571Y-55854819D01*
X253793333Y-54789580D02*
X253745714Y-54837200D01*
X253745714Y-54837200D02*
X253602857Y-54884819D01*
X253602857Y-54884819D02*
X253507619Y-54884819D01*
X253507619Y-54884819D02*
X253364762Y-54837200D01*
X253364762Y-54837200D02*
X253269524Y-54741961D01*
X253269524Y-54741961D02*
X253221905Y-54646723D01*
X253221905Y-54646723D02*
X253174286Y-54456247D01*
X253174286Y-54456247D02*
X253174286Y-54313390D01*
X253174286Y-54313390D02*
X253221905Y-54122914D01*
X253221905Y-54122914D02*
X253269524Y-54027676D01*
X253269524Y-54027676D02*
X253364762Y-53932438D01*
X253364762Y-53932438D02*
X253507619Y-53884819D01*
X253507619Y-53884819D02*
X253602857Y-53884819D01*
X253602857Y-53884819D02*
X253745714Y-53932438D01*
X253745714Y-53932438D02*
X253793333Y-53980057D01*
X254269524Y-54884819D02*
X254460000Y-54884819D01*
X254460000Y-54884819D02*
X254555238Y-54837200D01*
X254555238Y-54837200D02*
X254602857Y-54789580D01*
X254602857Y-54789580D02*
X254698095Y-54646723D01*
X254698095Y-54646723D02*
X254745714Y-54456247D01*
X254745714Y-54456247D02*
X254745714Y-54075295D01*
X254745714Y-54075295D02*
X254698095Y-53980057D01*
X254698095Y-53980057D02*
X254650476Y-53932438D01*
X254650476Y-53932438D02*
X254555238Y-53884819D01*
X254555238Y-53884819D02*
X254364762Y-53884819D01*
X254364762Y-53884819D02*
X254269524Y-53932438D01*
X254269524Y-53932438D02*
X254221905Y-53980057D01*
X254221905Y-53980057D02*
X254174286Y-54075295D01*
X254174286Y-54075295D02*
X254174286Y-54313390D01*
X254174286Y-54313390D02*
X254221905Y-54408628D01*
X254221905Y-54408628D02*
X254269524Y-54456247D01*
X254269524Y-54456247D02*
X254364762Y-54503866D01*
X254364762Y-54503866D02*
X254555238Y-54503866D01*
X254555238Y-54503866D02*
X254650476Y-54456247D01*
X254650476Y-54456247D02*
X254698095Y-54408628D01*
X254698095Y-54408628D02*
X254745714Y-54313390D01*
X276661309Y-35958628D02*
X276661309Y-36434819D01*
X276327976Y-35434819D02*
X276661309Y-35958628D01*
X276661309Y-35958628D02*
X276994642Y-35434819D01*
X277851785Y-36434819D02*
X277280357Y-36434819D01*
X277566071Y-36434819D02*
X277566071Y-35434819D01*
X277566071Y-35434819D02*
X277470833Y-35577676D01*
X277470833Y-35577676D02*
X277375595Y-35672914D01*
X277375595Y-35672914D02*
X277280357Y-35720533D01*
X260038333Y-52389580D02*
X259990714Y-52437200D01*
X259990714Y-52437200D02*
X259847857Y-52484819D01*
X259847857Y-52484819D02*
X259752619Y-52484819D01*
X259752619Y-52484819D02*
X259609762Y-52437200D01*
X259609762Y-52437200D02*
X259514524Y-52341961D01*
X259514524Y-52341961D02*
X259466905Y-52246723D01*
X259466905Y-52246723D02*
X259419286Y-52056247D01*
X259419286Y-52056247D02*
X259419286Y-51913390D01*
X259419286Y-51913390D02*
X259466905Y-51722914D01*
X259466905Y-51722914D02*
X259514524Y-51627676D01*
X259514524Y-51627676D02*
X259609762Y-51532438D01*
X259609762Y-51532438D02*
X259752619Y-51484819D01*
X259752619Y-51484819D02*
X259847857Y-51484819D01*
X259847857Y-51484819D02*
X259990714Y-51532438D01*
X259990714Y-51532438D02*
X260038333Y-51580057D01*
X260609762Y-51913390D02*
X260514524Y-51865771D01*
X260514524Y-51865771D02*
X260466905Y-51818152D01*
X260466905Y-51818152D02*
X260419286Y-51722914D01*
X260419286Y-51722914D02*
X260419286Y-51675295D01*
X260419286Y-51675295D02*
X260466905Y-51580057D01*
X260466905Y-51580057D02*
X260514524Y-51532438D01*
X260514524Y-51532438D02*
X260609762Y-51484819D01*
X260609762Y-51484819D02*
X260800238Y-51484819D01*
X260800238Y-51484819D02*
X260895476Y-51532438D01*
X260895476Y-51532438D02*
X260943095Y-51580057D01*
X260943095Y-51580057D02*
X260990714Y-51675295D01*
X260990714Y-51675295D02*
X260990714Y-51722914D01*
X260990714Y-51722914D02*
X260943095Y-51818152D01*
X260943095Y-51818152D02*
X260895476Y-51865771D01*
X260895476Y-51865771D02*
X260800238Y-51913390D01*
X260800238Y-51913390D02*
X260609762Y-51913390D01*
X260609762Y-51913390D02*
X260514524Y-51961009D01*
X260514524Y-51961009D02*
X260466905Y-52008628D01*
X260466905Y-52008628D02*
X260419286Y-52103866D01*
X260419286Y-52103866D02*
X260419286Y-52294342D01*
X260419286Y-52294342D02*
X260466905Y-52389580D01*
X260466905Y-52389580D02*
X260514524Y-52437200D01*
X260514524Y-52437200D02*
X260609762Y-52484819D01*
X260609762Y-52484819D02*
X260800238Y-52484819D01*
X260800238Y-52484819D02*
X260895476Y-52437200D01*
X260895476Y-52437200D02*
X260943095Y-52389580D01*
X260943095Y-52389580D02*
X260990714Y-52294342D01*
X260990714Y-52294342D02*
X260990714Y-52103866D01*
X260990714Y-52103866D02*
X260943095Y-52008628D01*
X260943095Y-52008628D02*
X260895476Y-51961009D01*
X260895476Y-51961009D02*
X260800238Y-51913390D01*
X257168333Y-54359580D02*
X257120714Y-54407200D01*
X257120714Y-54407200D02*
X256977857Y-54454819D01*
X256977857Y-54454819D02*
X256882619Y-54454819D01*
X256882619Y-54454819D02*
X256739762Y-54407200D01*
X256739762Y-54407200D02*
X256644524Y-54311961D01*
X256644524Y-54311961D02*
X256596905Y-54216723D01*
X256596905Y-54216723D02*
X256549286Y-54026247D01*
X256549286Y-54026247D02*
X256549286Y-53883390D01*
X256549286Y-53883390D02*
X256596905Y-53692914D01*
X256596905Y-53692914D02*
X256644524Y-53597676D01*
X256644524Y-53597676D02*
X256739762Y-53502438D01*
X256739762Y-53502438D02*
X256882619Y-53454819D01*
X256882619Y-53454819D02*
X256977857Y-53454819D01*
X256977857Y-53454819D02*
X257120714Y-53502438D01*
X257120714Y-53502438D02*
X257168333Y-53550057D01*
X258025476Y-53788152D02*
X258025476Y-54454819D01*
X257787381Y-53407200D02*
X257549286Y-54121485D01*
X257549286Y-54121485D02*
X258168333Y-54121485D01*
X260038333Y-48449580D02*
X259990714Y-48497200D01*
X259990714Y-48497200D02*
X259847857Y-48544819D01*
X259847857Y-48544819D02*
X259752619Y-48544819D01*
X259752619Y-48544819D02*
X259609762Y-48497200D01*
X259609762Y-48497200D02*
X259514524Y-48401961D01*
X259514524Y-48401961D02*
X259466905Y-48306723D01*
X259466905Y-48306723D02*
X259419286Y-48116247D01*
X259419286Y-48116247D02*
X259419286Y-47973390D01*
X259419286Y-47973390D02*
X259466905Y-47782914D01*
X259466905Y-47782914D02*
X259514524Y-47687676D01*
X259514524Y-47687676D02*
X259609762Y-47592438D01*
X259609762Y-47592438D02*
X259752619Y-47544819D01*
X259752619Y-47544819D02*
X259847857Y-47544819D01*
X259847857Y-47544819D02*
X259990714Y-47592438D01*
X259990714Y-47592438D02*
X260038333Y-47640057D01*
X260895476Y-47544819D02*
X260705000Y-47544819D01*
X260705000Y-47544819D02*
X260609762Y-47592438D01*
X260609762Y-47592438D02*
X260562143Y-47640057D01*
X260562143Y-47640057D02*
X260466905Y-47782914D01*
X260466905Y-47782914D02*
X260419286Y-47973390D01*
X260419286Y-47973390D02*
X260419286Y-48354342D01*
X260419286Y-48354342D02*
X260466905Y-48449580D01*
X260466905Y-48449580D02*
X260514524Y-48497200D01*
X260514524Y-48497200D02*
X260609762Y-48544819D01*
X260609762Y-48544819D02*
X260800238Y-48544819D01*
X260800238Y-48544819D02*
X260895476Y-48497200D01*
X260895476Y-48497200D02*
X260943095Y-48449580D01*
X260943095Y-48449580D02*
X260990714Y-48354342D01*
X260990714Y-48354342D02*
X260990714Y-48116247D01*
X260990714Y-48116247D02*
X260943095Y-48021009D01*
X260943095Y-48021009D02*
X260895476Y-47973390D01*
X260895476Y-47973390D02*
X260800238Y-47925771D01*
X260800238Y-47925771D02*
X260609762Y-47925771D01*
X260609762Y-47925771D02*
X260514524Y-47973390D01*
X260514524Y-47973390D02*
X260466905Y-48021009D01*
X260466905Y-48021009D02*
X260419286Y-48116247D01*
X257168333Y-52389580D02*
X257120714Y-52437200D01*
X257120714Y-52437200D02*
X256977857Y-52484819D01*
X256977857Y-52484819D02*
X256882619Y-52484819D01*
X256882619Y-52484819D02*
X256739762Y-52437200D01*
X256739762Y-52437200D02*
X256644524Y-52341961D01*
X256644524Y-52341961D02*
X256596905Y-52246723D01*
X256596905Y-52246723D02*
X256549286Y-52056247D01*
X256549286Y-52056247D02*
X256549286Y-51913390D01*
X256549286Y-51913390D02*
X256596905Y-51722914D01*
X256596905Y-51722914D02*
X256644524Y-51627676D01*
X256644524Y-51627676D02*
X256739762Y-51532438D01*
X256739762Y-51532438D02*
X256882619Y-51484819D01*
X256882619Y-51484819D02*
X256977857Y-51484819D01*
X256977857Y-51484819D02*
X257120714Y-51532438D01*
X257120714Y-51532438D02*
X257168333Y-51580057D01*
X257501667Y-51484819D02*
X258120714Y-51484819D01*
X258120714Y-51484819D02*
X257787381Y-51865771D01*
X257787381Y-51865771D02*
X257930238Y-51865771D01*
X257930238Y-51865771D02*
X258025476Y-51913390D01*
X258025476Y-51913390D02*
X258073095Y-51961009D01*
X258073095Y-51961009D02*
X258120714Y-52056247D01*
X258120714Y-52056247D02*
X258120714Y-52294342D01*
X258120714Y-52294342D02*
X258073095Y-52389580D01*
X258073095Y-52389580D02*
X258025476Y-52437200D01*
X258025476Y-52437200D02*
X257930238Y-52484819D01*
X257930238Y-52484819D02*
X257644524Y-52484819D01*
X257644524Y-52484819D02*
X257549286Y-52437200D01*
X257549286Y-52437200D02*
X257501667Y-52389580D01*
X257168333Y-56329580D02*
X257120714Y-56377200D01*
X257120714Y-56377200D02*
X256977857Y-56424819D01*
X256977857Y-56424819D02*
X256882619Y-56424819D01*
X256882619Y-56424819D02*
X256739762Y-56377200D01*
X256739762Y-56377200D02*
X256644524Y-56281961D01*
X256644524Y-56281961D02*
X256596905Y-56186723D01*
X256596905Y-56186723D02*
X256549286Y-55996247D01*
X256549286Y-55996247D02*
X256549286Y-55853390D01*
X256549286Y-55853390D02*
X256596905Y-55662914D01*
X256596905Y-55662914D02*
X256644524Y-55567676D01*
X256644524Y-55567676D02*
X256739762Y-55472438D01*
X256739762Y-55472438D02*
X256882619Y-55424819D01*
X256882619Y-55424819D02*
X256977857Y-55424819D01*
X256977857Y-55424819D02*
X257120714Y-55472438D01*
X257120714Y-55472438D02*
X257168333Y-55520057D01*
X258073095Y-55424819D02*
X257596905Y-55424819D01*
X257596905Y-55424819D02*
X257549286Y-55901009D01*
X257549286Y-55901009D02*
X257596905Y-55853390D01*
X257596905Y-55853390D02*
X257692143Y-55805771D01*
X257692143Y-55805771D02*
X257930238Y-55805771D01*
X257930238Y-55805771D02*
X258025476Y-55853390D01*
X258025476Y-55853390D02*
X258073095Y-55901009D01*
X258073095Y-55901009D02*
X258120714Y-55996247D01*
X258120714Y-55996247D02*
X258120714Y-56234342D01*
X258120714Y-56234342D02*
X258073095Y-56329580D01*
X258073095Y-56329580D02*
X258025476Y-56377200D01*
X258025476Y-56377200D02*
X257930238Y-56424819D01*
X257930238Y-56424819D02*
X257692143Y-56424819D01*
X257692143Y-56424819D02*
X257596905Y-56377200D01*
X257596905Y-56377200D02*
X257549286Y-56329580D01*
X260038333Y-50419580D02*
X259990714Y-50467200D01*
X259990714Y-50467200D02*
X259847857Y-50514819D01*
X259847857Y-50514819D02*
X259752619Y-50514819D01*
X259752619Y-50514819D02*
X259609762Y-50467200D01*
X259609762Y-50467200D02*
X259514524Y-50371961D01*
X259514524Y-50371961D02*
X259466905Y-50276723D01*
X259466905Y-50276723D02*
X259419286Y-50086247D01*
X259419286Y-50086247D02*
X259419286Y-49943390D01*
X259419286Y-49943390D02*
X259466905Y-49752914D01*
X259466905Y-49752914D02*
X259514524Y-49657676D01*
X259514524Y-49657676D02*
X259609762Y-49562438D01*
X259609762Y-49562438D02*
X259752619Y-49514819D01*
X259752619Y-49514819D02*
X259847857Y-49514819D01*
X259847857Y-49514819D02*
X259990714Y-49562438D01*
X259990714Y-49562438D02*
X260038333Y-49610057D01*
X260371667Y-49514819D02*
X261038333Y-49514819D01*
X261038333Y-49514819D02*
X260609762Y-50514819D01*
D11*
X252576667Y-20804318D02*
X252576667Y-21711461D01*
X252576667Y-21711461D02*
X252516190Y-21892889D01*
X252516190Y-21892889D02*
X252395238Y-22013842D01*
X252395238Y-22013842D02*
X252213809Y-22074318D01*
X252213809Y-22074318D02*
X252092857Y-22074318D01*
X253846667Y-22074318D02*
X253120952Y-22074318D01*
X253483809Y-22074318D02*
X253483809Y-20804318D01*
X253483809Y-20804318D02*
X253362857Y-20985746D01*
X253362857Y-20985746D02*
X253241905Y-21106699D01*
X253241905Y-21106699D02*
X253120952Y-21167175D01*
X261101667Y-20797318D02*
X261101667Y-21704461D01*
X261101667Y-21704461D02*
X261041190Y-21885889D01*
X261041190Y-21885889D02*
X260920238Y-22006842D01*
X260920238Y-22006842D02*
X260738809Y-22067318D01*
X260738809Y-22067318D02*
X260617857Y-22067318D01*
X261645952Y-20918270D02*
X261706428Y-20857794D01*
X261706428Y-20857794D02*
X261827381Y-20797318D01*
X261827381Y-20797318D02*
X262129762Y-20797318D01*
X262129762Y-20797318D02*
X262250714Y-20857794D01*
X262250714Y-20857794D02*
X262311190Y-20918270D01*
X262311190Y-20918270D02*
X262371667Y-21039222D01*
X262371667Y-21039222D02*
X262371667Y-21160175D01*
X262371667Y-21160175D02*
X262311190Y-21341603D01*
X262311190Y-21341603D02*
X261585476Y-22067318D01*
X261585476Y-22067318D02*
X262371667Y-22067318D01*
D10*
X257238095Y-28624819D02*
X257238095Y-29434342D01*
X257238095Y-29434342D02*
X257285714Y-29529580D01*
X257285714Y-29529580D02*
X257333333Y-29577200D01*
X257333333Y-29577200D02*
X257428571Y-29624819D01*
X257428571Y-29624819D02*
X257619047Y-29624819D01*
X257619047Y-29624819D02*
X257714285Y-29577200D01*
X257714285Y-29577200D02*
X257761904Y-29529580D01*
X257761904Y-29529580D02*
X257809523Y-29434342D01*
X257809523Y-29434342D02*
X257809523Y-28624819D01*
X258809523Y-29624819D02*
X258238095Y-29624819D01*
X258523809Y-29624819D02*
X258523809Y-28624819D01*
X258523809Y-28624819D02*
X258428571Y-28767676D01*
X258428571Y-28767676D02*
X258333333Y-28862914D01*
X258333333Y-28862914D02*
X258238095Y-28910533D01*
X257075595Y-40199819D02*
X257075595Y-41009342D01*
X257075595Y-41009342D02*
X257123214Y-41104580D01*
X257123214Y-41104580D02*
X257170833Y-41152200D01*
X257170833Y-41152200D02*
X257266071Y-41199819D01*
X257266071Y-41199819D02*
X257456547Y-41199819D01*
X257456547Y-41199819D02*
X257551785Y-41152200D01*
X257551785Y-41152200D02*
X257599404Y-41104580D01*
X257599404Y-41104580D02*
X257647023Y-41009342D01*
X257647023Y-41009342D02*
X257647023Y-40199819D01*
X258551785Y-40533152D02*
X258551785Y-41199819D01*
X258313690Y-40152200D02*
X258075595Y-40866485D01*
X258075595Y-40866485D02*
X258694642Y-40866485D01*
X246166666Y-26084819D02*
X246166666Y-26799104D01*
X246166666Y-26799104D02*
X246119047Y-26941961D01*
X246119047Y-26941961D02*
X246023809Y-27037200D01*
X246023809Y-27037200D02*
X245880952Y-27084819D01*
X245880952Y-27084819D02*
X245785714Y-27084819D01*
X247071428Y-26418152D02*
X247071428Y-27084819D01*
X246833333Y-26037200D02*
X246595238Y-26751485D01*
X246595238Y-26751485D02*
X247214285Y-26751485D01*
X274060833Y-29824819D02*
X273727500Y-29348628D01*
X273489405Y-29824819D02*
X273489405Y-28824819D01*
X273489405Y-28824819D02*
X273870357Y-28824819D01*
X273870357Y-28824819D02*
X273965595Y-28872438D01*
X273965595Y-28872438D02*
X274013214Y-28920057D01*
X274013214Y-28920057D02*
X274060833Y-29015295D01*
X274060833Y-29015295D02*
X274060833Y-29158152D01*
X274060833Y-29158152D02*
X274013214Y-29253390D01*
X274013214Y-29253390D02*
X273965595Y-29301009D01*
X273965595Y-29301009D02*
X273870357Y-29348628D01*
X273870357Y-29348628D02*
X273489405Y-29348628D01*
X275013214Y-29824819D02*
X274441786Y-29824819D01*
X274727500Y-29824819D02*
X274727500Y-28824819D01*
X274727500Y-28824819D02*
X274632262Y-28967676D01*
X274632262Y-28967676D02*
X274537024Y-29062914D01*
X274537024Y-29062914D02*
X274441786Y-29110533D01*
X250823333Y-45534819D02*
X250490000Y-45058628D01*
X250251905Y-45534819D02*
X250251905Y-44534819D01*
X250251905Y-44534819D02*
X250632857Y-44534819D01*
X250632857Y-44534819D02*
X250728095Y-44582438D01*
X250728095Y-44582438D02*
X250775714Y-44630057D01*
X250775714Y-44630057D02*
X250823333Y-44725295D01*
X250823333Y-44725295D02*
X250823333Y-44868152D01*
X250823333Y-44868152D02*
X250775714Y-44963390D01*
X250775714Y-44963390D02*
X250728095Y-45011009D01*
X250728095Y-45011009D02*
X250632857Y-45058628D01*
X250632857Y-45058628D02*
X250251905Y-45058628D01*
X251204286Y-44630057D02*
X251251905Y-44582438D01*
X251251905Y-44582438D02*
X251347143Y-44534819D01*
X251347143Y-44534819D02*
X251585238Y-44534819D01*
X251585238Y-44534819D02*
X251680476Y-44582438D01*
X251680476Y-44582438D02*
X251728095Y-44630057D01*
X251728095Y-44630057D02*
X251775714Y-44725295D01*
X251775714Y-44725295D02*
X251775714Y-44820533D01*
X251775714Y-44820533D02*
X251728095Y-44963390D01*
X251728095Y-44963390D02*
X251156667Y-45534819D01*
X251156667Y-45534819D02*
X251775714Y-45534819D01*
D12*
%TO.C,C10*%
X253852164Y-57920000D02*
X254067836Y-57920000D01*
X253852164Y-57200000D02*
X254067836Y-57200000D01*
%TO.C,C9*%
X253852164Y-55950000D02*
X254067836Y-55950000D01*
X253852164Y-55230000D02*
X254067836Y-55230000D01*
%TO.C,Y1*%
X251840000Y-53860000D02*
X255960000Y-53860000D01*
X251840000Y-50440000D02*
X251840000Y-53860000D01*
%TO.C,C8*%
X260097164Y-53550000D02*
X260312836Y-53550000D01*
X260097164Y-52830000D02*
X260312836Y-52830000D01*
%TO.C,C4*%
X257227164Y-55520000D02*
X257442836Y-55520000D01*
X257227164Y-54800000D02*
X257442836Y-54800000D01*
%TO.C,C6*%
X260097164Y-49610000D02*
X260312836Y-49610000D01*
X260097164Y-48890000D02*
X260312836Y-48890000D01*
%TO.C,C3*%
X257227164Y-53550000D02*
X257442836Y-53550000D01*
X257227164Y-52830000D02*
X257442836Y-52830000D01*
%TO.C,C5*%
X257227164Y-57490000D02*
X257442836Y-57490000D01*
X257227164Y-56770000D02*
X257442836Y-56770000D01*
%TO.C,C7*%
X260097164Y-51580000D02*
X260312836Y-51580000D01*
X260097164Y-50860000D02*
X260312836Y-50860000D01*
D13*
%TO.C,J1*%
X256060000Y-21075000D02*
X256060000Y-21925000D01*
X249940000Y-21075000D02*
X249940000Y-21925000D01*
%TO.C,J2*%
X264585000Y-21068000D02*
X264585000Y-21918000D01*
X258465000Y-21068000D02*
X258465000Y-21918000D01*
D12*
%TO.C,U1*%
X253860000Y-31400000D02*
X253530000Y-31640000D01*
X253530000Y-31160000D01*
X253860000Y-31400000D01*
G36*
X253860000Y-31400000D02*
G01*
X253530000Y-31640000D01*
X253530000Y-31160000D01*
X253860000Y-31400000D01*
G37*
X261610000Y-37610000D02*
X260960000Y-37610000D01*
X261610000Y-36960000D02*
X261610000Y-37610000D01*
X261610000Y-30390000D02*
X261610000Y-31040000D01*
X260960000Y-30390000D02*
X261610000Y-30390000D01*
X255040000Y-37610000D02*
X254390000Y-37610000D01*
X254390000Y-37610000D02*
X254390000Y-36960000D01*
X254390000Y-31040000D02*
X254390000Y-30390000D01*
X254390000Y-30390000D02*
X255040000Y-30390000D01*
%TO.C,U4*%
X255077500Y-41585000D02*
X260597500Y-41585000D01*
X255077500Y-41855000D02*
X255077500Y-41585000D01*
X255077500Y-47105000D02*
X255077500Y-46835000D01*
X260597500Y-41585000D02*
X260597500Y-41855000D01*
X260597500Y-46835000D02*
X260597500Y-47105000D01*
X260597500Y-47105000D02*
X255077500Y-47105000D01*
X254247500Y-41845000D02*
X253907500Y-41375000D01*
X254587500Y-41375000D01*
X254247500Y-41845000D01*
G36*
X254247500Y-41845000D02*
G01*
X253907500Y-41375000D01*
X254587500Y-41375000D01*
X254247500Y-41845000D01*
G37*
%TO.C,J4*%
X245120000Y-27630000D02*
X246500000Y-27630000D01*
X245120000Y-29010000D02*
X245120000Y-27630000D01*
X245120000Y-30280000D02*
X245120000Y-53250000D01*
X245120000Y-30280000D02*
X247880000Y-30280000D01*
X245120000Y-53250000D02*
X247880000Y-53250000D01*
X247880000Y-30280000D02*
X247880000Y-53250000D01*
%TO.C,R1*%
X250836359Y-43880000D02*
X251143641Y-43880000D01*
X250836359Y-44640000D02*
X251143641Y-44640000D01*
%TO.C,R2*%
X250836359Y-45870000D02*
X251143641Y-45870000D01*
X250836359Y-46630000D02*
X251143641Y-46630000D01*
%TD*%
M02*
