%TF.GenerationSoftware,KiCad,Pcbnew,9.0.7*%
%TF.CreationDate,2026-03-07T10:53:09+01:00*%
%TF.ProjectId,CROSSFIRE PCB IMAGE SPLITTER,43524f53-5346-4495-9245-205043422049,rev?*%
%TF.SameCoordinates,Original*%
%TF.FileFunction,Copper,L1,Top*%
%TF.FilePolarity,Positive*%
%FSLAX46Y46*%
G04 Gerber Fmt 4.6, Leading zero omitted, Abs format (unit mm)*
G04 Created by KiCad (PCBNEW 9.0.7) date 2026-03-07 10:53:09*
%MOMM*%
%LPD*%
G01*
G04 APERTURE LIST*
G04 Aperture macros list*
%AMRoundRect*
0 Rectangle with rounded corners*
0 $1 Rounding radius*
0 $2 $3 $4 $5 $6 $7 $8 $9 X,Y pos of 4 corners*
0 Add a 4 corners polygon primitive as box body*
4,1,4,$2,$3,$4,$5,$6,$7,$8,$9,$2,$3,0*
0 Add four circle primitives for the rounded corners*
1,1,$1+$1,$2,$3*
1,1,$1+$1,$4,$5*
1,1,$1+$1,$6,$7*
1,1,$1+$1,$8,$9*
0 Add four rect primitives between the rounded corners*
20,1,$1+$1,$2,$3,$4,$5,0*
20,1,$1+$1,$4,$5,$6,$7,0*
20,1,$1+$1,$6,$7,$8,$9,0*
20,1,$1+$1,$8,$9,$2,$3,0*%
G04 Aperture macros list end*
%TA.AperFunction,SMDPad,CuDef*%
%ADD10RoundRect,0.140000X-0.140000X-0.170000X0.140000X-0.170000X0.140000X0.170000X-0.140000X0.170000X0*%
%TD*%
%TA.AperFunction,SMDPad,CuDef*%
%ADD11R,0.180000X0.615000*%
%TD*%
%TA.AperFunction,SMDPad,CuDef*%
%ADD12R,0.520000X0.400000*%
%TD*%
%TA.AperFunction,SMDPad,CuDef*%
%ADD13RoundRect,0.162500X-0.650000X-0.162500X0.650000X-0.162500X0.650000X0.162500X-0.650000X0.162500X0*%
%TD*%
%TA.AperFunction,ComponentPad*%
%ADD14R,1.700000X1.700000*%
%TD*%
%TA.AperFunction,ComponentPad*%
%ADD15C,1.700000*%
%TD*%
%TA.AperFunction,SMDPad,CuDef*%
%ADD16RoundRect,0.150000X-0.512500X-0.150000X0.512500X-0.150000X0.512500X0.150000X-0.512500X0.150000X0*%
%TD*%
%TA.AperFunction,SMDPad,CuDef*%
%ADD17RoundRect,0.050000X-0.387500X-0.050000X0.387500X-0.050000X0.387500X0.050000X-0.387500X0.050000X0*%
%TD*%
%TA.AperFunction,SMDPad,CuDef*%
%ADD18RoundRect,0.050000X-0.050000X-0.387500X0.050000X-0.387500X0.050000X0.387500X-0.050000X0.387500X0*%
%TD*%
%TA.AperFunction,HeatsinkPad*%
%ADD19R,3.200000X3.200000*%
%TD*%
%TA.AperFunction,SMDPad,CuDef*%
%ADD20RoundRect,0.135000X-0.135000X-0.185000X0.135000X-0.185000X0.135000X0.185000X-0.135000X0.185000X0*%
%TD*%
%TA.AperFunction,SMDPad,CuDef*%
%ADD21RoundRect,0.150000X0.425000X-0.150000X0.425000X0.150000X-0.425000X0.150000X-0.425000X-0.150000X0*%
%TD*%
%TA.AperFunction,SMDPad,CuDef*%
%ADD22RoundRect,0.075000X0.500000X-0.075000X0.500000X0.075000X-0.500000X0.075000X-0.500000X-0.075000X0*%
%TD*%
%TA.AperFunction,HeatsinkPad*%
%ADD23O,2.100000X1.000000*%
%TD*%
%TA.AperFunction,HeatsinkPad*%
%ADD24O,1.800000X1.000000*%
%TD*%
%TA.AperFunction,SMDPad,CuDef*%
%ADD25RoundRect,0.250000X-0.450000X-0.350000X0.450000X-0.350000X0.450000X0.350000X-0.450000X0.350000X0*%
%TD*%
%TA.AperFunction,ViaPad*%
%ADD26C,0.600000*%
%TD*%
%TA.AperFunction,Conductor*%
%ADD27C,0.500000*%
%TD*%
%TA.AperFunction,Conductor*%
%ADD28C,0.150000*%
%TD*%
%TA.AperFunction,Conductor*%
%ADD29C,0.200000*%
%TD*%
%TA.AperFunction,Conductor*%
%ADD30C,0.100000*%
%TD*%
G04 APERTURE END LIST*
D10*
%TO.P,C4,1*%
%TO.N,GND*%
X253617500Y-63910000D03*
%TO.P,C4,2*%
%TO.N,+3.3V*%
X254577500Y-63910000D03*
%TD*%
%TO.P,C8,1*%
%TO.N,GND*%
X256487500Y-61940000D03*
%TO.P,C8,2*%
%TO.N,+3.3V*%
X257447500Y-61940000D03*
%TD*%
%TO.P,C2,1*%
%TO.N,GND*%
X256347500Y-65970000D03*
%TO.P,C2,2*%
%TO.N,Net-(U2-BP)*%
X257307500Y-65970000D03*
%TD*%
D11*
%TO.P,J2,1,Pin_1*%
%TO.N,/TE_BOT*%
X259600000Y-22085000D03*
%TO.P,J2,2,Pin_2*%
%TO.N,+3.3V*%
X259600000Y-20900000D03*
%TO.P,J2,3,Pin_3*%
%TO.N,/RST*%
X259950000Y-22085000D03*
%TO.P,J2,4,Pin_4*%
%TO.N,/MOSI*%
X259950000Y-20900000D03*
%TO.P,J2,5,Pin_5*%
%TO.N,/DCX_BOT*%
X260300000Y-22085000D03*
%TO.P,J2,6,Pin_6*%
%TO.N,/SCL*%
X260300000Y-20900000D03*
%TO.P,J2,7,Pin_7*%
%TO.N,/CS_BOT*%
X260650000Y-22085000D03*
%TO.P,J2,8,Pin_8*%
%TO.N,GND*%
X260650000Y-20900000D03*
%TO.P,J2,9,Pin_9*%
X261000000Y-22085000D03*
%TO.P,J2,10,Pin_10*%
%TO.N,unconnected-(J2-Pin_10-Pad10)*%
X261000000Y-20900000D03*
%TO.P,J2,11,Pin_11*%
%TO.N,unconnected-(J2-Pin_11-Pad11)*%
X261350000Y-22085000D03*
%TO.P,J2,12,Pin_12*%
%TO.N,unconnected-(J2-Pin_12-Pad12)*%
X261350000Y-20900000D03*
%TO.P,J2,13,Pin_13*%
%TO.N,unconnected-(J2-Pin_13-Pad13)*%
X261700000Y-22085000D03*
%TO.P,J2,14,Pin_14*%
%TO.N,GND*%
X261700000Y-20900000D03*
%TO.P,J2,15,Pin_15*%
X262050000Y-22085000D03*
%TO.P,J2,16,Pin_16*%
%TO.N,+1V8*%
X262050000Y-20900000D03*
%TO.P,J2,17,Pin_17*%
%TO.N,+3.3V*%
X262400000Y-22085000D03*
%TO.P,J2,18,Pin_18*%
%TO.N,GND*%
X262400000Y-20900000D03*
%TO.P,J2,19,Pin_19*%
%TO.N,unconnected-(J2-Pin_19-Pad19)*%
X262750000Y-22085000D03*
%TO.P,J2,20,Pin_20*%
%TO.N,unconnected-(J2-Pin_20-Pad20)*%
X262750000Y-20900000D03*
%TO.P,J2,21,Pin_21*%
%TO.N,unconnected-(J2-Pin_21-Pad21)*%
X263100000Y-22085000D03*
%TO.P,J2,22,Pin_22*%
%TO.N,unconnected-(J2-Pin_22-Pad22)*%
X263100000Y-20900000D03*
%TO.P,J2,23,Pin_23*%
%TO.N,GND*%
X263450000Y-22085000D03*
%TO.P,J2,24,Pin_24*%
X263450000Y-20900000D03*
D12*
%TO.P,J2,MP1*%
%TO.N,N/C*%
X259010000Y-21168000D03*
%TO.P,J2,MP2*%
X264040000Y-21168000D03*
%TO.P,J2,MP3*%
X264040000Y-21818000D03*
%TO.P,J2,MP4*%
X259010000Y-21818000D03*
%TD*%
D13*
%TO.P,U4,1,~{CS}*%
%TO.N,/FLASH_CS*%
X254250000Y-42440000D03*
%TO.P,U4,2,DO/IO_{1}*%
%TO.N,/FLASH_MISO*%
X254250000Y-43710000D03*
%TO.P,U4,3,~{WP}/IO_{2}*%
%TO.N,+3.3V*%
X254250000Y-44980000D03*
%TO.P,U4,4,GND*%
%TO.N,GND*%
X254250000Y-46250000D03*
%TO.P,U4,5,DI/IO_{0}*%
%TO.N,/FLASH_MOSI*%
X261425000Y-46250000D03*
%TO.P,U4,6,CLK*%
%TO.N,/FLASH_CLK*%
X261425000Y-44980000D03*
%TO.P,U4,7,~{HOLD}/~{RESET}/IO_{3}*%
%TO.N,+3.3V*%
X261425000Y-43710000D03*
%TO.P,U4,8,VCC*%
X261425000Y-42440000D03*
%TD*%
D14*
%TO.P,J4,1,Pin_1*%
%TO.N,GND*%
X246500000Y-29010000D03*
D15*
%TO.P,J4,2,Pin_2*%
X246500000Y-31550000D03*
%TO.P,J4,3,Pin_3*%
%TO.N,+3.3V*%
X246500000Y-34090000D03*
%TO.P,J4,4,Pin_4*%
X246500000Y-36630000D03*
%TO.P,J4,5,Pin_5*%
%TO.N,/SCL*%
X246500000Y-39170000D03*
%TO.P,J4,6,Pin_6*%
%TO.N,/MOSI*%
X246500000Y-41710000D03*
%TO.P,J4,7,Pin_7*%
%TO.N,/UART_TX*%
X246500000Y-44250000D03*
%TO.P,J4,8,Pin_8*%
%TO.N,/UART_RX*%
X246500000Y-46790000D03*
%TO.P,J4,9,Pin_9*%
%TO.N,/RST*%
X246500000Y-49330000D03*
%TO.P,J4,10,Pin_10*%
%TO.N,/VSYNC*%
X246500000Y-51870000D03*
%TD*%
D16*
%TO.P,U2,1,VIN*%
%TO.N,+5V*%
X259840000Y-59000000D03*
%TO.P,U2,2,GND*%
%TO.N,GND*%
X259840000Y-59950000D03*
%TO.P,U2,3,ON/~{OFF}*%
%TO.N,+5V*%
X259840000Y-60900000D03*
%TO.P,U2,4,BP*%
%TO.N,Net-(U2-BP)*%
X262115000Y-60900000D03*
%TO.P,U2,5,VOUT*%
%TO.N,+3.3V*%
X262115000Y-59000000D03*
%TD*%
D10*
%TO.P,C10,1*%
%TO.N,Net-(U1-XIN)*%
X248770000Y-62000000D03*
%TO.P,C10,2*%
%TO.N,GND*%
X249730000Y-62000000D03*
%TD*%
D17*
%TO.P,U1,1,IOVDD*%
%TO.N,+3.3V*%
X254562500Y-31400000D03*
%TO.P,U1,2,GPIO0*%
%TO.N,/UART_TX*%
X254562500Y-31800000D03*
%TO.P,U1,3,GPIO1*%
%TO.N,/UART_RX*%
X254562500Y-32200000D03*
%TO.P,U1,4,GPIO2*%
%TO.N,/SCL*%
X254562500Y-32600000D03*
%TO.P,U1,5,GPIO3*%
%TO.N,/MOSI*%
X254562500Y-33000000D03*
%TO.P,U1,6,GPIO4*%
%TO.N,unconnected-(U1-GPIO4-Pad6)*%
X254562500Y-33400000D03*
%TO.P,U1,7,GPIO5*%
%TO.N,/CS_TOP*%
X254562500Y-33800000D03*
%TO.P,U1,8,GPIO6*%
%TO.N,/CS_BOT*%
X254562500Y-34200000D03*
%TO.P,U1,9,GPIO7*%
%TO.N,/DCX_TOP*%
X254562500Y-34600000D03*
%TO.P,U1,10,IOVDD*%
%TO.N,+3.3V*%
X254562500Y-35000000D03*
%TO.P,U1,11,GPIO8*%
%TO.N,/DCX_BOT*%
X254562500Y-35400000D03*
%TO.P,U1,12,GPIO9*%
%TO.N,/RST*%
X254562500Y-35800000D03*
%TO.P,U1,13,GPIO10*%
%TO.N,/TE_TOP*%
X254562500Y-36200000D03*
%TO.P,U1,14,GPIO11*%
%TO.N,/TE_BOT*%
X254562500Y-36600000D03*
D18*
%TO.P,U1,15,GPIO12*%
%TO.N,/VSYNC*%
X255400000Y-37437500D03*
%TO.P,U1,16,GPIO13*%
%TO.N,unconnected-(U1-GPIO13-Pad16)*%
X255800000Y-37437500D03*
%TO.P,U1,17,GPIO14*%
%TO.N,unconnected-(U1-GPIO14-Pad17)*%
X256200000Y-37437500D03*
%TO.P,U1,18,GPIO15*%
%TO.N,unconnected-(U1-GPIO15-Pad18)*%
X256600000Y-37437500D03*
%TO.P,U1,19,TESTEN*%
%TO.N,GND*%
X257000000Y-37437500D03*
%TO.P,U1,20,XIN*%
%TO.N,Net-(U1-XIN)*%
X257400000Y-37437500D03*
%TO.P,U1,21,XOUT*%
%TO.N,Net-(U1-XOUT)*%
X257800000Y-37437500D03*
%TO.P,U1,22,IOVDD*%
%TO.N,+3.3V*%
X258200000Y-37437500D03*
%TO.P,U1,23,DVDD*%
X258600000Y-37437500D03*
%TO.P,U1,24,SWCLK*%
%TO.N,unconnected-(U1-SWCLK-Pad24)*%
X259000000Y-37437500D03*
%TO.P,U1,25,SWDIO*%
%TO.N,unconnected-(U1-SWDIO-Pad25)*%
X259400000Y-37437500D03*
%TO.P,U1,26,RUN*%
%TO.N,+3.3V*%
X259800000Y-37437500D03*
%TO.P,U1,27,GPIO16*%
%TO.N,unconnected-(U1-GPIO16-Pad27)*%
X260200000Y-37437500D03*
%TO.P,U1,28,GPIO17*%
%TO.N,/FLASH_CS*%
X260600000Y-37437500D03*
D17*
%TO.P,U1,29,GPIO18*%
%TO.N,/FLASH_CLK*%
X261437500Y-36600000D03*
%TO.P,U1,30,GPIO19*%
%TO.N,/FLASH_MOSI*%
X261437500Y-36200000D03*
%TO.P,U1,31,GPIO20*%
%TO.N,/FLASH_MISO*%
X261437500Y-35800000D03*
%TO.P,U1,32,GPIO21*%
%TO.N,unconnected-(U1-GPIO21-Pad32)*%
X261437500Y-35400000D03*
%TO.P,U1,33,IOVDD*%
%TO.N,+3.3V*%
X261437500Y-35000000D03*
%TO.P,U1,34,GPIO22*%
%TO.N,unconnected-(U1-GPIO22-Pad34)*%
X261437500Y-34600000D03*
%TO.P,U1,35,GPIO23*%
%TO.N,unconnected-(U1-GPIO23-Pad35)*%
X261437500Y-34200000D03*
%TO.P,U1,36,GPIO24*%
%TO.N,unconnected-(U1-GPIO24-Pad36)*%
X261437500Y-33800000D03*
%TO.P,U1,37,GPIO25*%
%TO.N,unconnected-(U1-GPIO25-Pad37)*%
X261437500Y-33400000D03*
%TO.P,U1,38,GPIO26/ADC0*%
%TO.N,unconnected-(U1-GPIO26{slash}ADC0-Pad38)*%
X261437500Y-33000000D03*
%TO.P,U1,39,GPIO27/ADC1*%
%TO.N,unconnected-(U1-GPIO27{slash}ADC1-Pad39)*%
X261437500Y-32600000D03*
%TO.P,U1,40,GPIO28/ADC2*%
%TO.N,unconnected-(U1-GPIO28{slash}ADC2-Pad40)*%
X261437500Y-32200000D03*
%TO.P,U1,41,GPIO29/ADC3*%
%TO.N,unconnected-(U1-GPIO29{slash}ADC3-Pad41)*%
X261437500Y-31800000D03*
%TO.P,U1,42,IOVDD*%
%TO.N,+3.3V*%
X261437500Y-31400000D03*
D18*
%TO.P,U1,43,ADC_AVDD*%
X260600000Y-30562500D03*
%TO.P,U1,44,VREG_VIN*%
X260200000Y-30562500D03*
%TO.P,U1,45,VREG_VOUT*%
%TO.N,unconnected-(U1-VREG_VOUT-Pad45)*%
X259800000Y-30562500D03*
%TO.P,U1,46,USB_DM*%
%TO.N,/USB_DM*%
X259400000Y-30562500D03*
%TO.P,U1,47,USB_DP*%
%TO.N,/USB_DP*%
X259000000Y-30562500D03*
%TO.P,U1,48,USB_VDD*%
%TO.N,+3.3V*%
X258600000Y-30562500D03*
%TO.P,U1,49,IOVDD*%
X258200000Y-30562500D03*
%TO.P,U1,50,DVDD*%
X257800000Y-30562500D03*
%TO.P,U1,51,QSPI_SD3*%
%TO.N,unconnected-(U1-QSPI_SD3-Pad51)*%
X257400000Y-30562500D03*
%TO.P,U1,52,QSPI_SCLK*%
%TO.N,/FLASH_CLK*%
X257000000Y-30562500D03*
%TO.P,U1,53,QSPI_SD0*%
%TO.N,/FLASH_MOSI*%
X256600000Y-30562500D03*
%TO.P,U1,54,QSPI_SD2*%
%TO.N,unconnected-(U1-QSPI_SD2-Pad54)*%
X256200000Y-30562500D03*
%TO.P,U1,55,QSPI_SD1*%
%TO.N,/FLASH_MISO*%
X255800000Y-30562500D03*
%TO.P,U1,56,~{QSPI_SS}*%
%TO.N,/FLASH_CS*%
X255400000Y-30562500D03*
D19*
%TO.P,U1,57,GND*%
%TO.N,GND*%
X258000000Y-34000000D03*
%TD*%
D20*
%TO.P,R1,1*%
%TO.N,GND*%
X250480000Y-44260000D03*
%TO.P,R1,2*%
%TO.N,Net-(J3-CC1)*%
X251500000Y-44260000D03*
%TD*%
D10*
%TO.P,C9,1*%
%TO.N,Net-(U1-XOUT)*%
X248770000Y-60030000D03*
%TO.P,C9,2*%
%TO.N,GND*%
X249730000Y-60030000D03*
%TD*%
%TO.P,C6,1*%
%TO.N,GND*%
X256487500Y-59000000D03*
%TO.P,C6,2*%
%TO.N,+3.3V*%
X257447500Y-59000000D03*
%TD*%
%TO.P,C7,1*%
%TO.N,GND*%
X256487500Y-59970000D03*
%TO.P,C7,2*%
%TO.N,+3.3V*%
X257447500Y-59970000D03*
%TD*%
%TO.P,C5,1*%
%TO.N,GND*%
X253617500Y-65880000D03*
%TO.P,C5,2*%
%TO.N,+3.3V*%
X254577500Y-65880000D03*
%TD*%
D20*
%TO.P,R2,1*%
%TO.N,Net-(J3-CC2)*%
X250480000Y-46250000D03*
%TO.P,R2,2*%
%TO.N,GND*%
X251500000Y-46250000D03*
%TD*%
D10*
%TO.P,C3,1*%
%TO.N,GND*%
X253617500Y-61940000D03*
%TO.P,C3,2*%
%TO.N,+3.3V*%
X254577500Y-61940000D03*
%TD*%
D16*
%TO.P,U3,1,VIN*%
%TO.N,+5V*%
X259840000Y-63090000D03*
%TO.P,U3,2,GND*%
%TO.N,GND*%
X259840000Y-64040000D03*
%TO.P,U3,3,ON/~{OFF}*%
%TO.N,+5V*%
X259840000Y-64990000D03*
%TO.P,U3,4,BP*%
%TO.N,Net-(U3-BP)*%
X262115000Y-64990000D03*
%TO.P,U3,5,VOUT*%
%TO.N,+1V8*%
X262115000Y-63090000D03*
%TD*%
D21*
%TO.P,J3,A1,GND*%
%TO.N,GND*%
X257745000Y-55880000D03*
%TO.P,J3,A4,VBUS*%
%TO.N,+5V*%
X257745000Y-55080000D03*
D22*
%TO.P,J3,A5,CC1*%
%TO.N,Net-(J3-CC1)*%
X257745000Y-53930000D03*
%TO.P,J3,A6,D+*%
%TO.N,/USB_DP*%
X257745000Y-52930000D03*
%TO.P,J3,A7,D-*%
%TO.N,/USB_DM*%
X257745000Y-52430000D03*
%TO.P,J3,A8,SBU1*%
%TO.N,unconnected-(J3-SBU1-PadA8)*%
X257745000Y-51430000D03*
D21*
%TO.P,J3,A9,VBUS*%
%TO.N,+5V*%
X257745000Y-50280000D03*
%TO.P,J3,A12,GND*%
%TO.N,GND*%
X257745000Y-49480000D03*
%TO.P,J3,B1,GND*%
X257745000Y-49480000D03*
%TO.P,J3,B4,VBUS*%
%TO.N,+5V*%
X257745000Y-50280000D03*
D22*
%TO.P,J3,B5,CC2*%
%TO.N,Net-(J3-CC2)*%
X257745000Y-50930000D03*
%TO.P,J3,B6,D+*%
%TO.N,unconnected-(J3-D+-PadB6)*%
X257745000Y-51930000D03*
%TO.P,J3,B7,D-*%
%TO.N,unconnected-(J3-D--PadB7)*%
X257745000Y-53430000D03*
%TO.P,J3,B8,SBU2*%
%TO.N,unconnected-(J3-SBU2-PadB8)*%
X257745000Y-54430000D03*
D21*
%TO.P,J3,B9,VBUS*%
%TO.N,+5V*%
X257745000Y-55080000D03*
%TO.P,J3,B12,GND*%
%TO.N,GND*%
X257745000Y-55880000D03*
D23*
%TO.P,J3,S1,SHIELD*%
%TO.N,unconnected-(J3-SHIELD-PadS1)_1*%
X258320000Y-57000000D03*
D24*
%TO.N,unconnected-(J3-SHIELD-PadS1)*%
X262500000Y-57000000D03*
D23*
%TO.N,unconnected-(J3-SHIELD-PadS1)_2*%
X258320000Y-48360000D03*
D24*
%TO.N,unconnected-(J3-SHIELD-PadS1)_3*%
X262500000Y-48360000D03*
%TD*%
D11*
%TO.P,J1,1,Pin_1*%
%TO.N,/TE_TOP*%
X251075000Y-22092000D03*
%TO.P,J1,2,Pin_2*%
%TO.N,+3.3V*%
X251075000Y-20907000D03*
%TO.P,J1,3,Pin_3*%
%TO.N,/RST*%
X251425000Y-22092000D03*
%TO.P,J1,4,Pin_4*%
%TO.N,/MOSI*%
X251425000Y-20907000D03*
%TO.P,J1,5,Pin_5*%
%TO.N,/DCX_TOP*%
X251775000Y-22092000D03*
%TO.P,J1,6,Pin_6*%
%TO.N,/SCL*%
X251775000Y-20907000D03*
%TO.P,J1,7,Pin_7*%
%TO.N,/CS_TOP*%
X252125000Y-22092000D03*
%TO.P,J1,8,Pin_8*%
%TO.N,GND*%
X252125000Y-20907000D03*
%TO.P,J1,9,Pin_9*%
X252475000Y-22092000D03*
%TO.P,J1,10,Pin_10*%
%TO.N,unconnected-(J1-Pin_10-Pad10)*%
X252475000Y-20907000D03*
%TO.P,J1,11,Pin_11*%
%TO.N,unconnected-(J1-Pin_11-Pad11)*%
X252825000Y-22092000D03*
%TO.P,J1,12,Pin_12*%
%TO.N,unconnected-(J1-Pin_12-Pad12)*%
X252825000Y-20907000D03*
%TO.P,J1,13,Pin_13*%
%TO.N,unconnected-(J1-Pin_13-Pad13)*%
X253175000Y-22092000D03*
%TO.P,J1,14,Pin_14*%
%TO.N,GND*%
X253175000Y-20907000D03*
%TO.P,J1,15,Pin_15*%
X253525000Y-22092000D03*
%TO.P,J1,16,Pin_16*%
%TO.N,+1V8*%
X253525000Y-20907000D03*
%TO.P,J1,17,Pin_17*%
%TO.N,+3.3V*%
X253875000Y-22092000D03*
%TO.P,J1,18,Pin_18*%
%TO.N,GND*%
X253875000Y-20907000D03*
%TO.P,J1,19,Pin_19*%
%TO.N,unconnected-(J1-Pin_19-Pad19)*%
X254225000Y-22092000D03*
%TO.P,J1,20,Pin_20*%
%TO.N,unconnected-(J1-Pin_20-Pad20)*%
X254225000Y-20907000D03*
%TO.P,J1,21,Pin_21*%
%TO.N,unconnected-(J1-Pin_21-Pad21)*%
X254575000Y-22092000D03*
%TO.P,J1,22,Pin_22*%
%TO.N,unconnected-(J1-Pin_22-Pad22)*%
X254575000Y-20907000D03*
%TO.P,J1,23,Pin_23*%
%TO.N,GND*%
X254925000Y-22092000D03*
%TO.P,J1,24,Pin_24*%
X254925000Y-20907000D03*
D12*
%TO.P,J1,MP1*%
%TO.N,N/C*%
X250485000Y-21175000D03*
%TO.P,J1,MP2*%
X255515000Y-21175000D03*
%TO.P,J1,MP3*%
X255515000Y-21825000D03*
%TO.P,J1,MP4*%
X250485000Y-21825000D03*
%TD*%
D25*
%TO.P,Y1,1,1*%
%TO.N,Net-(U1-XIN)*%
X248050000Y-57500000D03*
%TO.P,Y1,2,2*%
%TO.N,Net-(U1-XOUT)*%
X250250000Y-57500000D03*
%TO.P,Y1,3*%
%TO.N,N/C*%
X250250000Y-55800000D03*
%TO.P,Y1,4*%
X248050000Y-55800000D03*
%TD*%
D10*
%TO.P,C1,1*%
%TO.N,GND*%
X256270000Y-64250000D03*
%TO.P,C1,2*%
%TO.N,Net-(U3-BP)*%
X257230000Y-64250000D03*
%TD*%
D26*
%TO.N,+5V*%
X257745000Y-55080000D03*
%TO.N,/USB_DP*%
X254048459Y-50851548D03*
X253500000Y-48750000D03*
%TO.N,Net-(J3-CC2)*%
X256075000Y-51000000D03*
X255963414Y-53536586D03*
X254000000Y-52500000D03*
%TO.N,Net-(J3-CC1)*%
X254088665Y-51704927D03*
%TO.N,GND*%
X249000000Y-41750000D03*
X255500000Y-63500000D03*
X256250000Y-44000000D03*
X259840000Y-59950000D03*
X254800000Y-48750000D03*
X257750000Y-63250000D03*
X258415540Y-22710311D03*
X249000000Y-45000000D03*
X256366500Y-65970000D03*
X259750000Y-41000000D03*
X248987925Y-39705124D03*
X261500000Y-20000000D03*
X254894334Y-66666712D03*
X248950000Y-36500000D03*
X259840000Y-64040000D03*
X254033687Y-46652813D03*
X255500000Y-45500000D03*
X253262091Y-24262091D03*
X256250000Y-42250000D03*
X252957923Y-26291557D03*
X251500000Y-46250000D03*
X261100000Y-41207952D03*
X248500000Y-31250000D03*
X244849000Y-26250000D03*
X263799265Y-34200735D03*
X258000000Y-34000000D03*
%TO.N,+3.3V*%
X254076871Y-27150000D03*
X263200000Y-38250000D03*
X256500000Y-29250000D03*
X262750000Y-51250000D03*
X262790861Y-34889391D03*
X258400000Y-29075000D03*
X262750000Y-23000000D03*
X259400000Y-20325000D03*
X250799806Y-20478012D03*
X253674252Y-23424252D03*
X261250000Y-29850000D03*
X253284287Y-45342976D03*
X255723000Y-31500000D03*
X261150000Y-42440000D03*
X255899998Y-35226953D03*
X260250000Y-28000000D03*
X258000000Y-36250000D03*
%TO.N,Net-(U1-XOUT)*%
X250250000Y-53000000D03*
X256250000Y-41000000D03*
%TO.N,Net-(U1-XIN)*%
X257048231Y-40946785D03*
X250956734Y-51645810D03*
%TO.N,/TE_TOP*%
X252750000Y-36250000D03*
X250250000Y-23000000D03*
%TO.N,/RST*%
X247750000Y-24250000D03*
X259857772Y-24465544D03*
X256420783Y-36515085D03*
X251325000Y-24764296D03*
%TO.N,/SCL*%
X258574176Y-25488998D03*
X256500000Y-20250000D03*
X260573074Y-18952970D03*
X257825000Y-23250000D03*
X249298000Y-37500315D03*
X255900000Y-33408054D03*
%TO.N,/DCX_TOP*%
X252923011Y-33735504D03*
X251900000Y-25406616D03*
%TO.N,+1V8*%
X248950000Y-25250000D03*
X247361091Y-22361091D03*
%TO.N,/CS_TOP*%
X252600000Y-31350000D03*
X252476000Y-24778689D03*
%TO.N,/MOSI*%
X255497936Y-34099681D03*
X257925001Y-26138172D03*
%TO.N,/CS_BOT*%
X252599999Y-33003611D03*
X260607772Y-25965544D03*
%TO.N,/DCX_BOT*%
X260250000Y-25250000D03*
X253666240Y-35538479D03*
%TO.N,/TE_BOT*%
X255500000Y-36500000D03*
X259500000Y-23750000D03*
%TO.N,+5V*%
X257745000Y-50280000D03*
X263500000Y-52750000D03*
%TO.N,Net-(J3-CC1)*%
X251750001Y-50313172D03*
%TO.N,Net-(J3-CC2)*%
X251184314Y-50878860D03*
X249359000Y-47500000D03*
X250509000Y-47500000D03*
%TO.N,/VSYNC*%
X254850000Y-40250000D03*
X249000000Y-51750000D03*
%TO.N,/UART_RX*%
X251600000Y-41500000D03*
X252527000Y-30150000D03*
X248750000Y-46750000D03*
X253223001Y-32000000D03*
%TO.N,/UART_TX*%
X256154781Y-28404781D03*
X255899998Y-32500000D03*
X252600501Y-27007272D03*
X252527000Y-28650000D03*
%TO.N,/FLASH_MISO*%
X262354771Y-35600001D03*
X262450000Y-39000000D03*
X258969669Y-43280331D03*
X257260298Y-43000000D03*
%TO.N,/FLASH_CLK*%
X263249000Y-45000000D03*
X260477639Y-31495432D03*
X262250000Y-37500000D03*
%TO.N,/FLASH_CS*%
X260449000Y-38750000D03*
X259000000Y-40250000D03*
X259250000Y-38750000D03*
X256747017Y-39491051D03*
%TD*%
D27*
%TO.N,+5V*%
X262878400Y-60121600D02*
X261185000Y-60121600D01*
X264000000Y-59000000D02*
X262878400Y-60121600D01*
X264000000Y-53250000D02*
X264000000Y-59000000D01*
X263500000Y-52750000D02*
X264000000Y-53250000D01*
D28*
%TO.N,/UART_TX*%
X248750000Y-44250000D02*
X246500000Y-44250000D01*
X249874000Y-43126000D02*
X248750000Y-44250000D01*
X249874000Y-28094256D02*
X249874000Y-43126000D01*
X250960984Y-27007272D02*
X249874000Y-28094256D01*
X252600501Y-27007272D02*
X250960984Y-27007272D01*
D27*
%TO.N,+3.3V*%
X257447500Y-58500000D02*
X257447500Y-59000000D01*
X257447500Y-59000000D02*
X257447500Y-59970000D01*
%TO.N,GND*%
X255530000Y-49480000D02*
X257745000Y-49480000D01*
X254800000Y-48750000D02*
X255530000Y-49480000D01*
X254380000Y-55880000D02*
X257745000Y-55880000D01*
X253201000Y-49500000D02*
X253201000Y-54701000D01*
X253201000Y-54701000D02*
X254380000Y-55880000D01*
X254800000Y-48750000D02*
X254050000Y-49500000D01*
X254050000Y-49500000D02*
X253201000Y-49500000D01*
D29*
%TO.N,/USB_DP*%
X255057724Y-50851548D02*
X257136176Y-52930000D01*
X254048459Y-50851548D02*
X255057724Y-50851548D01*
X257136176Y-52930000D02*
X257745000Y-52930000D01*
D28*
%TO.N,Net-(J3-CC1)*%
X257170001Y-53930000D02*
X257745000Y-53930000D01*
X256539414Y-53299413D02*
X257170001Y-53930000D01*
X256539414Y-53297998D02*
X256539414Y-53299413D01*
X256202002Y-52960586D02*
X256539414Y-53297998D01*
X255145388Y-52149000D02*
X255256388Y-52259999D01*
X255256388Y-52259999D02*
X255500000Y-52259999D01*
X255500000Y-52259999D02*
X256200587Y-52960586D01*
X254532738Y-52149000D02*
X255145388Y-52149000D01*
X256200587Y-52960586D02*
X256202002Y-52960586D01*
X254088665Y-51704927D02*
X254532738Y-52149000D01*
%TO.N,Net-(J3-CC2)*%
X254000000Y-52500000D02*
X255000000Y-52500000D01*
X255963414Y-53463414D02*
X255963414Y-53536586D01*
X255000000Y-52500000D02*
X255963414Y-53463414D01*
D29*
%TO.N,/USB_DP*%
X254750000Y-47500000D02*
X253500000Y-48750000D01*
X255500000Y-47500000D02*
X254750000Y-47500000D01*
X255500000Y-46279232D02*
X255500000Y-47500000D01*
X255678232Y-46101000D02*
X255500000Y-46279232D01*
X255748943Y-46101000D02*
X255678232Y-46101000D01*
X255748943Y-44899000D02*
X256101000Y-45251057D01*
X255500000Y-44899000D02*
X255748943Y-44899000D01*
X255354000Y-44354000D02*
X255500000Y-44500000D01*
X252969800Y-44354000D02*
X255354000Y-44354000D01*
X250250000Y-41634200D02*
X252969800Y-44354000D01*
X250250000Y-28250000D02*
X250250000Y-41634200D01*
X250500000Y-28000000D02*
X250250000Y-28250000D01*
X252895256Y-27750000D02*
X252645256Y-28000000D01*
X253826928Y-27750000D02*
X252895256Y-27750000D01*
X253827928Y-27751000D02*
X253826928Y-27750000D01*
X256101000Y-45251057D02*
X256101000Y-45748943D01*
X254325814Y-27751000D02*
X253827928Y-27751000D01*
X254326814Y-27750000D02*
X254325814Y-27751000D01*
X255791306Y-27750000D02*
X254326814Y-27750000D01*
X255875462Y-27834157D02*
X255791306Y-27750000D01*
X255905838Y-27803781D02*
X255875462Y-27834157D01*
X256706505Y-27501000D02*
X256403724Y-27803781D01*
X259254612Y-27501000D02*
X256706505Y-27501000D01*
X259649000Y-27895388D02*
X259254612Y-27501000D01*
X255500000Y-44500000D02*
X255500000Y-44899000D01*
X259950029Y-28549971D02*
X259649000Y-28248943D01*
X252645256Y-28000000D02*
X250500000Y-28000000D01*
X259649000Y-28248943D02*
X259649000Y-27895388D01*
X256101000Y-45748943D02*
X255748943Y-46101000D01*
X259375000Y-28750000D02*
X259750000Y-28750000D01*
X256403724Y-27803781D02*
X255905838Y-27803781D01*
X259000000Y-29125000D02*
X259375000Y-28750000D01*
X259750000Y-28750000D02*
X259950029Y-28549971D01*
X259000000Y-30562500D02*
X259000000Y-29125000D01*
D28*
%TO.N,Net-(J3-CC2)*%
X256145000Y-50930000D02*
X257745000Y-50930000D01*
X256075000Y-51000000D02*
X256145000Y-50930000D01*
D27*
%TO.N,GND*%
X254033687Y-46466313D02*
X254250000Y-46250000D01*
X254033687Y-46652813D02*
X254033687Y-46466313D01*
X258011298Y-43311075D02*
X258011298Y-42738702D01*
X257571373Y-43751000D02*
X258011298Y-43311075D01*
X257253174Y-43751000D02*
X257571373Y-43751000D01*
X256474000Y-43776000D02*
X257228174Y-43776000D01*
X257228174Y-43776000D02*
X257253174Y-43751000D01*
X258011298Y-42738702D02*
X258255149Y-42494851D01*
X256250000Y-44000000D02*
X256474000Y-43776000D01*
X256487500Y-59000000D02*
X256487500Y-59970000D01*
%TO.N,Net-(U2-BP)*%
X260376600Y-65970000D02*
X257307500Y-65970000D01*
X260953500Y-65393100D02*
X260376600Y-65970000D01*
X260953500Y-62734900D02*
X260953500Y-65393100D01*
X262115000Y-61573400D02*
X260953500Y-62734900D01*
X262115000Y-60900000D02*
X262115000Y-61573400D01*
%TO.N,+3.3V*%
X262115000Y-58465000D02*
X262115000Y-59000000D01*
X260650000Y-57000000D02*
X262115000Y-58465000D01*
X260250000Y-57000000D02*
X260650000Y-57000000D01*
%TO.N,+5V*%
X260598400Y-59000000D02*
X259840000Y-59000000D01*
X261185000Y-59586600D02*
X260598400Y-59000000D01*
X260406600Y-60900000D02*
X259840000Y-60900000D01*
X261185000Y-60121600D02*
X260406600Y-60900000D01*
X261185000Y-59586600D02*
X261185000Y-60121600D01*
X259840000Y-60900000D02*
X259840000Y-63090000D01*
X259177501Y-64990000D02*
X259840000Y-64990000D01*
X258500000Y-64312499D02*
X259177501Y-64990000D01*
X258500000Y-61705000D02*
X258500000Y-64312499D01*
X259305000Y-60900000D02*
X258500000Y-61705000D01*
X259840000Y-60900000D02*
X259305000Y-60900000D01*
%TO.N,GND*%
X258255149Y-42494851D02*
X258010298Y-42250000D01*
D30*
X262593895Y-28347506D02*
X263799265Y-29552876D01*
D27*
X244898000Y-32250000D02*
X244898000Y-26299000D01*
D30*
X262238750Y-21488750D02*
X262208500Y-21458500D01*
X261100000Y-41207952D02*
X259958952Y-41207952D01*
X261709000Y-21440500D02*
X261700000Y-21449500D01*
X253175000Y-21314500D02*
X253525000Y-21664500D01*
X261709000Y-21458500D02*
X261709000Y-21440500D01*
D27*
X253617500Y-61940000D02*
X249790000Y-61940000D01*
X244898000Y-40401480D02*
X244898000Y-32250000D01*
D30*
X262059000Y-22643500D02*
X262050000Y-22634500D01*
X253184000Y-20898000D02*
X253175000Y-20907000D01*
X263450000Y-23800000D02*
X263000000Y-24250000D01*
X262208500Y-21458500D02*
X261709000Y-21458500D01*
X250480000Y-44260000D02*
X250490000Y-44260000D01*
X254925000Y-22092000D02*
X254925000Y-22641500D01*
D27*
X256270000Y-64250000D02*
X256270000Y-63940001D01*
D30*
X254925000Y-20907000D02*
X254925000Y-22092000D01*
X263000000Y-24250000D02*
X262250000Y-24250000D01*
X253516000Y-22650500D02*
X252966500Y-22650500D01*
D27*
X250500000Y-44250000D02*
X249750000Y-45000000D01*
X259750000Y-41000000D02*
X258255149Y-42494851D01*
X256270000Y-63940001D02*
X256721001Y-63489000D01*
X249158682Y-62761000D02*
X248381318Y-62761000D01*
D30*
X252957923Y-26291557D02*
X252948480Y-26301000D01*
X261691000Y-20909000D02*
X261691000Y-21458500D01*
X261700000Y-20350500D02*
X261700000Y-20900000D01*
X261691000Y-21458500D02*
X261141500Y-21458500D01*
X253184000Y-20348500D02*
X253184000Y-20898000D01*
X257000000Y-35000000D02*
X258000000Y-34000000D01*
X252125000Y-20907000D02*
X252125000Y-20357500D01*
X251206222Y-26301000D02*
X248500000Y-29007222D01*
D27*
X244898000Y-26299000D02*
X244849000Y-26250000D01*
D30*
X262210502Y-28347506D02*
X262593895Y-28347506D01*
D27*
X249750000Y-45000000D02*
X249000000Y-45000000D01*
D30*
X263450000Y-22085000D02*
X263450000Y-23800000D01*
D27*
X255277501Y-59970000D02*
X253617500Y-61630001D01*
D30*
X261009000Y-21526500D02*
X261000000Y-21535500D01*
D27*
X253617500Y-65880000D02*
X253617500Y-66189999D01*
D30*
X253875000Y-21314500D02*
X253525000Y-21664500D01*
D27*
X248950000Y-34000000D02*
X248950000Y-36500000D01*
D30*
X257000000Y-37437500D02*
X257000000Y-35000000D01*
X258415540Y-24552544D02*
X262210502Y-28347506D01*
X261700000Y-20900000D02*
X261691000Y-20909000D01*
X253175000Y-20907000D02*
X253175000Y-21314500D01*
X253875000Y-20907000D02*
X253875000Y-21314500D01*
X261000000Y-21535500D02*
X261000000Y-22085000D01*
D27*
X255500000Y-63500000D02*
X255520000Y-63500000D01*
D30*
X254925000Y-22641500D02*
X255079911Y-22796411D01*
D27*
X253617500Y-61630001D02*
X253617500Y-61940000D01*
D30*
X259958952Y-41207952D02*
X259751000Y-41000000D01*
X261700000Y-21449500D02*
X261700000Y-20900000D01*
X261141500Y-21458500D02*
X261073500Y-21526500D01*
X263450000Y-22085000D02*
X263450000Y-20900000D01*
X252750000Y-22867000D02*
X252750000Y-23750000D01*
D27*
X246500000Y-31550000D02*
X248950000Y-34000000D01*
D30*
X262050000Y-21677500D02*
X262050000Y-22085000D01*
X253525000Y-22092000D02*
X253516000Y-22101000D01*
X252125000Y-20357500D02*
X252134000Y-20348500D01*
X253525000Y-21664500D02*
X253525000Y-22092000D01*
X261000000Y-21677500D02*
X261000000Y-22085000D01*
X253614231Y-24262091D02*
X253262091Y-24262091D01*
D27*
X256250000Y-42250000D02*
X258010298Y-42250000D01*
X249000000Y-39717199D02*
X248987925Y-39705124D01*
D30*
X252948480Y-26301000D02*
X251206222Y-26301000D01*
D27*
X246500000Y-29010000D02*
X246500000Y-31550000D01*
X253617500Y-63910000D02*
X253617500Y-65880000D01*
D30*
X255079911Y-22796411D02*
X253614231Y-24262091D01*
D27*
X249730000Y-62189682D02*
X249158682Y-62761000D01*
X256487500Y-59970000D02*
X256487500Y-61940000D01*
D30*
X252134000Y-20348500D02*
X253184000Y-20348500D01*
X262250000Y-24250000D02*
X262059000Y-24059000D01*
X258415540Y-22710311D02*
X258415540Y-24552544D01*
X262400000Y-20900000D02*
X262400000Y-21327500D01*
D27*
X249730000Y-62000000D02*
X249730000Y-62189682D01*
X254094213Y-66666712D02*
X254894334Y-66666712D01*
D30*
X261073500Y-21526500D02*
X261009000Y-21526500D01*
D27*
X256487500Y-59970000D02*
X255277501Y-59970000D01*
D30*
X262050000Y-22634500D02*
X262050000Y-22085000D01*
D27*
X248381318Y-62761000D02*
X244898000Y-59277682D01*
X257511000Y-63489000D02*
X257750000Y-63250000D01*
X253617500Y-61940000D02*
X253617500Y-63910000D01*
X254250000Y-46250000D02*
X254750000Y-46250000D01*
D30*
X262400000Y-21327500D02*
X262238750Y-21488750D01*
D27*
X254750000Y-46250000D02*
X255500000Y-45500000D01*
X249000000Y-41750000D02*
X249000000Y-39717199D01*
D30*
X248500000Y-29007222D02*
X248500000Y-31250000D01*
X250490000Y-44260000D02*
X250500000Y-44250000D01*
X252966500Y-22650500D02*
X252750000Y-22867000D01*
X253516000Y-22101000D02*
X253516000Y-22650500D01*
X262059000Y-24059000D02*
X262059000Y-22643500D01*
D27*
X255520000Y-63500000D02*
X256270000Y-64250000D01*
X248500000Y-31250000D02*
X246800000Y-31250000D01*
D30*
X252475000Y-22092000D02*
X252475000Y-22592000D01*
D27*
X256721001Y-63489000D02*
X257511000Y-63489000D01*
D30*
X260650000Y-20900000D02*
X260650000Y-21327500D01*
X263799265Y-29552876D02*
X263799265Y-34200735D01*
D27*
X249790000Y-61940000D02*
X249730000Y-62000000D01*
D30*
X261500000Y-20150500D02*
X261700000Y-20350500D01*
D27*
X249730000Y-62000000D02*
X249730000Y-60030000D01*
X253617500Y-66189999D02*
X254094213Y-66666712D01*
D30*
X252750000Y-23750000D02*
X253262091Y-24262091D01*
D27*
X246800000Y-31250000D02*
X246500000Y-31550000D01*
D30*
X260650000Y-21327500D02*
X261000000Y-21677500D01*
D27*
X244898000Y-59277682D02*
X244898000Y-40401480D01*
D30*
X252475000Y-22592000D02*
X252750000Y-22867000D01*
X262238750Y-21488750D02*
X262050000Y-21677500D01*
X259751000Y-41000000D02*
X259750000Y-41000000D01*
X261500000Y-20000000D02*
X261500000Y-20150500D01*
D27*
%TO.N,Net-(U3-BP)*%
X262115000Y-65289999D02*
X260673999Y-66731000D01*
X255958818Y-66731000D02*
X255616500Y-66388682D01*
X260673999Y-66731000D02*
X255958818Y-66731000D01*
X255616500Y-65551318D02*
X256156818Y-65011000D01*
X262115000Y-64990000D02*
X262115000Y-65289999D01*
X257230000Y-64559999D02*
X257230000Y-64250000D01*
X256778999Y-65011000D02*
X257230000Y-64559999D01*
X255616500Y-66388682D02*
X255616500Y-65551318D01*
X256156818Y-65011000D02*
X256778999Y-65011000D01*
D30*
%TO.N,+3.3V*%
X261250000Y-29850000D02*
X260600000Y-30500000D01*
X254562500Y-31400000D02*
X255623000Y-31400000D01*
X262790861Y-34889391D02*
X262680252Y-35000000D01*
X254076871Y-27150000D02*
X254150000Y-27150000D01*
X261437500Y-31400000D02*
X261250000Y-31212500D01*
X261170768Y-39500000D02*
X259800000Y-39500000D01*
D27*
X256947499Y-62750000D02*
X257447500Y-62249999D01*
D30*
X261250000Y-29850000D02*
X260400000Y-29850000D01*
X254562500Y-35000000D02*
X255673045Y-35000000D01*
D27*
X246500000Y-36630000D02*
X246500000Y-34090000D01*
D30*
X259800000Y-36972936D02*
X259576064Y-36749000D01*
X258400000Y-29350000D02*
X258400000Y-29075000D01*
X258600000Y-36972936D02*
X258600000Y-37437500D01*
D27*
X254577500Y-65880000D02*
X254577500Y-62750000D01*
D30*
X262678232Y-38449000D02*
X262221768Y-38449000D01*
D27*
X263298000Y-39135925D02*
X263298000Y-40567000D01*
D30*
X260400000Y-29850000D02*
X260250000Y-30000000D01*
X258200000Y-30562500D02*
X258200000Y-29550000D01*
X261437500Y-35000000D02*
X262000000Y-35000000D01*
X259600000Y-20900000D02*
X259600000Y-20525000D01*
D27*
X257447500Y-62249999D02*
X257447500Y-61940000D01*
X260250000Y-53750000D02*
X262750000Y-51250000D01*
D30*
X251075000Y-20753206D02*
X250799806Y-20478012D01*
X256675000Y-29075000D02*
X258400000Y-29075000D01*
X262000000Y-35000000D02*
X262250000Y-34750000D01*
X262250000Y-34750000D02*
X262250000Y-31500000D01*
X258200000Y-29550000D02*
X258250000Y-29500000D01*
X258823936Y-36749000D02*
X258600000Y-36972936D01*
X262839616Y-38610384D02*
X262678232Y-38449000D01*
X258250000Y-29500000D02*
X258500000Y-29500000D01*
X258649000Y-30513500D02*
X258600000Y-30562500D01*
X262221768Y-38449000D02*
X261170768Y-39500000D01*
X263200000Y-38250000D02*
X262839616Y-38610384D01*
D27*
X263200000Y-38250000D02*
X263200000Y-39037925D01*
D30*
X258200000Y-37437500D02*
X258600000Y-37437500D01*
X260600000Y-30500000D02*
X260600000Y-30562500D01*
D27*
X263200000Y-39037925D02*
X263298000Y-39135925D01*
X261425000Y-43710000D02*
X261425000Y-42440000D01*
D30*
X255673045Y-35000000D02*
X255899998Y-35226953D01*
X258649000Y-29649000D02*
X258649000Y-30513500D01*
X262680252Y-35000000D02*
X262000000Y-35000000D01*
X256500000Y-29250000D02*
X256675000Y-29075000D01*
X253875000Y-22092000D02*
X253875000Y-23223504D01*
X258000000Y-29500000D02*
X258250000Y-29500000D01*
X258200000Y-36450000D02*
X258200000Y-37437500D01*
X262250000Y-31500000D02*
X262150000Y-31400000D01*
X254076871Y-27150000D02*
X259400000Y-27150000D01*
X257800000Y-30562500D02*
X257800000Y-29700000D01*
X262150000Y-31400000D02*
X261437500Y-31400000D01*
D27*
X263298000Y-40567000D02*
X261425000Y-42440000D01*
D30*
X253875000Y-23223504D02*
X253674252Y-23424252D01*
X254150000Y-27150000D02*
X254250000Y-27250000D01*
X262400000Y-22650000D02*
X262750000Y-23000000D01*
X258250000Y-29500000D02*
X258400000Y-29350000D01*
D27*
X254577500Y-62750000D02*
X254577500Y-61940000D01*
D30*
X260250000Y-30000000D02*
X260250000Y-30512500D01*
X259400000Y-27150000D02*
X260250000Y-28000000D01*
D27*
X254577500Y-62750000D02*
X256947499Y-62750000D01*
D30*
X262400000Y-22085000D02*
X262400000Y-22650000D01*
X259576064Y-36749000D02*
X258823936Y-36749000D01*
D27*
X260250000Y-57000000D02*
X260250000Y-53750000D01*
D30*
X259600000Y-20525000D02*
X259400000Y-20325000D01*
X261250000Y-31212500D02*
X261250000Y-29850000D01*
X251075000Y-20907000D02*
X251075000Y-20753206D01*
X258000000Y-36250000D02*
X258200000Y-36450000D01*
X255623000Y-31400000D02*
X255723000Y-31500000D01*
X257800000Y-29700000D02*
X258000000Y-29500000D01*
X258500000Y-29500000D02*
X258649000Y-29649000D01*
D27*
X257447500Y-59970000D02*
X257447500Y-61940000D01*
D30*
X260250000Y-30512500D02*
X260200000Y-30562500D01*
X259800000Y-37437500D02*
X259800000Y-36972936D01*
X259800000Y-39500000D02*
X259800000Y-37437500D01*
%TO.N,Net-(U1-XOUT)*%
X257701000Y-39974678D02*
X257701000Y-38001064D01*
X256750000Y-41500000D02*
X258000000Y-41500000D01*
X257751000Y-37486500D02*
X257800000Y-37437500D01*
D27*
X250250000Y-57500000D02*
X250348292Y-57500000D01*
D30*
X257976322Y-40250000D02*
X257701000Y-39974678D01*
X258000000Y-41500000D02*
X258000000Y-40250000D01*
D27*
X250348292Y-57500000D02*
X251401000Y-56447292D01*
D30*
X256250000Y-41000000D02*
X256750000Y-41500000D01*
D27*
X251401000Y-56447292D02*
X251401000Y-54151000D01*
D30*
X257751000Y-37951064D02*
X257751000Y-37486500D01*
D27*
X250250000Y-57500000D02*
X248770000Y-58980000D01*
D30*
X257701000Y-38001064D02*
X257751000Y-37951064D01*
D27*
X251401000Y-54151000D02*
X250250000Y-53000000D01*
X248770000Y-58980000D02*
X248770000Y-60030000D01*
D30*
X258000000Y-40250000D02*
X257976322Y-40250000D01*
%TO.N,Net-(U1-XIN)*%
X257400000Y-39850000D02*
X257400000Y-37437500D01*
D27*
X250405898Y-51645810D02*
X250956734Y-51645810D01*
X247350000Y-57500000D02*
X246899000Y-57049000D01*
D30*
X257048231Y-40946785D02*
X257048231Y-40201769D01*
D27*
X248050000Y-57500000D02*
X248039000Y-57511000D01*
X248050000Y-57500000D02*
X247350000Y-57500000D01*
X246899000Y-57049000D02*
X246899000Y-55152708D01*
D30*
X257048231Y-40201769D02*
X257400000Y-39850000D01*
D27*
X248039000Y-61269000D02*
X248770000Y-62000000D01*
X246899000Y-55152708D02*
X250405898Y-51645810D01*
X248039000Y-57511000D02*
X248039000Y-61269000D01*
D28*
%TO.N,/TE_TOP*%
X254562500Y-36200000D02*
X252800000Y-36200000D01*
X250250000Y-23000000D02*
X251059000Y-22191000D01*
X251059000Y-22191000D02*
X251059000Y-22092000D01*
X252800000Y-36200000D02*
X252750000Y-36250000D01*
%TO.N,/RST*%
X251325000Y-24076000D02*
X250826000Y-24076000D01*
X256420783Y-36515085D02*
X256300003Y-36394305D01*
X251350500Y-22750000D02*
X251425000Y-22675500D01*
X250873194Y-22873194D02*
X250996388Y-22750000D01*
X259857772Y-24465544D02*
X260076000Y-24247316D01*
X255852641Y-35800000D02*
X254562500Y-35800000D01*
X256300003Y-36394305D02*
X256300003Y-36247362D01*
D30*
X251425000Y-22675500D02*
X251425000Y-22092000D01*
D28*
X250826000Y-24076000D02*
X250826000Y-22924000D01*
X260076000Y-23326000D02*
X260000000Y-23250000D01*
X256300003Y-36247362D02*
X255852641Y-35800000D01*
X250996388Y-22750000D02*
X251350500Y-22750000D01*
X260076000Y-24247316D02*
X260076000Y-23326000D01*
D30*
X259950000Y-23200000D02*
X259950000Y-22085000D01*
X247750000Y-24250000D02*
X250810704Y-24250000D01*
X250810704Y-24250000D02*
X251325000Y-24764296D01*
X260000000Y-23250000D02*
X259950000Y-23200000D01*
D28*
X251325000Y-24764296D02*
X251325000Y-24076000D01*
%TO.N,/SCL*%
X254674000Y-32576000D02*
X254650000Y-32600000D01*
D30*
X260300000Y-19226044D02*
X260300000Y-20900000D01*
D28*
X255110614Y-32551806D02*
X255086420Y-32576000D01*
D30*
X249249685Y-37500315D02*
X247580000Y-39170000D01*
D28*
X258574176Y-25488998D02*
X257825000Y-24739822D01*
D30*
X247580000Y-39170000D02*
X246500000Y-39170000D01*
X251775000Y-19375000D02*
X251775000Y-20907000D01*
D28*
X256500000Y-20250000D02*
X256500000Y-19351000D01*
X254650000Y-32600000D02*
X254562500Y-32600000D01*
D30*
X260573074Y-18952970D02*
X260300000Y-19226044D01*
D28*
X256500000Y-19351000D02*
X251751000Y-19351000D01*
D30*
X249298000Y-37500315D02*
X249249685Y-37500315D01*
D28*
X255900000Y-33408054D02*
X255627000Y-33135054D01*
X255627000Y-33068192D02*
X255110614Y-32551806D01*
X255086420Y-32576000D02*
X254674000Y-32576000D01*
X255627000Y-33135054D02*
X255627000Y-33068192D01*
D30*
X251751000Y-19351000D02*
X251775000Y-19375000D01*
D28*
X257825000Y-24739822D02*
X257825000Y-23250000D01*
%TO.N,/DCX_TOP*%
X251676000Y-23930611D02*
X251676000Y-24186976D01*
X251901000Y-24525708D02*
X251901000Y-25002884D01*
D30*
X251751000Y-22810534D02*
X251751000Y-22650500D01*
X251485534Y-23076000D02*
X251751000Y-22810534D01*
D28*
X251900000Y-24524708D02*
X251901000Y-24525708D01*
X251470389Y-23725000D02*
X251676000Y-23930611D01*
D30*
X251766000Y-22508378D02*
X251775000Y-22499378D01*
D28*
X251250000Y-23725000D02*
X251470389Y-23725000D01*
X251676000Y-24186976D02*
X251900000Y-24410976D01*
D30*
X251775000Y-22499378D02*
X251775000Y-22092000D01*
D28*
X253787507Y-34600000D02*
X254562500Y-34600000D01*
X251900000Y-25003884D02*
X251900000Y-25406616D01*
D30*
X251766000Y-22650500D02*
X251766000Y-22508378D01*
X251250000Y-23076000D02*
X251485534Y-23076000D01*
D28*
X251250000Y-23250000D02*
X251250000Y-23725000D01*
D30*
X251751000Y-22650500D02*
X251766000Y-22650500D01*
X251250000Y-23250000D02*
X251250000Y-23076000D01*
D28*
X252923011Y-33735504D02*
X253787507Y-34600000D01*
X251901000Y-25002884D02*
X251900000Y-25003884D01*
X251900000Y-24410976D02*
X251900000Y-24524708D01*
D30*
%TO.N,+1V8*%
X256026000Y-20776000D02*
X255000000Y-19750000D01*
X262250000Y-18750000D02*
X261901970Y-18401970D01*
X252302000Y-26000000D02*
X256026000Y-22276000D01*
X249700000Y-26000000D02*
X252302000Y-26000000D01*
X262250000Y-18750000D02*
X262050000Y-18950000D01*
X253500000Y-19750000D02*
X253525000Y-19775000D01*
D27*
X264801000Y-19551000D02*
X264750000Y-19500000D01*
D30*
X256026000Y-22276000D02*
X256026000Y-20776000D01*
X251320212Y-18401970D02*
X247361091Y-22361091D01*
X255000000Y-19750000D02*
X253500000Y-19750000D01*
X261901970Y-18401970D02*
X251320212Y-18401970D01*
D27*
X262115000Y-63090000D02*
X264801000Y-60404000D01*
X264750000Y-19500000D02*
X264000000Y-18750000D01*
D30*
X248950000Y-25250000D02*
X249700000Y-26000000D01*
D27*
X264000000Y-18750000D02*
X262250000Y-18750000D01*
D30*
X253525000Y-19775000D02*
X253525000Y-20907000D01*
D27*
X264801000Y-60404000D02*
X264801000Y-19551000D01*
D30*
X262050000Y-18950000D02*
X262050000Y-20900000D01*
D28*
%TO.N,/CS_TOP*%
X253849000Y-33213580D02*
X253862580Y-33200000D01*
X253461589Y-32576000D02*
X252984413Y-32576000D01*
X253537441Y-32551000D02*
X253512015Y-32525574D01*
D30*
X251761284Y-23261284D02*
X252125000Y-22897568D01*
D28*
X251997000Y-23500000D02*
X251750000Y-23500000D01*
X251750000Y-23272568D02*
X251761284Y-23261284D01*
X252251000Y-24379319D02*
X252251000Y-24265587D01*
X252647001Y-31761412D02*
X252704206Y-31704206D01*
X252647001Y-32238588D02*
X252647001Y-31761412D01*
X253849000Y-32849000D02*
X253551000Y-32551000D01*
X253849000Y-33586420D02*
X253849000Y-33213580D01*
X254038580Y-33776000D02*
X253849000Y-33586420D01*
X252984413Y-32576000D02*
X252647001Y-32238588D01*
X254562500Y-33800000D02*
X254562500Y-33776000D01*
X253551000Y-32551000D02*
X253537441Y-32551000D01*
X252704206Y-31704206D02*
X252500000Y-31500000D01*
X252027000Y-23785222D02*
X252000000Y-23758222D01*
X253849000Y-33186420D02*
X253849000Y-32849000D01*
X252252000Y-24380319D02*
X252251000Y-24379319D01*
X252000000Y-23758222D02*
X252000000Y-23503000D01*
X253862580Y-33200000D02*
X253849000Y-33186420D01*
X252252000Y-24554689D02*
X252252000Y-24380319D01*
X253512015Y-32525574D02*
X253461589Y-32576000D01*
X252027000Y-24041587D02*
X252027000Y-23785222D01*
X252000000Y-23503000D02*
X251997000Y-23500000D01*
X251750000Y-23500000D02*
X251750000Y-23272568D01*
X252500000Y-31500000D02*
X252500000Y-31450000D01*
D30*
X252125000Y-22897568D02*
X252125000Y-22092000D01*
D28*
X254562500Y-33776000D02*
X254038580Y-33776000D01*
X252251000Y-24265587D02*
X252027000Y-24041587D01*
X252476000Y-24778689D02*
X252252000Y-24554689D01*
X252500000Y-31450000D02*
X252600000Y-31350000D01*
%TO.N,/MOSI*%
X255276000Y-34013580D02*
X255262420Y-34000000D01*
X255086420Y-33024000D02*
X254562500Y-33024000D01*
X255276000Y-33586420D02*
X255276000Y-33213580D01*
D30*
X251500000Y-19000000D02*
X245399000Y-25101000D01*
D28*
X255497936Y-34099681D02*
X255500000Y-34097617D01*
D30*
X259900000Y-19000000D02*
X259950000Y-19050000D01*
D28*
X257250000Y-19000000D02*
X251500000Y-19000000D01*
D30*
X251425000Y-19075000D02*
X251425000Y-20907000D01*
D28*
X257250000Y-19000000D02*
X258750000Y-19000000D01*
X255276000Y-33213580D02*
X255086420Y-33024000D01*
X255276000Y-33986420D02*
X255276000Y-33613580D01*
X257925001Y-26138172D02*
X257250000Y-25463171D01*
D30*
X258750000Y-19000000D02*
X259900000Y-19000000D01*
X259950000Y-19050000D02*
X259950000Y-20900000D01*
D28*
X255262420Y-34000000D02*
X255276000Y-33986420D01*
D30*
X251500000Y-19000000D02*
X251425000Y-19075000D01*
D28*
X255276000Y-34097617D02*
X255276000Y-34013580D01*
X255262420Y-33600000D02*
X255276000Y-33586420D01*
X254562500Y-33024000D02*
X254562500Y-33000000D01*
X255276000Y-33613580D02*
X255262420Y-33600000D01*
X257250000Y-25463171D02*
X257250000Y-19000000D01*
D30*
X245399000Y-40609000D02*
X246500000Y-41710000D01*
D28*
X255500000Y-34097617D02*
X255276000Y-34097617D01*
D30*
X245399000Y-25101000D02*
X245399000Y-40609000D01*
D28*
%TO.N,/CS_BOT*%
X253498000Y-32994388D02*
X253498000Y-33731809D01*
X252757817Y-32845793D02*
X252839025Y-32927000D01*
X252599999Y-33003611D02*
X252757817Y-32845793D01*
X253893192Y-34127000D02*
X253989580Y-34127000D01*
X254062580Y-34200000D02*
X254562500Y-34200000D01*
X253498000Y-33731809D02*
X253893192Y-34127000D01*
D30*
X260934772Y-23250000D02*
X260934772Y-22902594D01*
D28*
X253989580Y-34127000D02*
X254062580Y-34200000D01*
X260607772Y-25965544D02*
X260934772Y-25638544D01*
D30*
X260934772Y-22902594D02*
X260650000Y-22617822D01*
D28*
X252839025Y-32927000D02*
X253430612Y-32927000D01*
X253430612Y-32927000D02*
X253498000Y-32994388D01*
D30*
X260650000Y-22617822D02*
X260650000Y-22085000D01*
D28*
X260934772Y-25638544D02*
X260934772Y-23250000D01*
%TO.N,/DCX_BOT*%
X253666240Y-35525926D02*
X253792166Y-35400000D01*
D30*
X260608772Y-23002272D02*
X260300000Y-22693500D01*
X260250000Y-25250000D02*
X260608772Y-24891228D01*
X260300000Y-22693500D02*
X260300000Y-22085000D01*
X260608772Y-24891228D02*
X260608772Y-23002272D01*
D28*
X253792166Y-35400000D02*
X254562500Y-35400000D01*
X253666240Y-35538479D02*
X253666240Y-35525926D01*
%TO.N,/TE_BOT*%
X259000000Y-22750000D02*
X259584000Y-22166000D01*
X259584000Y-23334000D02*
X259000000Y-22750000D01*
X259584000Y-22166000D02*
X259584000Y-22085000D01*
X259500000Y-23750000D02*
X259584000Y-23666000D01*
X259584000Y-23666000D02*
X259584000Y-23334000D01*
X254562500Y-36600000D02*
X255400000Y-36600000D01*
X255400000Y-36600000D02*
X255500000Y-36500000D01*
%TO.N,Net-(J3-CC1)*%
X251750001Y-50313172D02*
X249934000Y-48497171D01*
X249934000Y-45826000D02*
X251500000Y-44260000D01*
X249934000Y-48497171D02*
X249934000Y-45826000D01*
%TO.N,Net-(J3-CC2)*%
X250509000Y-47500000D02*
X250509000Y-46279000D01*
X249359000Y-49053546D02*
X249359000Y-47500000D01*
X251184314Y-50878860D02*
X249359000Y-49053546D01*
X250509000Y-46279000D02*
X250480000Y-46250000D01*
%TO.N,/VSYNC*%
X255400000Y-37437500D02*
X255400000Y-39700000D01*
X255400000Y-39700000D02*
X254850000Y-40250000D01*
X248880000Y-51870000D02*
X246500000Y-51870000D01*
X249000000Y-51750000D02*
X248880000Y-51870000D01*
%TO.N,/UART_RX*%
X253682829Y-32200000D02*
X254562500Y-32200000D01*
X253482829Y-32000000D02*
X253682829Y-32200000D01*
X248710000Y-46790000D02*
X246500000Y-46790000D01*
X252068256Y-30150000D02*
X251600000Y-30618256D01*
X248750000Y-46750000D02*
X248710000Y-46790000D01*
X253223001Y-32000000D02*
X253482829Y-32000000D01*
X252527000Y-30150000D02*
X252068256Y-30150000D01*
X251600000Y-30618256D02*
X251600000Y-41500000D01*
%TO.N,/UART_TX*%
X253051000Y-28126000D02*
X252527000Y-28650000D01*
X255653996Y-32500000D02*
X255604596Y-32549400D01*
X255604596Y-32549400D02*
X255276000Y-32220804D01*
X256154781Y-28404781D02*
X256154781Y-28645219D01*
X255899998Y-32500000D02*
X255653996Y-32500000D01*
X254586500Y-31824000D02*
X254562500Y-31800000D01*
X255635562Y-28126000D02*
X253051000Y-28126000D01*
X256154781Y-28645219D02*
X255635562Y-28126000D01*
X255086420Y-31824000D02*
X254586500Y-31824000D01*
X255276000Y-32220804D02*
X255276000Y-32013580D01*
X255276000Y-32013580D02*
X255086420Y-31824000D01*
D29*
%TO.N,/FLASH_MOSI*%
X263750000Y-46250000D02*
X261425000Y-46250000D01*
X259901000Y-32000000D02*
X259901000Y-35198774D01*
X259901000Y-35198774D02*
X260902226Y-36200000D01*
X263849000Y-36349000D02*
X263849000Y-46151000D01*
X256600000Y-30562500D02*
X256600000Y-31600000D01*
X263700000Y-36200000D02*
X263849000Y-36349000D01*
X261437500Y-36200000D02*
X263700000Y-36200000D01*
X256600000Y-31600000D02*
X257000000Y-32000000D01*
D28*
X260611876Y-46250000D02*
X261425000Y-46250000D01*
D29*
X257000000Y-32000000D02*
X259901000Y-32000000D01*
X260902226Y-36200000D02*
X261437500Y-36200000D01*
X263849000Y-46151000D02*
X263750000Y-46250000D01*
%TO.N,/FLASH_MISO*%
X255800000Y-29925000D02*
X255625000Y-29750000D01*
D28*
X260398932Y-42851068D02*
X260336500Y-42788636D01*
D29*
X252775943Y-29549000D02*
X252278057Y-29549000D01*
D28*
X262450000Y-40671124D02*
X262450000Y-39000000D01*
D29*
X250999000Y-41251057D02*
X250999000Y-41748943D01*
D28*
X260336500Y-42788636D02*
X260336500Y-42091364D01*
D29*
X251000000Y-41817100D02*
X252892900Y-43710000D01*
D28*
X261282124Y-41839000D02*
X262450000Y-40671124D01*
D29*
X252976943Y-29750000D02*
X252775943Y-29549000D01*
X251000000Y-41250057D02*
X250999000Y-41251057D01*
D28*
X259969669Y-43280331D02*
X260398932Y-42851068D01*
X254472500Y-43710000D02*
X254250000Y-43710000D01*
D29*
X252077057Y-29750000D02*
X251000000Y-29750000D01*
X250999000Y-41748943D02*
X251000000Y-41749943D01*
X251000000Y-29750000D02*
X251000000Y-41250057D01*
D28*
X262154772Y-35800000D02*
X261437500Y-35800000D01*
D29*
X255800000Y-30562500D02*
X255800000Y-29925000D01*
D28*
X261487500Y-35780000D02*
X261467500Y-35800000D01*
X254000000Y-43960000D02*
X254250000Y-43710000D01*
X262354771Y-35600001D02*
X262154772Y-35800000D01*
X260336500Y-42091364D02*
X260588864Y-41839000D01*
X254710000Y-43250000D02*
X257010298Y-43250000D01*
X258969669Y-43280331D02*
X259969669Y-43280331D01*
X254587500Y-43595000D02*
X254472500Y-43710000D01*
X260588864Y-41839000D02*
X261282124Y-41839000D01*
X257010298Y-43250000D02*
X257260298Y-43000000D01*
X261437500Y-35800000D02*
X261467500Y-35800000D01*
D29*
X255625000Y-29750000D02*
X252976943Y-29750000D01*
X251000000Y-41749943D02*
X251000000Y-41817100D01*
X252278057Y-29549000D02*
X252077057Y-29750000D01*
X252892900Y-43710000D02*
X254250000Y-43710000D01*
D28*
X254250000Y-43710000D02*
X254710000Y-43250000D01*
D29*
%TO.N,/FLASH_CLK*%
X263249000Y-45000000D02*
X261445000Y-45000000D01*
X261445000Y-45000000D02*
X261425000Y-44980000D01*
X262250000Y-37412500D02*
X261437500Y-36600000D01*
X257229771Y-31479771D02*
X257000000Y-31250000D01*
X262250000Y-37500000D02*
X262250000Y-37412500D01*
X260461978Y-31479771D02*
X257229771Y-31479771D01*
X257000000Y-31250000D02*
X257000000Y-30562500D01*
X260477639Y-31495432D02*
X260461978Y-31479771D01*
%TO.N,/FLASH_CS*%
X255212500Y-30750000D02*
X252000000Y-30750000D01*
X259000000Y-39000000D02*
X259250000Y-38750000D01*
X259000000Y-40250000D02*
X259000000Y-39000000D01*
X252000000Y-37000000D02*
X254250000Y-39250000D01*
X254250000Y-39250000D02*
X254250000Y-42440000D01*
X260601000Y-38149000D02*
X260601000Y-37437500D01*
X252000000Y-30750000D02*
X252000000Y-37000000D01*
X255400000Y-30562500D02*
X255212500Y-30750000D01*
X260449000Y-38750000D02*
X260449000Y-38301000D01*
X254250000Y-41988068D02*
X256747017Y-39491051D01*
X260449000Y-38301000D02*
X260601000Y-38149000D01*
X254250000Y-42440000D02*
X254250000Y-41988068D01*
%TO.N,/USB_DM*%
X264250000Y-35500000D02*
X264250000Y-47000000D01*
X259400000Y-29350000D02*
X259500000Y-29250000D01*
X259400000Y-30562500D02*
X259400000Y-29350000D01*
X259500000Y-29250000D02*
X263000000Y-29250000D01*
X263000000Y-29250000D02*
X263000000Y-34250000D01*
X264077000Y-47173000D02*
X260827000Y-47173000D01*
X263000000Y-34250000D02*
X264250000Y-35500000D01*
X264250000Y-47000000D02*
X264077000Y-47173000D01*
X260827000Y-47173000D02*
X260500000Y-47500000D01*
X260500000Y-47500000D02*
X260500000Y-50283824D01*
X260500000Y-50283824D02*
X258353824Y-52430000D01*
X258353824Y-52430000D02*
X257745000Y-52430000D01*
D27*
%TO.N,+3.3V*%
X260250000Y-57000000D02*
X260214917Y-57000000D01*
X260214917Y-57000000D02*
X260000000Y-57214917D01*
X260000000Y-57857458D02*
X259857458Y-58000000D01*
X260000000Y-57214917D02*
X260000000Y-57857458D01*
X259857458Y-58000000D02*
X257947500Y-58000000D01*
X256947500Y-58000000D02*
X257447500Y-58500000D01*
X256500000Y-58000000D02*
X256947500Y-58000000D01*
X257947500Y-58000000D02*
X257447500Y-58500000D01*
X255250000Y-56750000D02*
X256500000Y-58000000D01*
X252500000Y-46315378D02*
X252500000Y-56750000D01*
X254250000Y-44980000D02*
X253835378Y-44980000D01*
X253835378Y-44980000D02*
X252500000Y-46315378D01*
X252500000Y-56750000D02*
X255250000Y-56750000D01*
%TD*%
M02*
